STARTFONT 2.1
COMMENT
COMMENT Converted from OpenType font "Q:\font stuff\winfont\Thong.ttf" by "otf2bdf 3.0".
COMMENT
FONT -FreeType-Thong-Medium-R-Normal--221-1600-100-100-P-711-ISO10646-1
SIZE 160 100 100
FONTBOUNDINGBOX 253 221 -21 -42
STARTPROPERTIES 19
FOUNDRY "FreeType"
FAMILY_NAME "Thong"
WEIGHT_NAME "Medium"
SLANT "R"
SETWIDTH_NAME "Normal"
ADD_STYLE_NAME ""
PIXEL_SIZE 221
POINT_SIZE 1600
RESOLUTION_X 100
RESOLUTION_Y 100
SPACING "P"
AVERAGE_WIDTH 711
CHARSET_REGISTRY "ISO10646"
CHARSET_ENCODING "1"
FONT_ASCENT 179
FONT_DESCENT 42
COPYRIGHT "© Graham Meade. All rights reserved. gem@c031.aone.net.au"
_OTF_FONTFILE "Q:\font stuff\winfont\Thong.ttf"
_OTF_PSNAME "Thong"
ENDPROPERTIES
CHARS 207
STARTCHAR 0020
ENCODING 32
SWIDTH 360 0
DWIDTH 80 0
BBX 0 0 0 0
BITMAP
ENDCHAR
STARTCHAR 0021
ENCODING 33
SWIDTH 85 0
DWIDTH 19 0
BBX 7 144 5 0
BITMAP
FE
FE
FE
FE
FE
FE
FE
FE
FE
FE
FE
FE
FE
FE
FE
FE
FE
FE
FE
FE
FE
FE
FE
FE
FE
FE
FE
FE
FE
FE
FE
FE
FE
FE
FE
FE
FE
FE
FE
FE
FE
FE
FE
FE
FE
FE
FE
FE
FE
FE
FE
FE
FE
FE
FE
FE
FE
FE
FE
FE
FE
FE
FE
FE
FE
FE
FE
FE
FE
FE
FE
FE
FE
FE
FE
FE
FE
FE
FE
FE
FE
FE
FE
FE
FE
FE
FE
FE
FE
FE
FE
FE
FE
FE
FE
FE
FE
FE
FE
FE
FE
FE
FE
FE
FE
FE
FE
FE
FE
FE
FE
FE
FE
FE
FE
00
00
00
00
00
00
00
00
00
00
00
00
00
00
00
00
00
00
00
00
00
00
7C
FE
FE
FE
FE
FE
7C
ENDCHAR
STARTCHAR 0022
ENCODING 34
SWIDTH 153 0
DWIDTH 34 0
BBX 22 33 5 111
BITMAP
FE01FC
FE01FC
FE01FC
FE01FC
FE01FC
FE01FC
FE01FC
FE01FC
FE01FC
FE01FC
FE01FC
FE01FC
FE01FC
FE01FC
FE01FC
FE01FC
FE01FC
FE01FC
FE01FC
FE01FC
FE01FC
FE01FC
FE01FC
FE01FC
FE01FC
FE01FC
FE01FC
FE01FC
FE01FC
FE01FC
FE01FC
FE01FC
FE01FC
ENDCHAR
STARTCHAR 0023
ENCODING 35
SWIDTH 490 0
DWIDTH 109 0
BBX 97 96 5 26
BITMAP
00003E0000000000003E000000
00003FC00000000001FE000000
00003FF00000000007FE000000
00003FFC000000001FFE000000
00003FFE000000003FFE000000
00003FFF000000007FFE000000
00003FFF80000000FFFE000000
000007FFC0000001FFF0000000
000000FFE0000003FF80000000
0000003FF0000007FE00000000
0000001FF0000007FC00000000
0000000FF800000FF800000000
00000007F800000FF000000000
00000003FC00001FE000000000
00000003FC00001FE000000000
00000001FC00001FC000000000
00000001FC00003FC000000000
FE000001FE00003F8000003F80
FE000000FE00003F8000003F80
FE000000FE00003F8000003F80
FE000000FE00003F8000003F80
FF000000FE00003F8000007F80
7F000000FE00003F8000007F00
7F000000FE00003F8000007F00
7F800000FE00003F800000FF00
3FC00000FE00003F800001FE00
3FC00000FE00003F800001FE00
3FE00000FE00003F800003FC00
1FF00000FE00003F800007FC00
0FF80000FE00003F80000FF800
0FFE0000FE00003F80003FF000
07FFC000FE00003F8001FFF000
03FFFFFFFFFFFFFFFFFFFFE000
01FFFFFFFFFFFFFFFFFFFFC000
00FFFFFFFFFFFFFFFFFFFF8000
003FFFFFFFFFFFFFFFFFFE0000
001FFFFFFFFFFFFFFFFFFC0000
0007FFFFFFFFFFFFFFFFF00000
00007FFFFFFFFFFFFFFF000000
00000000FE00003F8000000000
00000000FE00003F8000000000
00000000FE00003F8000000000
00000000FE00003F8000000000
00000000FE00003F8000000000
00000000FE00003F8000000000
00000000FE00003F8000000000
00000000FE00003F8000000000
00000000FE00003F8000000000
00000000FE00003F8000000000
00000000FE00003F8000000000
00000000FE00003F8000000000
00000000FE00003F8000000000
00000000FE00003F8000000000
00000000FE00003F8000000000
00000000FE00003F8000000000
00000000FE00003F8000000000
00000000FE00003F8000000000
00007FFFFFFFFFFFFFFF000000
0007FFFFFFFFFFFFFFFFF00000
001FFFFFFFFFFFFFFFFFFC0000
007FFFFFFFFFFFFFFFFFFE0000
00FFFFFFFFFFFFFFFFFFFF8000
01FFFFFFFFFFFFFFFFFFFFC000
03FFFFFFFFFFFFFFFFFFFFE000
07FFC000FE00003F8000FFF000
0FFE0000FE00003F80003FF800
1FF80000FE00003F80000FF800
1FF00000FE00003F800007FC00
3FE00000FE00003F800003FE00
3FC00000FE00003F800001FE00
7F800000FE00003F800000FF00
7F800000FE00003F800000FF00
7F000000FE00003F8000007F00
FF000000FE00003F8000007F80
FE000000FE00003F8000007F80
FE000000FE00003F8000003F80
FE000000FE00003F8000003F80
FE000000FE00003F8000003F80
00000001FE00003F8000000000
00000001FE00003FC000000000
00000001FC00001FC000000000
00000003FC00001FE000000000
00000003FC00001FE000000000
00000007F800000FF000000000
0000000FF800000FF800000000
0000001FF0000007FC00000000
0000003FF0000007FE00000000
000000FFE0000003FF80000000
000007FFC0000001FFF0000000
00003FFF80000000FFFE000000
00003FFF000000007FFE000000
00003FFE000000003FFE000000
00003FFC000000001FFE000000
00003FF00000000007FE000000
00003FC00000000001FE000000
00003E0000000000003E000000
ENDCHAR
STARTCHAR 0024
ENCODING 36
SWIDTH 427 0
DWIDTH 95 0
BBX 82 186 5 -21
BITMAP
0001FFFFFFFFFFFFF00000
0001FFFFFFFFFFFFF00000
0001FFFFFFFFFFFFF00000
0001FFFFFFFFFFFFF00000
0001FFFFFFFFFFFFF00000
0001FFFFFFFFFFFFF00000
0001FFFFFFFFFFFFF00000
00001FFE00000FFF000000
000007FF00001FFC000000
000001FF00003FF0000000
000000FF80003FE0000000
0000007FC0007FC0000000
0000003FC0007F80000000
0000001FE000FF00000000
0000001FE000FF00000000
0000000FE000FE00000000
0000000FE001FE00000000
00000007F001FC00000000
00000007F001FC00000000
00000007F001FC00000000
00000007F001FC00000000
00000007FFFFFC00000000
0000003FFFFFFF80000000
000001FFFFFFFFF0000000
000007FFFFFFFFFC000000
00001FFFFFFFFFFF000000
00007FFFFFFFFFFFC00000
0001FFFFFFFFFFFFE00000
0003FFFFF001FFFFF00000
0007FFFFF001FFFFFC0000
000FFFC7F001FC7FFE0000
001FFE07F001FC1FFF0000
003FF807F001FC07FF8000
007FF007F001FC01FFC000
00FFC007F001FC00FFC000
01FF8007F001FC007FE000
03FF0007F001FC003FF000
03FE0007F001FC001FF000
07FC0007F001FC000FF800
0FF80007F001FC0007FC00
0FF80007F001FC0003FC00
1FF00007F001FC0003FE00
1FE00007F001FC0001FE00
1FE00007F001FC0000FE00
3FC00007F001FC0000FF00
3FC00007F001FC00007F00
7F800007F001FC00007F00
7F800007F001FC00007F80
7F000007F001FC00003F80
7F000007F001FC00003F80
7F000007F001FC00003F80
FF000007F001FC00003FC0
FE000007F001FC00001FC0
FE000007F001FC00001FC0
FE000007F001FC00001FC0
FE000007F001FC00001FC0
FE000007F001FC00001FC0
FE000007F001FC00000000
FE000007F001FC00000000
FE000007F001FC00000000
FE000007F001FC00000000
FE000007F001FC00000000
FF000007F001FC00000000
7F000007F001FC00000000
7F000007F001FC00000000
7F000007F001FC00000000
7F800007F001FC00000000
7F800007F001FC00000000
3F800007F001FC00000000
3FC00007F001FC00000000
1FC00007F001FC00000000
1FE00007F001FC00000000
1FF00007F001FC00000000
0FF00007F001FC00000000
07F80007F001FC00000000
07FC0007F001FC00000000
03FE0007F001FC00000000
03FF0007F001FC00000000
01FF8007F001FC00000000
00FFC007F001FC00000000
007FE007F001FC00000000
003FF807F001FC00000000
001FFE07F001FC00000000
000FFF87F001FC00000000
0007FFF7F001FC00000000
0003FFFFF001FC00000000
0001FFFFFFFFFE00000000
00007FFFFFFFFFC0000000
00001FFFFFFFFFF8000000
000007FFFFFFFFFE000000
000001FFFFFFFFFF800000
0000001FFFFFFFFFC00000
00000007FFFFFFFFF00000
00000007F001FFFFF80000
00000007F001FCFFFC0000
00000007F001FC1FFE0000
00000007F001FC07FF0000
00000007F001FC03FF8000
00000007F001FC00FFC000
00000007F001FC007FE000
00000007F001FC003FF000
00000007F001FC001FF000
00000007F001FC000FF800
00000007F001FC0007F800
00000007F001FC0003FC00
00000007F001FC0003FC00
00000007F001FC0001FE00
00000007F001FC0000FE00
00000007F001FC0000FF00
00000007F001FC00007F00
00000007F001FC00007F00
00000007F001FC00003F80
00000007F001FC00003F80
00000007F001FC00003F80
00000007F001FC00003F80
00000007F001FC00001FC0
00000007F001FC00001FC0
00000007F001FC00001FC0
00000007F001FC00001FC0
00000007F001FC00001FC0
00000007F001FC00001FC0
00000007F001FC00001FC0
00000007F001FC00001FC0
00000007F001FC00001FC0
00000007F001FC00001FC0
00000007F001FC00001FC0
00000007F001FC00001FC0
00000007F001FC00001FC0
00000007F001FC00001FC0
FE000007F001FC00001FC0
FE000007F001FC00001FC0
FE000007F001FC00001FC0
FE000007F001FC00001FC0
FE000007F001FC00001FC0
FF000007F001FC00001FC0
7F000007F001FC00001F80
7F000007F001FC00003F80
7F000007F001FC00003F80
7F800007F001FC00003F80
3F800007F001FC00007F00
3F800007F001FC00007F00
3FC00007F001FC0000FF00
1FE00007F001FC0000FE00
1FE00007F001FC0001FE00
0FF00007F001FC0001FC00
0FF80007F001FC0003FC00
07F80007F001FC0007F800
07FC0007F001FC000FF800
03FE0007F001FC001FF000
01FF0007F001FC003FE000
00FF8007F001FC007FE000
00FFC007F001FC00FFC000
007FF007F001FC01FF8000
003FF807F001FC07FF0000
001FFE07F001FC1FFE0000
000FFFC7F001FC7FFC0000
0007FFFFF001FFFFF80000
0001FFFFFFFFFFFFF00000
0000FFFFFFFFFFFFC00000
00003FFFFFFFFFFF800000
00000FFFFFFFFFFE000000
000003FFFFFFFFF0000000
0000007FFFFFFFC0000000
00000007FFFFFC00000000
00000007FFFFFC00000000
00000007F001FC00000000
00000007F001FC00000000
00000007F001FC00000000
0000000FF001FE00000000
0000000FF001FE00000000
0000000FE000FE00000000
0000001FE000FF00000000
0000001FE000FF00000000
0000003FC0007F80000000
0000007FC0007FC0000000
000000FF80003FE0000000
000001FF00003FF0000000
000007FF00001FFC000000
00001FFE00000FFF000000
0001FFFFFFFFFFFFF00000
0001FFFFFFFFFFFFF00000
0001FFFFFFFFFFFFF00000
0001FFFFFFFFFFFFF00000
0001FFFFFFFFFFFFF00000
0001FFFFFFFFFFFFF00000
0001FFFFFFFFFFFFF00000
ENDCHAR
STARTCHAR 0025
ENCODING 37
SWIDTH 810 0
DWIDTH 180 0
BBX 168 144 5 -1
BITMAP
00000003FFC0000000000000000000FF8000000000
0000007FFFFE000000000000000001FF0000000000
000003FFFFFFC00000000000000001FF0000000000
00000FFFFFFFF00000000000000003FE0000000000
00003FFFFFFFFC0000000000000007FE0000000000
0000FFFFFFFFFF0000000000000007FC0000000000
0001FFFFFFFFFF800000000000000FFC0000000000
0003FFFC007FFFC00000000000000FF80000000000
000FFFE00007FFF00000000000001FF00000000000
001FFF000000FFF80000000000001FF00000000000
003FFC0000003FFC0000000000003FE00000000000
007FF00000000FFE0000000000007FE00000000000
00FFE000000007FF0000000000007FC00000000000
00FFC000000003FF000000000000FF800000000000
01FF8000000001FF800000000000FF800000000000
03FF0000000000FFC00000000001FF000000000000
07FE00000000007FC00000000001FF000000000000
07FC00000000003FE00000000003FE000000000000
0FF800000000001FF00000000007FC000000000000
0FF000000000000FF00000000007FC000000000000
1FE000000000000FF8000000000FF8000000000000
1FE0000000000007F8000000000FF8000000000000
3FC0000000000003FC000000001FF0000000000000
3FC0000000000003FC000000003FF0000000000000
3F80000000000001FC000000003FE0000000000000
7F80000000000001FE000000007FC0000000000000
7F80000000000001FE000000007FC0000000000000
7F00000000000000FE00000000FF80000000000000
7F00000000000000FE00000000FF80000000000000
7F00000000000000FE00000001FF00000000000000
FF00000000000000FF00000003FE00000000000000
FE000000000000007F00000003FE00000000000000
FE000000000000007F00000007FC00000000000000
FE000000000000007F00000007FC00000000000000
FE000000000000007F0000000FF800000000000000
FE000000000000007F0000000FF800000000000000
FE000000000000007F0000001FF000000000000000
FE000000000000007F0000003FE000000000000000
FE000000000000007F0000003FE000000000000000
FE000000000000007F0000007FC000000000000000
FE000000000000007F0000007FC000000000000000
FE000000000000007F000000FF8000000000000000
FF00000000000000FF000001FF0000000000000000
7F00000000000000FE000001FF0000000000000000
7F00000000000000FE000003FE0000000000000000
7F00000000000000FE000003FE0000000000000000
7F80000000000001FE000007FC0000000000000000
3F80000000000001FC000007F80000000000000000
3F80000000000001FC00000FF80000000000000000
3FC0000000000003FC00001FF00000000000000000
1FC0000000000003F800001FF00000000000000000
1FE0000000000007F800003FE00000000000000000
0FF000000000000FF000003FE00000000000000000
0FF000000000000FF000007FC00000000000000000
07F800000000001FE000007F800000000000000000
07FC00000000003FE00000FF800000000000000000
03FE00000000007FC00001FF000000000000000000
01FF0000000000FF800001FF000000000000000000
01FF8000000001FF800003FE000000000000000000
00FFC000000003FF000003FC000000000000000000
007FE000000007FE000007FC000000000000000000
003FF00000001FFC00000FF8000000000000000000
001FFC0000003FF800000FF8000000000000000000
000FFF000000FFF000001FF0000000000000000000
0007FFE00007FFE000001FF0000000000000000000
0003FFFC003FFFC000003FE0000000000000000000
0000FFFFFFFFFF0000003FC0000000000000000000
00007FFFFFFFFE0000007FC0000000000000000000
00001FFFFFFFF8000000FF80000000000000000000
000007FFFFFFE0000000FF80000000000000000000
000000FFFFFF00000001FF00000000000000000000
0000000FFFF000000001FE00000000000000000000
00000000000000000003FE00000000000000000000
00000000000000000003FC0000000007FFE0000000
00000000000000000007FC000000007FFFFE000000
0000000000000000000FF800000001FFFFFFC00000
0000000000000000000FF00000000FFFFFFFF00000
0000000000000000001FF00000003FFFFFFFFC0000
0000000000000000001FE00000007FFFFFFFFF0000
0000000000000000003FE0000001FFFFFFFFFF8000
0000000000000000003FC0000003FFFE003FFFE000
0000000000000000007FC0000007FFE00003FFF000
000000000000000000FF8000000FFF800000FFF800
000000000000000000FF0000001FFE0000003FFC00
000000000000000001FF0000003FF80000000FFE00
000000000000000001FE0000007FF000000007FF00
000000000000000003FE000000FFC000000001FF80
000000000000000007FC000001FF8000000000FF80
000000000000000007F8000001FF00000000007FC0
00000000000000000FF8000003FE00000000003FE0
00000000000000000FF0000003FC00000000001FE0
00000000000000001FF0000007FC00000000001FF0
00000000000000001FE000000FF800000000000FF0
00000000000000003FE000000FF0000000000007F8
00000000000000007FC000000FF0000000000007F8
00000000000000007F8000001FE0000000000003FC
0000000000000000FF8000001FE0000000000003FC
0000000000000000FF0000001FC0000000000001FC
0000000000000001FF0000003FC0000000000001FE
0000000000000001FE0000003F80000000000000FE
0000000000000003FC0000003F80000000000000FE
0000000000000007FC0000003F80000000000000FE
0000000000000007F80000007F80000000000000FF
000000000000000FF80000007F000000000000007F
000000000000000FF00000007F000000000000007F
000000000000001FE00000007F000000000000007F
000000000000003FE00000007F000000000000007F
000000000000003FC00000007F000000000000007F
000000000000007FC00000007F000000000000007F
000000000000007F800000007F000000000000007F
00000000000000FF800000007F000000000000007F
00000000000000FF000000007F000000000000007F
00000000000001FE000000007F000000000000007F
00000000000003FE000000007F000000000000007F
00000000000003FC000000007F80000000000000FF
00000000000007FC000000003F80000000000000FE
00000000000007F8000000003F80000000000000FE
0000000000000FF0000000003F80000000000000FE
0000000000000FF0000000003FC0000000000001FE
0000000000001FE0000000001FC0000000000001FC
0000000000003FE0000000001FE0000000000003FC
0000000000003FC0000000001FE0000000000003FC
0000000000007FC0000000000FF0000000000007F8
0000000000007F80000000000FF0000000000007F8
000000000000FF000000000007F800000000000FF0
000000000000FF000000000007FC00000000001FF0
000000000001FE000000000003FC00000000003FE0
000000000003FE000000000003FE00000000003FE0
000000000003FC000000000001FF00000000007FC0
000000000007F8000000000000FF8000000000FF80
000000000007F8000000000000FFC000000003FF00
00000000000FF00000000000007FF000000007FF00
00000000001FF00000000000003FF80000000FFE00
00000000001FE00000000000001FFE0000003FFC00
00000000003FE00000000000000FFF800000FFF800
00000000003FC000000000000007FFE00003FFF000
00000000007F8000000000000003FFFE003FFFC000
00000000007F8000000000000000FFFFFFFFFF8000
0000000000FF00000000000000007FFFFFFFFF0000
0000000001FF00000000000000001FFFFFFFFC0000
0000000001FE000000000000000007FFFFFFF00000
0000000003FC000000000000000001FFFFFFC00000
0000000003FC0000000000000000003FFFFE000000
0000000007F800000000000000000003FFE0000000
ENDCHAR
STARTCHAR 0026
ENCODING 38
SWIDTH 454 0
DWIDTH 101 0
BBX 88 148 5 -4
BITMAP
000000007FFC0000000000
00000007FFFFC000000000
0000003FFFFFF800000000
000000FFFFFFFE00000000
000003FFFFFFFF80000000
000007FFFFFFFFE0000000
00001FFFFFFFFFF0000000
00003FFFC007FFF8000000
00007FFC00007FFE000000
0001FFF000001FFF000000
0003FFC0000007FF800000
0007FF00000001FFC00000
0007FE00000000FFE00000
000FF8000000003FE00000
001FF0000000001FF00000
003FE0000000000FF80000
003FC00000000007FC0000
007FC00000000003FC0000
00FF800000000003FE0000
00FF000000000001FE0000
01FE000000000000FF0000
01FE000000000000FF0000
03FC0000000000007F8000
03FC0000000000007F8000
03F80000000000003F8000
07F80000000000003FC000
07F00000000000003FC000
07F00000000000001FC000
07F00000000000001FC000
07F00000000000001FC000
0FE00000000000000FE000
0FE00000000000000FE000
0FE00000000000000FE000
0FE00000000000000FE000
0FE00000000000000FE000
0FE00000000000000FE000
0FE00000000000000FE000
0FE00000000000000FE000
0FE00000000000000FE000
0FE00000000000000FE000
0FE00000000000000FE000
0FE00000000000000FE000
0FF00000000000001FE000
07F00000000000001FC000
07F00000000000001FC000
07F00000000000003FC000
07F80000000000003FC000
07F80000000000003F8000
03FC0000000000007F8000
03FC0000000000007F8000
03FE000000000000FF0000
01FE000000000000FF0000
01FF000000000001FE0000
00FF800000000003FE0000
00FF800000000007FC0000
007FC00000000007FC0000
007FE0000000000FF80000
003FF0000000001FF00000
001FF8000000003FF00000
000FFE00000000FFE00000
000FFF00000001FFC00000
0007FFC0000007FF800000
0003FFF000001FFF000000
0001FFFC00007FFE000000
00007FFFC007FFFC000000
00003FFFFFFFFFF0000000
00001FFFFFFFFFE0000000
000007FFFFFFFF80000000
000003FFFFFFFE00000000
00001FFFFFFFF800000000
00003FFFFFFFC000000000
0000FFFFFFFC0000000000
0001FFFF00000000000000
0007FFE000000000000000
000FFF8000000000000000
001FFE0000000000000000
003FF80000000000000000
007FE00000000000000000
00FFC00000000000000000
01FF800000000000000000
01FF000000000000000000
03FE000000000000000000
07FC000000000000000000
07F8000000000000000000
0FF0000000000000000000
0FF0000000000000000000
1FE0000000000000000000
1FE0000000000000000000
3FC0000000000000000000
3FC0000000000000000000
3F80000000000000000000
7F80000000000000000000
7F00000000000000000000
7F00000000000000000000
7F00000000000000000000
FF00000000000000000000
FE00000000000000000000
FE00000000000000000000
FE00000000000000000000
FE00000000000000000000
FE00000000000000000000
FE00000000000000000000
FE00000000000000000000
FE00000000000000000000
FE00000000000000000000
FE00000000000000000000
FE00000000000000000000
FE00000000000000000000
FE000000000000000001FC
FE000000000000000001FC
FE000000000000000001FC
FE000000000000000001FC
FE000000000000000003FC
FE000000000000000003FC
FF000000000000000003F8
7F000000000000000003F8
7F000000000000000003F8
7F000000000000000007F8
7F800000000000000007F0
3F800000000000000007F0
3F80000000000000000FF0
3FC0000000000000000FE0
1FC0000000000000001FE0
1FE0000000000000003FE0
0FF0000000000000003FC0
0FF0000000000000007FC0
07F800000000000000FF80
07FC00000000000001FF00
03FE00000000000003FF00
01FF00000000000007FE00
01FF8000000000000FFE00
00FFE000000000001FFF00
007FF000000000003FFF00
003FFC0000000000FFFF80
001FFF0000000003FFFF80
000FFFC00000000FFFFFC0
0003FFFC000000FFFF3FC0
0001FFFFFFFFFFFFFE3FE0
0000FFFFFFFFFFFFF81FE0
00003FFFFFFFFFFFF01FF0
00000FFFFFFFFFFFC00FF8
000003FFFFFFFFFE0007F8
0000007FFFFFFFF80007FC
00000003FFFFFF000003FC
00000000000000000003FE
00000000000000000001FE
00000000000000000000FF
00000000000000000000FF
ENDCHAR
STARTCHAR 0027
ENCODING 39
SWIDTH 85 0
DWIDTH 19 0
BBX 7 33 5 111
BITMAP
FE
FE
FE
FE
FE
FE
FE
FE
FE
FE
FE
FE
FE
FE
FE
FE
FE
FE
FE
FE
FE
FE
FE
FE
FE
FE
FE
FE
FE
FE
FE
FE
FE
ENDCHAR
STARTCHAR 0028
ENCODING 40
SWIDTH 216 0
DWIDTH 48 0
BBX 36 172 5 -14
BITMAP
00000003F0
0000007FF0
000003FFF0
00000FFFF0
00003FFFF0
00007FFFF0
0001FFFFF0
0003FFFF80
0007FFF000
001FFF8000
003FFE0000
003FF80000
007FE00000
00FFC00000
01FF800000
03FF000000
03FE000000
07FC000000
0FF8000000
0FF0000000
1FF0000000
1FE0000000
3FC0000000
3FC0000000
3F80000000
7F80000000
7F80000000
7F00000000
7F00000000
FF00000000
FE00000000
FE00000000
FE00000000
FE00000000
FE00000000
FE00000000
FE00000000
FE00000000
FE00000000
FE00000000
FE00000000
FE00000000
FE00000000
FE00000000
FE00000000
FE00000000
FE00000000
FE00000000
FE00000000
FE00000000
FE00000000
FE00000000
FE00000000
FE00000000
FE00000000
FE00000000
FE00000000
FE00000000
FE00000000
FE00000000
FE00000000
FE00000000
FE00000000
FE00000000
FE00000000
FE00000000
FE00000000
FE00000000
FE00000000
FE00000000
FE00000000
FE00000000
FE00000000
FE00000000
FE00000000
FE00000000
FE00000000
FE00000000
FE00000000
FE00000000
FE00000000
FE00000000
FE00000000
FE00000000
FE00000000
FE00000000
FE00000000
FE00000000
FE00000000
FE00000000
FE00000000
FE00000000
FE00000000
FE00000000
FE00000000
FE00000000
FE00000000
FE00000000
FE00000000
FE00000000
FE00000000
FE00000000
FE00000000
FE00000000
FE00000000
FE00000000
FE00000000
FE00000000
FE00000000
FE00000000
FE00000000
FE00000000
FE00000000
FE00000000
FE00000000
FE00000000
FE00000000
FE00000000
FE00000000
FE00000000
FE00000000
FE00000000
FE00000000
FE00000000
FE00000000
FE00000000
FE00000000
FE00000000
FE00000000
FE00000000
FE00000000
FE00000000
FE00000000
FE00000000
FE00000000
FE00000000
FE00000000
FE00000000
FE00000000
FE00000000
FE00000000
FE00000000
FF00000000
7F00000000
7F00000000
7F00000000
7F80000000
3F80000000
3FC0000000
3FC0000000
1FE0000000
1FE0000000
0FF0000000
0FF8000000
07FC000000
07FC000000
03FE000000
01FF000000
01FFC00000
00FFE00000
007FF00000
003FFC0000
001FFF0000
000FFFE000
0007FFFE00
0001FFFFF0
0000FFFFF0
00003FFFF0
00000FFFF0
000003FFF0
0000007FF0
00000003F0
ENDCHAR
STARTCHAR 0029
ENCODING 41
SWIDTH 216 0
DWIDTH 48 0
BBX 36 172 5 -14
BITMAP
FC00000000
FFE0000000
FFF8000000
FFFF000000
FFFFC00000
FFFFE00000
FFFFF80000
1FFFFC0000
00FFFE0000
001FFF0000
0007FF8000
0001FFC000
00007FE000
00003FF000
00001FF800
00000FFC00
000007FC00
000003FE00
000001FE00
000000FF00
000000FF00
0000007F80
0000007F80
0000003FC0
0000003FC0
0000001FC0
0000001FE0
0000000FE0
0000000FE0
0000000FE0
0000000FE0
0000000FF0
0000000FF0
00000007F0
00000007F0
00000007F0
00000007F0
00000007F0
00000007F0
00000007F0
00000007F0
00000007F0
00000007F0
00000007F0
00000007F0
00000007F0
00000007F0
00000007F0
00000007F0
00000007F0
00000007F0
00000007F0
00000007F0
00000007F0
00000007F0
00000007F0
00000007F0
00000007F0
00000007F0
00000007F0
00000007F0
00000007F0
00000007F0
00000007F0
00000007F0
00000007F0
00000007F0
00000007F0
00000007F0
00000007F0
00000007F0
00000007F0
00000007F0
00000007F0
00000007F0
00000007F0
00000007F0
00000007F0
00000007F0
00000007F0
00000007F0
00000007F0
00000007F0
00000007F0
00000007F0
00000007F0
00000007F0
00000007F0
00000007F0
00000007F0
00000007F0
00000007F0
00000007F0
00000007F0
00000007F0
00000007F0
00000007F0
00000007F0
00000007F0
00000007F0
00000007F0
00000007F0
00000007F0
00000007F0
00000007F0
00000007F0
00000007F0
00000007F0
00000007F0
00000007F0
00000007F0
00000007F0
00000007F0
00000007F0
00000007F0
00000007F0
00000007F0
00000007F0
00000007F0
00000007F0
00000007F0
00000007F0
00000007F0
00000007F0
00000007F0
00000007F0
00000007F0
00000007F0
00000007F0
00000007F0
00000007F0
00000007F0
00000007F0
00000007F0
00000007F0
00000007F0
00000007F0
00000007F0
00000007F0
00000007F0
0000000FF0
0000000FE0
0000000FE0
0000000FE0
0000000FE0
0000001FE0
0000001FC0
0000001FC0
0000003FC0
0000003F80
0000007F80
000000FF80
000000FF00
000001FF00
000003FE00
000007FC00
00000FFC00
00001FF800
00003FF000
00007FE000
0000FFE000
0003FFC000
000FFF8000
007FFF0000
07FFFC0000
FFFFF80000
FFFFF00000
FFFFC00000
FFFF000000
FFFC000000
FFE0000000
FC00000000
ENDCHAR
STARTCHAR 002A
ENCODING 42
SWIDTH 315 0
DWIDTH 70 0
BBX 57 57 5 83
BITMAP
01FE000000FF8000
01FE000000FF0000
00FF000001FE0000
00FF000001FE0000
007F800003FC0000
003FC00007FC0000
003FC00007F80000
001FE0000FF00000
001FE0000FF00000
000FF0001FE00000
000FF8001FE00000
0007F8003FC00000
0003FC007FC00000
0003FC007F800000
0001FE00FF000000
0001FF00FF000000
0000FF01FE000000
00007F83FE000000
00007F83FC000000
00003FC7F8000000
00003FC7F8000000
00001FEFF0000000
00000FFFF0000000
00000FFFE0000000
000007FFE0000000
FFFFFFFFFFFFFF80
FFFFFFFFFFFFFF80
FFFFFFFFFFFFFF80
FFFFFFFFFFFFFF80
FFFFFFFFFFFFFF80
FFFFFFFFFFFFFF80
FFFFFFFFFFFFFF80
00000FFFE0000000
00000FFFE0000000
00001FEFF0000000
00001FEFF0000000
00003FC7F8000000
00007F87F8000000
00007F83FC000000
0000FF01FE000000
0000FF01FE000000
0001FE00FF000000
0001FE00FF000000
0003FC007F800000
0007FC007FC00000
0007F8003FC00000
000FF0001FE00000
000FF0001FE00000
001FE0000FF00000
001FE0000FF00000
003FC00007F80000
007FC00003FC0000
007F800003FC0000
00FF000001FE0000
00FF000001FE0000
01FE000000FF0000
01FE000000FF8000
ENDCHAR
STARTCHAR 002B
ENCODING 43
SWIDTH 472 0
DWIDTH 105 0
BBX 93 93 5 26
BITMAP
00000007C000001F00000000
00000007F80000FF00000000
00000007FE0003FF00000000
00000007FF800FFF00000000
00000007FFC01FFF00000000
00000007FFE03FFF00000000
00000007FFF07FFF00000000
000000007FF8FFF000000000
000000001FF9FFC000000000
0000000007FDFF0000000000
0000000003FFFE0000000000
0000000001FFFC0000000000
0000000000FFF80000000000
00000000007FF00000000000
00000000007FF00000000000
00000000003FE00000000000
00000000003FE00000000000
00000000003FE00000000000
00000000001FC00000000000
00000000001FC00000000000
00000000001FC00000000000
00000000001FC00000000000
00000000001FC00000000000
00000000001FC00000000000
00000000001FC00000000000
00000000001FC00000000000
00000000001FC00000000000
00000000001FC00000000000
00000000001FC00000000000
FE000000001FC000000003F8
FE000000001FC000000003F8
FE000000001FC000000003F8
FE000000001FC000000003F8
FF000000001FC000000007F8
7F000000001FC000000007F0
7F800000001FC00000000FF0
7F800000001FC00000000FF0
3FC00000001FC00000001FE0
3FE00000001FC00000003FE0
1FF00000001FC00000007FC0
1FF80000001FC0000000FFC0
0FFE0000001FC0000003FF80
07FFC000001FC000000FFF00
03FFFFFFFFFFFFFFFFFFFE00
01FFFFFFFFFFFFFFFFFFFC00
007FFFFFFFFFFFFFFFFFF000
003FFFFFFFFFFFFFFFFFE000
007FFFFFFFFFFFFFFFFFF000
01FFFFFFFFFFFFFFFFFFFC00
03FFFFFFFFFFFFFFFFFFFE00
07FFC000001FC000001FFF00
0FFE0000001FC0000003FF80
1FF80000001FC0000000FFC0
1FF00000001FC00000007FC0
3FE00000001FC00000003FE0
3FC00000001FC00000001FE0
7F800000001FC00000000FF0
7F800000001FC00000000FF0
7F000000001FC000000007F0
FF000000001FC000000007F8
FE000000001FC000000003F8
FE000000001FC000000003F8
FE000000001FC000000003F8
FE000000001FC000000003F8
00000000001FC00000000000
00000000001FC00000000000
00000000001FC00000000000
00000000001FC00000000000
00000000001FC00000000000
00000000001FC00000000000
00000000001FC00000000000
00000000001FC00000000000
00000000001FC00000000000
00000000001FC00000000000
00000000001FC00000000000
00000000003FC00000000000
00000000003FE00000000000
00000000003FE00000000000
00000000007FF00000000000
00000000007FF00000000000
0000000000FFF80000000000
0000000001FFFC0000000000
0000000003FFFE0000000000
0000000007FFFF0000000000
000000001FFDFFC000000000
000000007FF8FFF000000000
00000007FFF8FFFF00000000
00000007FFF07FFF00000000
00000007FFC01FFF00000000
00000007FF800FFF00000000
00000007FF0007FF00000000
00000007F80000FF00000000
00000007C000001F00000000
ENDCHAR
STARTCHAR 002C
ENCODING 44
SWIDTH 126 0
DWIDTH 28 0
BBX 16 32 5 -18
BITMAP
0FC0
3FF0
7FF8
7FF8
FFFC
FFFC
FFFE
FFFE
FFFE
FFFE
7FFF
3FFF
1FFF
0FFF
00FF
00FF
00FE
00FE
00FE
01FE
01FE
03FC
07FC
0FF8
1FF8
7FF0
7FE0
7FC0
3F80
3F00
1C00
1000
ENDCHAR
STARTCHAR 002D
ENCODING 45
SWIDTH 472 0
DWIDTH 105 0
BBX 93 36 5 54
BITMAP
FE00000000000000000003F8
FE00000000000000000003F8
FE00000000000000000003F8
FE00000000000000000003F8
FF00000000000000000007F8
7F00000000000000000007F0
7F8000000000000000000FF0
7F8000000000000000000FF0
3FC000000000000000001FE0
3FE000000000000000003FE0
1FF000000000000000007FC0
1FF80000000000000000FFC0
0FFE0000000000000003FF80
07FFC00000000000000FFF00
03FFFFFFFFFFFFFFFFFFFF00
01FFFFFFFFFFFFFFFFFFFE00
00FFFFFFFFFFFFFFFFFFF800
007FFFFFFFFFFFFFFFFFF000
007FFFFFFFFFFFFFFFFFF000
00FFFFFFFFFFFFFFFFFFF800
01FFFFFFFFFFFFFFFFFFFE00
07FFC00000000000001FFF00
07FE0000000000000003FF00
0FFC0000000000000000FF80
1FF000000000000000007FC0
1FE000000000000000003FC0
3FC000000000000000001FE0
3FC000000000000000001FE0
7F8000000000000000000FF0
7F00000000000000000007F0
7F00000000000000000007F0
FF00000000000000000007F8
FE00000000000000000003F8
FE00000000000000000003F8
FE00000000000000000003F8
FE00000000000000000003F8
ENDCHAR
STARTCHAR 002E
ENCODING 46
SWIDTH 108 0
DWIDTH 24 0
BBX 12 13 5 0
BITMAP
3FC0
7FE0
FFE0
FFF0
FFF0
FFF0
FFF0
FFF0
FFF0
FFF0
7FE0
7FE0
3FC0
ENDCHAR
STARTCHAR 002F
ENCODING 47
SWIDTH 468 0
DWIDTH 104 0
BBX 92 144 5 0
BITMAP
000000000000000000001FF0
000000000000000000001FE0
000000000000000000003FE0
000000000000000000007FC0
000000000000000000007FC0
00000000000000000000FF80
00000000000000000000FF00
00000000000000000001FF00
00000000000000000001FE00
00000000000000000003FE00
00000000000000000007FC00
00000000000000000007F800
0000000000000000000FF800
0000000000000000000FF000
0000000000000000001FF000
0000000000000000003FE000
0000000000000000003FE000
0000000000000000007FC000
0000000000000000007F8000
000000000000000000FF8000
000000000000000000FF0000
000000000000000001FF0000
000000000000000003FE0000
000000000000000003FC0000
000000000000000007FC0000
000000000000000007F80000
00000000000000000FF80000
00000000000000001FF00000
00000000000000001FE00000
00000000000000003FE00000
00000000000000003FC00000
00000000000000007FC00000
00000000000000007F800000
0000000000000000FF800000
0000000000000001FF000000
0000000000000001FE000000
0000000000000003FE000000
0000000000000003FC000000
0000000000000007FC000000
0000000000000007F8000000
000000000000000FF0000000
000000000000001FF0000000
000000000000001FE0000000
000000000000003FE0000000
000000000000003FC0000000
000000000000007FC0000000
00000000000000FF80000000
00000000000000FF00000000
00000000000001FF00000000
00000000000001FE00000000
00000000000003FE00000000
00000000000003FC00000000
00000000000007F800000000
0000000000000FF800000000
0000000000000FF000000000
0000000000001FF000000000
0000000000001FE000000000
0000000000003FC000000000
0000000000003FC000000000
0000000000007F8000000000
000000000000FF8000000000
000000000000FF0000000000
000000000001FF0000000000
000000000001FE0000000000
000000000003FC0000000000
000000000007FC0000000000
000000000007F80000000000
00000000000FF80000000000
00000000000FF00000000000
00000000001FE00000000000
00000000001FE00000000000
00000000003FC00000000000
00000000007FC00000000000
00000000007F800000000000
0000000000FF800000000000
0000000000FF000000000000
0000000001FE000000000000
0000000001FE000000000000
0000000003FC000000000000
0000000007FC000000000000
0000000007F8000000000000
000000000FF0000000000000
000000000FF0000000000000
000000001FE0000000000000
000000003FE0000000000000
000000003FC0000000000000
000000007F80000000000000
000000007F80000000000000
00000000FF00000000000000
00000000FF00000000000000
00000001FE00000000000000
00000003FE00000000000000
00000003FC00000000000000
00000007F800000000000000
00000007F800000000000000
0000000FF000000000000000
0000000FF000000000000000
0000001FE000000000000000
0000003FC000000000000000
0000003FC000000000000000
0000007F8000000000000000
0000007F8000000000000000
000000FF0000000000000000
000001FF0000000000000000
000001FE0000000000000000
000003FC0000000000000000
000003FC0000000000000000
000007F80000000000000000
000007F80000000000000000
00000FF00000000000000000
00001FE00000000000000000
00001FE00000000000000000
00003FC00000000000000000
00003FC00000000000000000
00007F800000000000000000
00007F000000000000000000
0000FF000000000000000000
0001FE000000000000000000
0001FE000000000000000000
0003FC000000000000000000
0003FC000000000000000000
0007F8000000000000000000
000FF0000000000000000000
000FF0000000000000000000
001FE0000000000000000000
001FE0000000000000000000
003FC0000000000000000000
003F80000000000000000000
007F80000000000000000000
00FF00000000000000000000
00FF00000000000000000000
01FE00000000000000000000
01FE00000000000000000000
03FC00000000000000000000
03F800000000000000000000
07F800000000000000000000
0FF000000000000000000000
0FF000000000000000000000
1FE000000000000000000000
1FC000000000000000000000
3FC000000000000000000000
7F8000000000000000000000
7F8000000000000000000000
FE0000000000000000000000
ENDCHAR
STARTCHAR 0030
ENCODING 48
SWIDTH 391 0
DWIDTH 87 0
BBX 75 144 5 0
BITMAP
00000003FFF800000000
0000003FFFFFC0000000
000001FFFFFFF8000000
00000FFFFFFFFE000000
00003FFFFFFFFF800000
00007FFFFFFFFFE00000
0001FFFFFFFFFFF00000
0003FFFC0007FFF80000
000FFFC000007FFE0000
001FFF0000001FFF0000
003FFC00000007FF8000
007FF000000001FFC000
00FFE000000000FFE000
00FFC0000000007FE000
01FF00000000001FF000
03FE00000000000FF800
07FC000000000007F800
07FC000000000007FC00
0FF8000000000003FE00
0FF0000000000001FE00
1FE0000000000000FF00
1FE0000000000000FF00
3FC00000000000007F80
3FC00000000000007F80
3F800000000000003F80
7F800000000000003FC0
7F000000000000003FC0
7F000000000000001FC0
7F000000000000001FC0
7F000000000000001FC0
FE000000000000000FE0
FE000000000000000FE0
FE000000000000000FE0
FE000000000000000FE0
FE000000000000000FE0
FE000000000000000FE0
FE000000000000000FE0
FE000000000000000FE0
FE000000000000000FE0
FE000000000000000FE0
FE000000000000000FE0
FE000000000000000FE0
FE000000000000000FE0
FE000000000000001FE0
FE000000000000001FE0
FE000000000000001FE0
FE000000000000001FE0
FE000000000000003FE0
FE000000000000003FE0
FE000000000000003FE0
FE000000000000007FE0
FE000000000000007FE0
FE00000000000000FFE0
FE00000000000000FFE0
FE00000000000001FFE0
FE00000000000003FFE0
FE00000000000007FFE0
FE0000000000000FFFE0
FE0000000000000FFFE0
FE0000000000001FFFE0
FE0000000000007FEFE0
FE000000000000FFEFE0
FE000000000001FFCFE0
FE000000000007FF8FE0
FE00000000001FFF0FE0
FE00000000007FFE0FE0
FE0000000007FFFC0FE0
FE000007FFFFFFF00FE0
FE00007FFFFFFFE00FE0
FE0003FFFFFFFF800FE0
FE000FFFFFFFFE000FE0
FE003FFFFFFFF8000FE0
FE00FFFFFFFFC0000FE0
FE01FFFFFFFC00000FE0
FE07FFFC000000000FE0
FE0FFFC0000000000FE0
FE1FFF00000000000FE0
FE3FFC00000000000FE0
FE7FF000000000000FE0
FEFFE000000000000FE0
FFFF8000000000000FE0
FFFF0000000000000FE0
FFFE0000000000000FE0
FFFC0000000000000FE0
FFF80000000000000FE0
FFF80000000000000FE0
FFF00000000000000FE0
FFE00000000000000FE0
FFE00000000000000FE0
FFC00000000000000FE0
FFC00000000000000FE0
FF800000000000000FE0
FF800000000000000FE0
FF000000000000000FE0
FF000000000000000FE0
FF000000000000000FE0
FF000000000000000FE0
FE000000000000000FE0
FE000000000000000FE0
FE000000000000000FE0
FE000000000000000FE0
FE000000000000000FE0
FE000000000000000FE0
FE000000000000000FE0
FE000000000000000FE0
FE000000000000000FE0
FE000000000000000FE0
FE000000000000000FE0
FE000000000000000FE0
FE000000000000000FE0
FE000000000000000FE0
FE000000000000000FE0
FE000000000000000FE0
FE000000000000000FE0
7F000000000000001FC0
7F000000000000001FC0
7F000000000000001FC0
7F000000000000003FC0
7F800000000000003FC0
3F800000000000003F80
3FC00000000000007F80
3FC00000000000007F80
1FE0000000000000FF00
1FE0000000000000FF00
0FF0000000000001FE00
0FF8000000000003FE00
07FC000000000007FC00
03FC000000000007FC00
03FE00000000000FF800
01FF00000000001FF000
00FFC0000000007FE000
007FE000000000FFE000
007FF000000001FFC000
003FFC00000007FF8000
001FFF0000001FFF0000
0007FFC000007FFE0000
0003FFFC0007FFF80000
0001FFFFFFFFFFF00000
0000FFFFFFFFFFE00000
00003FFFFFFFFF800000
00000FFFFFFFFE000000
000003FFFFFFF8000000
0000007FFFFFC0000000
00000003FFF800000000
ENDCHAR
STARTCHAR 0031
ENCODING 49
SWIDTH 121 0
DWIDTH 27 0
BBX 15 143 5 1
BITMAP
0020
0060
0060
00E0
01E0
01E0
03E0
07E0
07E0
0FE0
0FE0
0FE0
0FE0
0FE0
0FE0
0FE0
0FE0
0FE0
0FE0
0FE0
0FE0
0FE0
0FE0
0FE0
0FE0
0FE0
0FE0
0FE0
0FE0
0FE0
0FE0
0FE0
0FE0
0FE0
0FE0
0FE0
0FE0
0FE0
0FE0
0FE0
0FE0
0FE0
0FE0
0FE0
0FE0
0FE0
0FE0
0FE0
0FE0
0FE0
0FE0
0FE0
0FE0
0FE0
0FE0
0FE0
0FE0
0FE0
0FE0
0FE0
0FE0
0FE0
0FE0
0FE0
0FE0
0FE0
0FE0
0FE0
0FE0
0FE0
0FE0
0FE0
0FE0
0FE0
0FE0
0FE0
0FE0
0FE0
0FE0
0FE0
0FE0
0FE0
0FE0
0FE0
0FE0
0FE0
0FE0
0FE0
0FE0
0FE0
0FE0
0FE0
0FE0
0FE0
0FE0
0FE0
0FE0
0FE0
0FE0
0FE0
0FE0
0FE0
0FE0
0FE0
0FE0
0FE0
0FE0
0FE0
0FE0
0FE0
0FE0
0FE0
0FE0
0FE0
0FE0
0FE0
0FE0
0FE0
0FE0
0FE0
0FE0
0FE0
0FE0
0FE0
0FE0
0FE0
0FE0
0FE0
0FE0
0FE0
0FE0
0FE0
0FE0
0FE0
0FE0
0FE0
FFFE
FFFE
FFFE
FFFE
FFFE
FFFE
FFFE
ENDCHAR
STARTCHAR 0032
ENCODING 50
SWIDTH 391 0
DWIDTH 87 0
BBX 75 144 5 0
BITMAP
00000003FFF800000000
0000007FFFFFC0000000
000003FFFFFFF8000000
00000FFFFFFFFE000000
00003FFFFFFFFF800000
0000FFFFFFFFFFE00000
0001FFFFFFFFFFF00000
0003FFFC0007FFFC0000
000FFFC000007FFE0000
001FFF0000001FFF0000
003FFC00000007FF8000
007FF000000001FFC000
007FE000000000FFE000
00FFC0000000003FE000
01FF80000000001FF000
03FF00000000000FF800
03FE000000000007FC00
07FC000000000003FC00
0FF8000000000003FE00
0FF0000000000001FE00
1FF0000000000000FF00
1FE0000000000000FF00
1FC00000000000007F80
3FC00000000000007F80
3F800000000000003F80
3F800000000000003FC0
7F800000000000003FC0
7F000000000000001FC0
7F000000000000001FC0
7F000000000000001FC0
FF000000000000001FE0
FE000000000000000FE0
FE000000000000000FE0
FE000000000000000FE0
FE000000000000000FE0
FE000000000000000FE0
FE000000000000000FE0
00000000000000000FE0
00000000000000000FE0
00000000000000000FE0
00000000000000000FE0
00000000000000000FE0
00000000000000000FE0
00000000000000000FE0
00000000000000000FE0
00000000000000000FE0
00000000000000000FE0
00000000000000000FE0
00000000000000000FE0
00000000000000000FE0
00000000000000000FE0
00000000000000000FE0
00000000000000000FE0
00000000000000001FC0
00000000000000001FC0
00000000000000001FC0
00000000000000003FC0
00000000000000003FC0
00000000000000003F80
00000000000000007F80
00000000000000007F80
0000000000000000FF00
0000000000000000FF00
0000000000000001FE00
0000000000000003FE00
0000000000000003FC00
0000000000000007FC00
000000000000000FF800
000000000000001FF000
000000000000003FE000
00000000000000FFE000
00000000000001FFC000
00000000000007FF8000
0000000000001FFF0000
0000000000007FFE0000
000000000007FFF80000
00000007FFFFFFF00000
0000007FFFFFFFE00000
000003FFFFFFFF800000
00001FFFFFFFFE000000
00003FFFFFFFF8000000
0000FFFFFFFFC0000000
0001FFFFFFFC00000000
0007FFFC000000000000
000FFFC0000000000000
001FFF00000000000000
003FFC00000000000000
007FF000000000000000
00FFE000000000000000
01FF8000000000000000
01FF0000000000000000
03FE0000000000000000
07FC0000000000000000
07FC0000000000000000
0FF80000000000000000
0FF00000000000000000
1FE00000000000000000
1FE00000000000000000
3FC00000000000000000
3FC00000000000000000
3F800000000000000000
7F800000000000000000
7F800000000000000000
7F000000000000000000
7F000000000000000000
FF000000000000000000
FF000000000000000000
FE000000000000000000
FE000000000000000000
FE000000000000000000
FE000000000000000000
FE000000000000000000
FE000000000000000000
FE000000000000000000
FE000000000000000000
FE000000000000000000
FE000000000000000000
FE000000000000000000
FE000000000000000000
FE000000000000000000
FE000000000000000000
FE000000000000000000
FE000000000000000000
FE000000000000000000
FE000000000000000000
FE000000000000000000
FE000000000000000000
FE000000000000000000
FE000000000000000000
FE000000000000000000
FE000000000000000000
FE000000000000000000
FE000000000000000000
FE000000000000000000
FE000000000000000000
FE000000000000000000
FE000000000000000000
FFFFFFFFFFFFFFFFFFE0
FFFFFFFFFFFFFFFFFFE0
FFFFFFFFFFFFFFFFFFE0
FFFFFFFFFFFFFFFFFFE0
FFFFFFFFFFFFFFFFFFE0
FFFFFFFFFFFFFFFFFFE0
FFFFFFFFFFFFFFFFFFE0
ENDCHAR
STARTCHAR 0033
ENCODING 51
SWIDTH 391 0
DWIDTH 87 0
BBX 75 144 5 0
BITMAP
FFFFFFFFFFF800000000
FFFFFFFFFFFFC0000000
FFFFFFFFFFFFF8000000
FFFFFFFFFFFFFE000000
FFFFFFFFFFFFFF800000
FFFFFFFFFFFFFFC00000
FFFFFFFFFFFFFFF00000
000000000007FFF80000
0000000000007FFC0000
0000000000001FFE0000
00000000000007FF8000
00000000000001FF8000
00000000000000FFC000
000000000000003FE000
000000000000001FF000
000000000000000FF800
0000000000000007F800
0000000000000003FC00
0000000000000003FE00
0000000000000001FE00
0000000000000000FF00
0000000000000000FF00
00000000000000007F00
00000000000000007F80
00000000000000003F80
00000000000000003FC0
00000000000000003FC0
00000000000000001FC0
00000000000000001FC0
00000000000000001FC0
00000000000000000FE0
00000000000000000FE0
00000000000000000FE0
00000000000000000FE0
00000000000000000FE0
00000000000000000FE0
00000000000000000FE0
00000000000000000FE0
00000000000000000FE0
00000000000000000FE0
00000000000000000FE0
00000000000000000FE0
00000000000000001FC0
00000000000000001FC0
00000000000000001FC0
00000000000000003FC0
00000000000000003FC0
00000000000000003F80
00000000000000007F80
00000000000000007F00
0000000000000000FF00
0000000000000000FF00
0000000000000001FE00
0000000000000003FE00
0000000000000007FC00
0000000000000007F800
000000000000000FF800
000000000000001FF000
000000000000003FE000
00000000000000FFC000
00000000000001FFC000
00000000000007FF8000
0000000000001FFF0000
0000000000007FFE0000
000000000007FFF80000
0000007FFFFFFFF00000
0000007FFFFFFFC00000
0000007FFFFFFF800000
0000007FFFFFFE000000
0000007FFFFFFF800000
0000007FFFFFFFE00000
0000007FFFFFFFF00000
000000000007FFFC0000
0000000000007FFE0000
0000000000001FFF0000
00000000000007FF8000
00000000000001FFC000
00000000000000FFE000
000000000000007FE000
000000000000001FF000
000000000000000FF800
0000000000000007FC00
0000000000000007FC00
0000000000000003FE00
0000000000000001FE00
0000000000000000FF00
0000000000000000FF00
00000000000000007F80
00000000000000007F80
00000000000000003F80
00000000000000003FC0
00000000000000003FC0
00000000000000001FC0
00000000000000001FC0
00000000000000001FC0
00000000000000000FE0
00000000000000000FE0
00000000000000000FE0
00000000000000000FE0
00000000000000000FE0
00000000000000000FE0
00000000000000000FE0
00000000000000000FE0
00000000000000000FE0
00000000000000000FE0
00000000000000000FE0
00000000000000000FE0
00000000000000000FE0
FE000000000000000FE0
FE000000000000000FE0
FE000000000000000FE0
FE000000000000000FE0
FE000000000000000FE0
FF000000000000000FE0
FF000000000000001FC0
7F000000000000001FC0
7F000000000000001FC0
7F800000000000003FC0
7F800000000000003FC0
3F800000000000003F80
3FC00000000000007F80
3FC00000000000007F80
1FE0000000000000FF00
1FE0000000000000FF00
0FF0000000000001FE00
0FF8000000000003FE00
07FC000000000007FC00
07FE000000000007FC00
03FF00000000000FF800
01FF80000000001FF000
00FFC0000000007FE000
00FFE000000000FFE000
007FF000000001FFC000
003FFC00000007FF8000
001FFF0000001FFF0000
000FFFC000007FFE0000
0003FFFC0007FFF80000
0001FFFFFFFFFFF00000
0000FFFFFFFFFFE00000
00003FFFFFFFFF800000
00000FFFFFFFFE000000
000003FFFFFFF8000000
0000007FFFFFC0000000
00000003FFF800000000
ENDCHAR
STARTCHAR 0034
ENCODING 52
SWIDTH 499 0
DWIDTH 111 0
BBX 98 144 5 1
BITMAP
0000000001FC00000000000000
0000000001F800000000000000
0000000001F800000000000000
0000000003F800000000000000
0000000003F000000000000000
0000000007F000000000000000
0000000007F000000000000000
0000000007E000000000000000
000000000FE000000000000000
000000000FC000000000000000
000000000FC000000000000000
000000001FC000000000000000
000000001F8000000000000000
000000003F8000000000000000
000000003F8000000000000000
000000003F0000000000000000
000000007F0000000000000000
000000007F0000000000000000
000000007E0000000000000000
00000000FE0000000000000000
00000000FC0000000000000000
00000001FC0000000000000000
00000001FC0000000000000000
00000001F80000000000000000
00000003F80000000000000000
00000003F80000000000000000
00000003F00000000000000000
00000007F00000000000000000
00000007F00000000000000000
0000000FE00000000000000000
0000000FE00000000000000000
0000000FC00000000000000000
0000001FC00000000000000000
0000001FC00000000000000000
0000001F800000000000000000
0000003F800000000000000000
0000003F800000000000000000
0000007F000000000000000000
0000007F000000000000000000
0000007F000000000000000000
000000FE000000000000000000
000000FE000000000000000000
000000FE000000000000000000
000001FC000000000000000000
000001FC000000000000000000
000003F8000000000000000000
000003F8000000000000000000
000003F8000000000000000000
000007F0000000000000000000
000007F0000000000000000000
000007F0000000000000000000
00000FE0000000000000000000
00000FE0000000000000000000
00001FE0000000000000000000
00001FC0000000000000000000
00001FC0000000000000000000
00003F80000000000000000000
00003F80000000000000000000
00003F80000000000000000000
00007F00000000000000000000
00007F00000000000000000000
0000FF00000000000000000000
0000FE00000000000000000000
0000FE00000000000000000000
0001FE00000000000000000000
0001FC00000003F80000000000
0001FC00000003F80000000000
0003F800000003F80000000000
0003F800000003F80000000000
0007F800000003F80000000000
0007F000000003F80000000000
0007F000000003F80000000000
000FF000000003F80000000000
000FE000000003F80000000000
000FE000000003F80000000000
001FE000000003F80000000000
001FC000000003F80000000000
003FC000000003F80000000000
003F8000000003F80000000000
003F8000000003F80000000000
007F8000000003F80000000000
007F0000000003F80000000000
007F0000000003F80000000000
00FF0000000003F80000000000
00FE0000000003F80000000000
01FE0000000003F80000000000
01FE007FFC0003F80000000000
01FC07FFFFC003F80000000000
03FC3FFFFFF803F80000000000
03F8FFFFFFFE03F80000000000
03FBFFFFFFFF03F80000000C00
07FFFFFFFFFFC3F80000001F00
07FFFFFFFFFFE3F80000003F80
0FFFFF8007FFF3F80000007FC0
0FFFF80000FFFBF8000000FFC0
0FFFE000001FFFF8000001FF80
1FFF8000000FFFF8000003FF00
1FFE00000003FFF800000FFE00
1FFC00000001FFF800003FFC00
3FF800000000FFF80000FFF800
3FE0000000007FFF800FFFF000
7FC0000000001FFFFFFFFFE000
7F800000000007FFFFFFFF8000
7F800000000003FFFFFFFF0000
FF000000000003FFFFFFFC0000
FF000000000003FFFFFFF00000
1E000000000003FFFFFF800000
06000000000003F87FF8000000
00000000000003F80000000000
00000000000003F80000000000
00000000000003F80000000000
00000000000003F80000000000
00000000000003F80000000000
00000000000003F80000000000
00000000000003F80000000000
00000000000003F80000000000
00000000000003F80000000000
00000000000003F80000000000
00000000000003F80000000000
00000000000003F80000000000
00000000000003F80000000000
00000000000003F80000000000
00000000000003F80000000000
00000000000003F80000000000
00000000000003F80000000000
00000000000003F80000000000
00000000000003F80000000000
00000000000003F80000000000
00000000000003F80000000000
00000000000003F80000000000
00000000000003F80000000000
00000000000003F80000000000
00000000000003F80000000000
00000000000003F80000000000
00000000000003F80000000000
00000000000003F80000000000
00000000000003F80000000000
00000000000003F80000000000
00000000000003F80000000000
00000000000003F80000000000
00000000000003F80000000000
00000000000003F80000000000
00000000000003F80000000000
00000000000003F80000000000
ENDCHAR
STARTCHAR 0035
ENCODING 53
SWIDTH 391 0
DWIDTH 87 0
BBX 75 144 5 0
BITMAP
FFFFFFFFFFFFFFFFFFE0
FFFFFFFFFFFFFFFFFFE0
FFFFFFFFFFFFFFFFFFE0
FFFFFFFFFFFFFFFFFFE0
FFFFFFFFFFFFFFFFFFE0
FFFFFFFFFFFFFFFFFFE0
FFFFFFFFFFFFFFFFFFE0
FE000000000000000000
FE000000000000000000
FE000000000000000000
FE000000000000000000
FE000000000000000000
FE000000000000000000
FE000000000000000000
FE000000000000000000
FE000000000000000000
FE000000000000000000
FE000000000000000000
FE000000000000000000
FE000000000000000000
FE000000000000000000
FE000000000000000000
FE000000000000000000
FE000000000000000000
FE000000000000000000
FE000000000000000000
FE000000000000000000
FE000000000000000000
FE000000000000000000
FE000000000000000000
FE000000000000000000
FE000000000000000000
FE000000000000000000
FE000000000000000000
FE000000000000000000
FE000000000000000000
FE000000000000000000
FE000000000000000000
FE000000000000000000
FE000000000000000000
FE000000000000000000
FE000000000000000000
FE000000000000000000
FE000000000000000000
FE000000000000000000
FE000000000000000000
FE000000000000000000
FE000000000000000000
FE000000000000000000
FE000000000000000000
FE000000000000000000
FFFFFFFFFFF800000000
FFFFFFFFFFFFC0000000
FFFFFFFFFFFFF8000000
FFFFFFFFFFFFFE000000
FFFFFFFFFFFFFF800000
FFFFFFFFFFFFFFC00000
FFFFFFFFFFFFFFF00000
000000000007FFF80000
0000000000007FFC0000
0000000000001FFE0000
00000000000007FF8000
00000000000001FF8000
00000000000000FFC000
000000000000003FE000
000000000000001FF000
000000000000000FF800
0000000000000007F800
0000000000000003FC00
0000000000000003FE00
0000000000000001FE00
0000000000000000FF00
0000000000000000FF00
00000000000000007F80
00000000000000007F80
00000000000000003F80
00000000000000003FC0
00000000000000001FC0
00000000000000001FC0
00000000000000001FC0
00000000000000001FC0
00000000000000000FE0
00000000000000000FE0
00000000000000000FE0
00000000000000000FE0
00000000000000000FE0
00000000000000000FE0
00000000000000000FE0
00000000000000000FE0
00000000000000000FE0
00000000000000000FE0
00000000000000000FE0
00000000000000000FE0
00000000000000000FE0
00000000000000000FE0
00000000000000000FE0
00000000000000000FE0
00000000000000000FE0
00000000000000000FE0
00000000000000000FE0
00000000000000000FE0
00000000000000000FE0
00000000000000000FE0
00000000000000000FE0
00000000000000000FE0
00000000000000000FE0
00000000000000000FE0
00000000000000000FE0
FE000000000000000FE0
FE000000000000000FE0
FE000000000000000FE0
FE000000000000000FE0
FE000000000000000FE0
FE000000000000000FE0
FF000000000000001FE0
7F000000000000001FC0
7F000000000000001FC0
7F000000000000001FC0
7F800000000000003FC0
3F800000000000003F80
3FC00000000000007F80
3FC00000000000007F80
1FE0000000000000FF00
1FE0000000000000FF00
0FF0000000000001FE00
0FF8000000000003FE00
07FC000000000007FC00
07FC000000000007FC00
03FE00000000000FF800
01FF00000000001FF000
00FFC0000000007FE000
00FFE000000000FFE000
007FF000000001FFC000
003FFC00000007FF8000
001FFF0000001FFF0000
000FFFC000007FFE0000
0003FFFC0007FFF80000
0001FFFFFFFFFFF00000
0000FFFFFFFFFFE00000
00003FFFFFFFFF800000
00000FFFFFFFFE000000
000003FFFFFFF8000000
0000007FFFFFC0000000
00000003FFF800000000
ENDCHAR
STARTCHAR 0036
ENCODING 54
SWIDTH 427 0
DWIDTH 95 0
BBX 82 144 5 0
BITMAP
00000003FFFFF000000000
0000007FFFFFFF80000000
000003FFFFFFFFF0000000
00000FFFFFFFFFFC000000
00003FFFFFFFFFFF000000
0000FFFFFFFFFFFFC00000
0001FFFFFFFFFFFFE00000
0007FFFC00000FFFF00000
000FFFC0000000FFFC0000
001FFF000000003FFE0000
003FFC000000000FFF0000
007FF00000000003FF8000
00FFE00000000001FFC000
00FFC00000000000FFC000
01FF0000000000007FE000
03FE0000000000003FF000
07FC0000000000001FF000
07FC0000000000000FF800
0FF800000000000007FC00
0FF000000000000003FC00
1FE000000000000003FE00
1FE000000000000001FE00
3FC000000000000000FE00
3FC000000000000000FF00
3F80000000000000007F00
7F80000000000000007F00
7F80000000000000007F80
7F00000000000000003F80
7F00000000000000003F80
FF00000000000000003F80
FF00000000000000003FC0
FE00000000000000001FC0
FE00000000000000001FC0
FE00000000000000001FC0
FE00000000000000001FC0
FE00000000000000001FC0
FE00000000000000001FC0
FE00000000000000000000
FE00000000000000000000
FE00000000000000000000
FE00000000000000000000
FE00000000000000000000
FE00000000000000000000
FE00000000000000000000
FE00000000000000000000
FE00000000000000000000
FE00000000000000000000
FE00000000000000000000
FE00000000000000000000
FE00000000000000000000
FE00000000000000000000
FF00000000000000000000
FF00000000000000000000
FF00000000000000000000
FF80000000000000000000
FF80000000000000000000
FFC0000000000000000000
FFE0000000000000000000
FFF0000000000000000000
FFF8000000000000000000
FFFE000000000000000000
FFFFC00000000000000000
FFFFFFFFFFFFF000000000
FFFFFFFFFFFFFF80000000
FEFFFFFFFFFFFFF0000000
FE3FFFFFFFFFFFFC000000
FE1FFFFFFFFFFFFF000000
FE03FFFFFFFFFFFFC00000
FE007FFFFFFFFFFFE00000
FE00000000000FFFF80000
FE000000000000FFFC0000
FE0000000000003FFE0000
FE0000000000000FFF0000
FE00000000000003FF8000
FE00000000000001FFC000
FE000000000000007FE000
FE000000000000003FE000
FE000000000000001FF000
FE000000000000000FF800
FE0000000000000007F800
FE0000000000000003FC00
FE0000000000000003FC00
FE0000000000000001FE00
FE0000000000000000FE00
FE0000000000000000FF00
FE00000000000000007F00
FE00000000000000007F00
FE00000000000000003F80
FE00000000000000003F80
FE00000000000000003F80
FE00000000000000003F80
FE00000000000000001FC0
FE00000000000000001FC0
FE00000000000000001FC0
FE00000000000000001FC0
FE00000000000000001FC0
FE00000000000000001FC0
FE00000000000000001FC0
FE00000000000000001FC0
FE00000000000000001FC0
FE00000000000000001FC0
FE00000000000000001FC0
FE00000000000000001FC0
FE00000000000000001FC0
FE00000000000000001FC0
FE00000000000000001FC0
FE00000000000000001FC0
FE00000000000000001FC0
FE00000000000000001FC0
FE00000000000000001FC0
FE00000000000000001FC0
FE00000000000000001FC0
FE00000000000000001FC0
FE00000000000000001FC0
7F00000000000000001FC0
7F00000000000000003F80
7F00000000000000003F80
7F00000000000000003F80
7F80000000000000007F80
3F80000000000000007F00
3FC0000000000000007F00
3FC000000000000000FF00
1FE000000000000000FE00
1FE000000000000001FE00
0FF000000000000003FC00
0FF800000000000007FC00
07FC00000000000007F800
03FC0000000000000FF800
03FE0000000000001FF000
01FF0000000000003FE000
00FFC000000000007FC000
007FE00000000001FFC000
007FF00000000003FF8000
003FFC000000000FFF0000
001FFF000000003FFE0000
0007FFC0000000FFFC0000
0003FFFC00000FFFF80000
0001FFFFFFFFFFFFE00000
00007FFFFFFFFFFFC00000
00003FFFFFFFFFFF000000
00000FFFFFFFFFFC000000
000003FFFFFFFFF0000000
0000007FFFFFFF80000000
00000003FFFFF800000000
ENDCHAR
STARTCHAR 0037
ENCODING 55
SWIDTH 499 0
DWIDTH 111 0
BBX 98 144 5 0
BITMAP
000001FFE00000000000000800
00003FFFFE0000000000000E00
0000FFFFFFC000000000001FC0
0007FFFFFFF000000000001FC0
000FFFFFFFF800000000001FC0
003FFFFFFFFE00000000003F80
007FFFFFFFFF00000000007F80
01FFFF003FFF8000000000FF80
03FFF00007FFC000000001FF00
07FF800001FFE000000003FF00
0FFE0000007FF000000007FE00
1FFC0000001FF80000001FFE00
3FF00000000FFE0000003FFE00
7FE000000007FF000000FFFC00
FFC000000003FFE00007FFFC00
FF8000000001FFFC007FFFF800
3F00000000007FFFFFFFFFF800
1E00000000003FFFFFFFFFF000
0E00000000001FFFFFFFFFF000
04000000000007FFFFFFEFF000
00000000000001FFFFFF8FE000
000000000000003FFFFC0FE000
0000000000000003FF801FC000
000000000000000000001FC000
000000000000000000003FC000
000000000000000000003F8000
000000000000000000007F8000
000000000000000000007F0000
000000000000000000007F0000
00000000000000000000FF0000
00000000000000000000FE0000
00000000000000000001FE0000
00000000000000000001FC0000
00000000000000000001FC0000
00000000000000000003F80000
00000000000000000003F80000
00000000000000000007F80000
00000000000000000007F00000
0000000000000000000FF00000
0000000000000000000FE00000
0000000000000000000FE00000
0000000000000000001FE00000
0000000000000000001FC00000
0000000000000000003FC00000
0000000000000000003F800000
0000000000000000003F800000
0000000000000000007F800000
0000000000000000007F000000
000000000000000000FF000000
000000000000000000FE000000
000000000000000000FE000000
000000000000000001FE000000
000000000000000001FC000000
000000000000000003FC000000
000000000000000003F8000000
000000000000000007F8000000
000000000000000007F0000000
000000000000000007F0000000
00000000000000000FF0000000
00000000000000000FE0000000
00000000000000001FE0000000
00000000000000001FC0000000
00000000000000001FC0000000
00000000000000003FC0000000
00000000000000003F80000000
00000000000000007F80000000
00000000000000007F00000000
00000000000000007F00000000
0000000000000000FF00000000
0000000000000000FE00000000
0000000000000001FE00000000
0000000000000001FC00000000
0000000000000003FC00000000
0000000000000003F800000000
0000000000000003F800000000
0000000000000007F800000000
0000000000000007F000000000
000000000000000FF000000000
000000000000000FE000000000
000000000000000FE000000000
000000000000001FE000000000
000000000000001FC000000000
000000000000003FC000000000
000000000000003F8000000000
000000000000007F8000000000
000000000000007F8000000000
000000000000007F0000000000
00000000000000FF0000000000
00000000000000FE0000000000
00000000000001FE0000000000
00000000000001FC0000000000
00000000000001FC0000000000
00000000000003FC0000000000
00000000000003F80000000000
00000000000007F80000000000
00000000000007F00000000000
00000000000007F00000000000
0000000000000FF00000000000
0000000000000FE00000000000
0000000000001FE00000000000
0000000000001FC00000000000
0000000000003FC00000000000
0000000000003FC00000000000
0000000000003F800000000000
0000000000007F800000000000
0000000000007F000000000000
000000000000FF000000000000
000000000000FF000000000000
000000000000FE000000000000
000000000001FE000000000000
000000000001FC000000000000
000000000003FC000000000000
000000000003F8000000000000
000000000003F8000000000000
000000000007F8000000000000
000000000007F0000000000000
00000000000FF0000000000000
00000000000FE0000000000000
00000000001FE0000000000000
00000000001FE0000000000000
00000000001FC0000000000000
00000000003FC0000000000000
00000000003F80000000000000
00000000007F80000000000000
00000000007F80000000000000
00000000007F00000000000000
0000000000FF00000000000000
0000000000FE00000000000000
0000000001FE00000000000000
0000000001FC00000000000000
0000000003FC00000000000000
0000000003FC00000000000000
0000000003F800000000000000
0000000007F800000000000000
0000000007F000000000000000
000000000FF000000000000000
000000000FF000000000000000
000000000FE000000000000000
000000001FE000000000000000
000000001FC000000000000000
000000003FC000000000000000
000000003FC000000000000000
000000003F8000000000000000
000000007F8000000000000000
ENDCHAR
STARTCHAR 0038
ENCODING 56
SWIDTH 409 0
DWIDTH 91 0
BBX 79 144 5 0
BITMAP
000000007FFC00000000
00000007FFFFC0000000
0000003FFFFFF8000000
000000FFFFFFFE000000
000003FFFFFFFF800000
000007FFFFFFFFC00000
00001FFFFFFFFFF00000
00003FFFC007FFF80000
00007FFC00007FFC0000
0001FFF000001FFF0000
0003FFC0000007FF8000
0007FF00000001FF8000
0007FE00000000FFC000
000FF8000000003FE000
001FF0000000001FF000
003FE0000000000FF800
003FC00000000007F800
007FC00000000003FC00
00FF800000000003FE00
00FF000000000001FE00
01FE000000000000FF00
01FE000000000000FF00
03FC0000000000007F00
03FC0000000000007F80
03F80000000000003F80
07F80000000000003FC0
07F00000000000003FC0
07F00000000000001FC0
07F00000000000001FC0
0FF00000000000001FC0
0FE00000000000000FE0
0FE00000000000000FE0
0FE00000000000000FE0
0FE00000000000000FE0
0FE00000000000000FE0
0FE00000000000000FE0
0FE00000000000000FE0
0FE00000000000000FE0
0FE00000000000000FE0
0FE00000000000000FE0
0FE00000000000000FE0
0FE00000000000000FE0
0FF00000000000001FE0
07F00000000000001FC0
07F00000000000001FC0
07F00000000000003FC0
07F80000000000003FC0
03F80000000000003F80
03FC0000000000007F80
03FC0000000000007F80
01FE000000000000FF00
01FE000000000000FF00
01FF000000000001FF00
00FF800000000003FE00
007F800000000007FC00
007FC00000000007FC00
003FE0000000000FF800
003FF0000000001FF000
001FF8000000003FF000
000FFE00000000FFE000
0007FF00000001FFC000
0003FFC0000007FF8000
0001FFF000001FFF0000
0000FFFC00007FFE0000
00007FFFC007FFF80000
00001FFFFFFFFFF00000
00000FFFFFFFFFE00000
000003FFFFFFFF800000
00000FFFFFFFFFE00000
00003FFFFFFFFFF80000
0000FFFFFFFFFFFC0000
0001FFFFFFFFFFFF0000
0003FFFC00007FFF8000
000FFFE000000FFFC000
001FFF00000001FFF000
003FFC000000007FF800
007FF0000000001FFC00
00FFE0000000000FFC00
00FFC00000000007FE00
01FF800000000001FF00
03FF000000000000FF80
07FE0000000000007F80
07FC0000000000007FC0
0FF80000000000003FE0
0FF00000000000001FE0
1FE00000000000000FF0
1FE00000000000000FF0
3FC000000000000007F0
3FC000000000000007F8
3F8000000000000003F8
7F8000000000000003F8
7F8000000000000001FC
7F0000000000000001FC
7F0000000000000001FC
FF0000000000000001FC
FE0000000000000000FE
FE0000000000000000FE
FE0000000000000000FE
FE0000000000000000FE
FE0000000000000000FE
FE0000000000000000FE
FE0000000000000000FE
FE0000000000000000FE
FE0000000000000000FE
FE0000000000000000FE
FE0000000000000000FE
FE0000000000000000FE
FE0000000000000000FE
FE0000000000000000FE
FE0000000000000000FE
FE0000000000000000FE
FE0000000000000000FE
FE0000000000000000FE
FE0000000000000000FE
7F0000000000000001FC
7F0000000000000001FC
7F0000000000000001FC
7F0000000000000001FC
7F8000000000000003FC
3F8000000000000003F8
3FC000000000000007F8
3FC000000000000007F8
1FE00000000000000FF0
1FE00000000000000FF0
0FF00000000000001FE0
0FF80000000000003FE0
07FC0000000000007FC0
03FE0000000000007FC0
03FF000000000000FF80
01FF800000000001FF00
00FFC00000000007FE00
007FE0000000000FFE00
003FF0000000001FFC00
001FFC000000007FF800
000FFF00000001FFF000
0007FFC0000007FFE000
0003FFFC00007FFF8000
0001FFFFFFFFFFFF0000
00007FFFFFFFFFFE0000
00003FFFFFFFFFF80000
00000FFFFFFFFFE00000
000003FFFFFFFF800000
0000007FFFFFFC000000
00000003FFFF80000000
ENDCHAR
STARTCHAR 0039
ENCODING 57
SWIDTH 427 0
DWIDTH 95 0
BBX 82 144 5 0
BITMAP
00000003FFFFF000000000
0000007FFFFFFF80000000
000003FFFFFFFFF0000000
00000FFFFFFFFFFC000000
00003FFFFFFFFFFF000000
00007FFFFFFFFFFF800000
0001FFFFFFFFFFFFE00000
0003FFFC00000FFFF00000
0007FFE0000000FFF80000
001FFF000000003FFC0000
003FFC000000000FFF0000
003FF00000000003FF0000
007FE00000000001FF8000
00FFC00000000000FFC000
01FF8000000000003FE000
03FF0000000000001FF000
03FE0000000000000FF000
07FC0000000000000FF800
0FF800000000000007FC00
0FF000000000000003FC00
1FF000000000000001FE00
1FE000000000000001FE00
3FC000000000000000FF00
3FC000000000000000FF00
3F80000000000000007F00
7F80000000000000007F80
7F80000000000000007F80
7F00000000000000003F80
7F00000000000000003F80
7F00000000000000003F80
FF00000000000000001FC0
FE00000000000000001FC0
FE00000000000000001FC0
FE00000000000000001FC0
FE00000000000000001FC0
FE00000000000000001FC0
FE00000000000000001FC0
FE00000000000000001FC0
FE00000000000000001FC0
FE00000000000000001FC0
FE00000000000000001FC0
FE00000000000000001FC0
FE00000000000000001FC0
FE00000000000000001FC0
FE00000000000000001FC0
FE00000000000000001FC0
FE00000000000000001FC0
FE00000000000000001FC0
FE00000000000000001FC0
FE00000000000000001FC0
FE00000000000000001FC0
FE00000000000000001FC0
FF00000000000000001FC0
7F00000000000000001FC0
7F00000000000000001FC0
7F00000000000000001FC0
7F80000000000000001FC0
7F80000000000000001FC0
3F80000000000000001FC0
3FC0000000000000001FC0
3FC0000000000000001FC0
1FE0000000000000001FC0
1FE0000000000000001FC0
0FF0000000000000001FC0
0FF8000000000000001FC0
07FC000000000000001FC0
07FE000000000000001FC0
03FF000000000000001FC0
01FF800000000000001FC0
00FFC00000000000001FC0
00FFE00000000000001FC0
007FF00000000000001FC0
003FFC0000000000001FC0
001FFF0000000000001FC0
000FFFC000000000001FC0
0003FFFC00000000001FC0
0001FFFFFFFFFFFF801FC0
0000FFFFFFFFFFFFF81FC0
00003FFFFFFFFFFFFE1FC0
00000FFFFFFFFFFFFF9FC0
000003FFFFFFFFFFFFDFC0
0000007FFFFFFFFFFFFFC0
00000007FFFFFFFFFFFFC0
0000000000000000FFFFC0
00000000000000001FFFC0
000000000000000007FFC0
000000000000000003FFC0
000000000000000001FFC0
000000000000000000FFC0
0000000000000000007FC0
0000000000000000007FC0
0000000000000000003FC0
0000000000000000003FC0
0000000000000000003FC0
0000000000000000001FC0
0000000000000000001FC0
0000000000000000001FC0
0000000000000000001FC0
0000000000000000001FC0
0000000000000000001FC0
0000000000000000001FC0
0000000000000000001FC0
0000000000000000001FC0
0000000000000000001FC0
0000000000000000001FC0
0000000000000000001FC0
0000000000000000001FC0
0000000000000000001FC0
FE00000000000000001FC0
FE00000000000000001FC0
FE00000000000000001FC0
FE00000000000000001FC0
FE00000000000000001FC0
FE00000000000000001FC0
7F00000000000000003F80
7F00000000000000003F80
7F00000000000000003F80
7F80000000000000003F80
7F80000000000000007F80
3F80000000000000007F00
3FC000000000000000FF00
3FC000000000000000FF00
1FE000000000000001FE00
1FE000000000000001FE00
0FF000000000000003FC00
0FF800000000000007FC00
07FC0000000000000FF800
03FE0000000000000FF800
03FE0000000000001FF000
01FF0000000000003FE000
00FFC00000000000FFC000
007FE00000000001FFC000
007FF00000000003FF8000
003FFC000000000FFF0000
001FFF000000003FFE0000
0007FFC0000000FFFC0000
0003FFFC00000FFFF00000
0001FFFFFFFFFFFFE00000
00007FFFFFFFFFFFC00000
00003FFFFFFFFFFF000000
00000FFFFFFFFFFC000000
000003FFFFFFFFF0000000
0000003FFFFFFF80000000
00000003FFFFF000000000
ENDCHAR
STARTCHAR 003A
ENCODING 58
SWIDTH 108 0
DWIDTH 24 0
BBX 12 76 5 1
BITMAP
3FC0
7FE0
7FE0
FFF0
FFF0
FFF0
FFF0
FFF0
FFF0
FFF0
7FE0
7FE0
3FC0
0000
0000
0000
0000
0000
0000
0000
0000
0000
0000
0000
0000
0000
0000
0000
0000
0000
0000
0000
0000
0000
0000
0000
0000
0000
0000
0000
0000
0000
0000
0000
0000
0000
0000
0000
0000
0000
0000
0000
0000
0000
0000
0000
0000
0000
0000
0000
0000
0000
0000
3FC0
7FE0
7FE0
FFF0
FFF0
FFF0
FFF0
FFF0
FFF0
FFF0
7FE0
7FE0
3FC0
ENDCHAR
STARTCHAR 003B
ENCODING 59
SWIDTH 126 0
DWIDTH 28 0
BBX 16 95 5 -18
BITMAP
1FE0
3FF0
7FF8
7FF8
7FF8
7FF8
7FF8
7FF8
7FF8
7FF8
7FF8
3FF0
1FE0
0000
0000
0000
0000
0000
0000
0000
0000
0000
0000
0000
0000
0000
0000
0000
0000
0000
0000
0000
0000
0000
0000
0000
0000
0000
0000
0000
0000
0000
0000
0000
0000
0000
0000
0000
0000
0000
0000
0000
0000
0000
0000
0000
0000
0000
0000
0000
0000
0000
0000
1FE0
3FF0
7FF8
FFFC
FFFC
FFFC
FFFE
FFFE
FFFE
7FFE
7FFF
3FFF
1FFF
07FF
00FF
00FF
00FE
00FE
01FE
01FE
03FC
03FC
07FC
0FF8
3FF0
7FF0
7FE0
7FC0
3F80
3F00
1C00
1000
ENDCHAR
STARTCHAR 003C
ENCODING 60
SWIDTH 432 0
DWIDTH 96 0
BBX 82 63 6 40
BITMAP
0000000000000000000040
00000000000000000003C0
0000000000000000000FC0
0000000000000000007FC0
000000000000000003FFC0
00000000000000000FFFC0
00000000000000007FFFC0
0000000000000001FFFFC0
000000000000000FFFFF00
000000000000007FFFF800
00000000000001FFFFC000
0000000000000FFFFF0000
0000000000007FFFF80000
000000000001FFFFC00000
00000000000FFFFF000000
00000000007FFFF8000000
0000000001FFFFC0000000
000000000FFFFF00000000
000000007FFFF800000000
00000001FFFFE000000000
0000000FFFFF0000000000
0000007FFFF80000000000
000001FFFFE00000000000
00000FFFFF000000000000
00007FFFF8000000000000
0001FFFFE0000000000000
000FFFFF00000000000000
003FFFF800000000000000
01FFFFE000000000000000
0FFFFF0000000000000000
7FFFF80000000000000000
FFFFE00000000000000000
3FFFFC0000000000000000
07FFFF8000000000000000
00FFFFE000000000000000
003FFFFC00000000000000
0007FFFF80000000000000
0000FFFFE0000000000000
00003FFFFC000000000000
000007FFFF000000000000
000001FFFFE00000000000
0000003FFFFC0000000000
00000007FFFF0000000000
00000001FFFFE000000000
000000003FFFFC00000000
0000000007FFFF00000000
0000000001FFFFE0000000
00000000003FFFF8000000
00000000000FFFFF000000
000000000001FFFFE00000
0000000000003FFFF80000
0000000000000FFFFF0000
00000000000001FFFFE000
000000000000003FFFF800
000000000000000FFFFF00
0000000000000001FFFFC0
00000000000000007FFFC0
00000000000000000FFFC0
000000000000000001FFC0
0000000000000000007FC0
0000000000000000000FC0
00000000000000000001C0
0000000000000000000040
ENDCHAR
STARTCHAR 003D
ENCODING 61
SWIDTH 472 0
DWIDTH 105 0
BBX 93 64 5 40
BITMAP
FE00000000000000000003F8
FE00000000000000000003F8
FE00000000000000000003F8
FF00000000000000000007F8
FF00000000000000000007F8
7F00000000000000000007F0
7F8000000000000000000FF0
7F8000000000000000000FF0
3FC000000000000000001FE0
3FE000000000000000003FE0
1FF000000000000000007FC0
1FF80000000000000000FFC0
0FFE0000000000000003FF80
07FFC00000000000000FFF00
03FFFFFFFFFFFFFFFFFFFE00
01FFFFFFFFFFFFFFFFFFFC00
00FFFFFFFFFFFFFFFFFFF800
003FFFFFFFFFFFFFFFFFF000
001FFFFFFFFFFFFFFFFFC000
0007FFFFFFFFFFFFFFFF0000
00007FFFFFFFFFFFFFF00000
000000000000000000000000
000000000000000000000000
000000000000000000000000
000000000000000000000000
000000000000000000000000
000000000000000000000000
000000000000000000000000
000000000000000000000000
000000000000000000000000
000000000000000000000000
000000000000000000000000
000000000000000000000000
000000000000000000000000
000000000000000000000000
000000000000000000000000
000000000000000000000000
000000000000000000000000
000000000000000000000000
000000000000000000000000
000000000000000000000000
000000000000000000000000
000000000000000000000000
00007FFFFFFFFFFFFFF00000
0007FFFFFFFFFFFFFFFF0000
001FFFFFFFFFFFFFFFFFC000
003FFFFFFFFFFFFFFFFFF000
00FFFFFFFFFFFFFFFFFFF800
01FFFFFFFFFFFFFFFFFFFC00
03FFFFFFFFFFFFFFFFFFFE00
07FFC00000000000001FFF00
0FFE0000000000000003FF80
1FF80000000000000000FFC0
1FF000000000000000007FC0
3FE000000000000000003FE0
3FC000000000000000001FE0
7F8000000000000000000FF0
7F8000000000000000000FF0
7F00000000000000000007F0
FF00000000000000000007F8
FF00000000000000000007F8
FE00000000000000000003F8
FE00000000000000000003F8
FE00000000000000000003F8
ENDCHAR
STARTCHAR 003E
ENCODING 62
SWIDTH 432 0
DWIDTH 96 0
BBX 83 63 5 40
BITMAP
8000000000000000000000
F000000000000000000000
FE00000000000000000000
FF80000000000000000000
FFF0000000000000000000
FFFE000000000000000000
FFFF800000000000000000
FFFFF00000000000000000
1FFFFE0000000000000000
07FFFF8000000000000000
00FFFFF000000000000000
001FFFFE00000000000000
0007FFFF80000000000000
0000FFFFF0000000000000
00001FFFFE000000000000
000007FFFF800000000000
000000FFFFF00000000000
0000001FFFFE0000000000
00000003FFFFC000000000
00000000FFFFF000000000
000000001FFFFE00000000
0000000003FFFFC0000000
0000000000FFFFF0000000
00000000001FFFFE000000
000000000003FFFFC00000
000000000000FFFFF00000
0000000000001FFFFE0000
00000000000003FFFFC000
00000000000000FFFFF000
000000000000001FFFFE00
0000000000000003FFFFC0
0000000000000000FFFFE0
0000000000000007FFFF00
000000000000001FFFFC00
00000000000000FFFFF000
00000000000007FFFF8000
0000000000001FFFFE0000
000000000000FFFFF00000
000000000007FFFF800000
00000000001FFFFE000000
0000000000FFFFF0000000
0000000007FFFF80000000
000000001FFFFE00000000
00000000FFFFF000000000
00000007FFFF8000000000
0000001FFFFE0000000000
000000FFFFF00000000000
000007FFFF800000000000
00001FFFFE000000000000
0000FFFFF0000000000000
0007FFFF80000000000000
001FFFFE00000000000000
00FFFFF000000000000000
07FFFF8000000000000000
1FFFFE0000000000000000
FFFFF00000000000000000
FFFF800000000000000000
FFFE000000000000000000
FFF0000000000000000000
FF80000000000000000000
FE00000000000000000000
F000000000000000000000
8000000000000000000000
ENDCHAR
STARTCHAR 003F
ENCODING 63
SWIDTH 427 0
DWIDTH 95 0
BBX 82 144 5 0
BITMAP
00000003FFFFF000000000
0000007FFFFFFF80000000
000003FFFFFFFFF0000000
00000FFFFFFFFFFC000000
00003FFFFFFFFFFF000000
0000FFFFFFFFFFFFC00000
0001FFFFFFFFFFFFE00000
0003FFFC00000FFFF00000
000FFFC0000000FFFC0000
001FFF000000003FFE0000
003FFC000000000FFF0000
007FF00000000003FF8000
00FFE00000000001FFC000
00FFC00000000000FFC000
01FF8000000000007FE000
03FF0000000000001FF000
07FE0000000000001FF800
07FC0000000000000FF800
0FF800000000000007FC00
0FF000000000000003FC00
1FF000000000000001FE00
1FE000000000000001FE00
3FC000000000000000FF00
3FC000000000000000FF00
3F80000000000000007F00
7F80000000000000007F80
7F80000000000000007F80
7F00000000000000003F80
7F00000000000000003F80
7F00000000000000003F80
FF00000000000000003FC0
FE00000000000000001FC0
FE00000000000000001FC0
FE00000000000000001FC0
FE00000000000000001FC0
FE00000000000000001FC0
0000000000000000001FC0
0000000000000000001FC0
0000000000000000001FC0
0000000000000000001FC0
0000000000000000001FC0
0000000000000000003FC0
0000000000000000003F80
0000000000000000003F80
0000000000000000003F80
0000000000000000007F80
0000000000000000007F80
0000000000000000007F00
000000000000000000FF00
000000000000000000FF00
000000000000000001FE00
000000000000000001FE00
000000000000000003FC00
000000000000000007FC00
00000000000000000FF800
00000000000000001FF800
00000000000000001FF000
00000000000000003FE000
0000000000000000FFC000
0000000000000001FFC000
0000000000000003FF8000
000000000000000FFF0000
000000000000003FFE0000
00000000000000FFFC0000
0000000000000FFFF00000
00000000003FFFFFE00000
0000000003FFFFFFC00000
000000000FFFFFFF000000
000000001FFFFFFC000000
000000007FFFFFF0000000
00000000FFFFFF80000000
00000001FFFFF000000000
00000003FFC00000000000
00000007FF000000000000
0000000FFC000000000000
0000000FF8000000000000
0000001FF0000000000000
0000001FE0000000000000
0000003FC0000000000000
0000003FC0000000000000
0000003F80000000000000
0000007F80000000000000
0000007F00000000000000
0000007F00000000000000
0000007F00000000000000
0000007F00000000000000
0000007F00000000000000
0000007F00000000000000
0000007F00000000000000
0000007F00000000000000
0000007F00000000000000
0000007F00000000000000
0000007F00000000000000
0000007F00000000000000
0000007F00000000000000
0000007F00000000000000
0000007F00000000000000
0000007F00000000000000
0000007F00000000000000
0000007F00000000000000
0000007F00000000000000
0000007F00000000000000
0000007F00000000000000
0000007F00000000000000
0000007F00000000000000
0000007F00000000000000
0000007F00000000000000
0000007F00000000000000
0000007F00000000000000
0000007F00000000000000
0000007F00000000000000
0000007F00000000000000
0000007F00000000000000
0000007F00000000000000
0000007F00000000000000
0000000000000000000000
0000000000000000000000
0000000000000000000000
0000000000000000000000
0000000000000000000000
0000000000000000000000
0000000000000000000000
0000000000000000000000
0000000000000000000000
0000000000000000000000
0000000000000000000000
0000000000000000000000
0000000000000000000000
0000000000000000000000
0000000000000000000000
0000000000000000000000
0000000000000000000000
0000000000000000000000
0000000000000000000000
0000000000000000000000
0000000000000000000000
0000000000000000000000
0000003E00000000000000
0000007F00000000000000
0000007F00000000000000
0000007F00000000000000
0000007F00000000000000
0000007F00000000000000
0000003E00000000000000
ENDCHAR
STARTCHAR 0040
ENCODING 64
SWIDTH 684 0
DWIDTH 152 0
BBX 140 142 5 2
BITMAP
000000000000000008000000000000000000
00000000000000000C000000000000000000
00000000000000001E000000000000000000
00000000000000003F000000000000000000
00000000000000007F800000000000000000
0000000000000000FFC00000000000000000
0000000000000001FFE00000000000000000
0000000000000003FFF00000000000000000
0000000000000007FFF80000000000000000
000000000000000FFFFC0000000000000000
000000000000001FFBFE0000000000000000
000000000000003FF1FF0000000000000000
000000000000007FE1FF8000000000000000
00000000000000FFC0FFC000000000000000
00000000000001FF807FE000000000000000
00000000000003FF003FF000000000000000
00000000000007FE001FF800000000000000
0000000000000FFC000FFC00000000000000
0000000000001FF80007FE00000000000000
0000000000003FF00003FF00000000000000
0000000000007FE00001FF80000000000000
000000000000FFC00000FFC0000000000000
000000000001FF8000007FE0000000000000
000000000003FF0000003FF0000000000000
000000000007FE0000001FF8000000000000
00000000000FFC0000000FFC000000000000
00000000001FF800000007FE000000000000
00000000003FF000000003FF000000000000
00000000007FE000000001FF800000000000
00000000007FC000000000FFC00000000000
0000000000FF80000000007FE00000000000
0000000001FF00000000003FF00000000000
0000000003FE00000000001FF80000000000
0000000007FC00000000000FFC0000000000
000000000FF8000000000007FE0000000000
000000001FF80007FFFFC003FF0000000000
000000003FF0007FFFFFF801FF8000000000
000000007FE001FFFFFFFE00FFC000000000
00000000FFC007FFFFFFFF007FE000000000
00000001FF801FFFFFFFFFC03FF000000000
00000003FF003FFE00003FC01FF800000000
00000007FE007FE000000FE00FFC00000000
0000000FFC00FF80000007F007FE00000000
0000001FF801FE00000003F803FF00000000
0000003FF003FC00000001F801FF80000000
0000007FE003F800000000F800FFC0000000
000000FFC007F000000000FC007FE0000000
000001FF800FE0000000007C003FF0000000
000003FF000FC0000000007C001FF8000000
000007FE001F80000000007C000FFC000000
00000FFC000000000000007C0007FE000000
00001FF8000000000000007C0003FF000000
00003FF0000000000000007C0001FF800000
00007FE000000000000000FC0000FFC00000
0000FFC000000000000000FC00007FE00000
0001FF8000000000000001FC00003FF00000
0003FF0000000000000003FC00001FF80000
0003FE0000000000000007FC00000FFC0000
0007FC000000000000000FFC000007FE0000
000FF8000000000000003FFC000003FF0000
001FF00000000000FFFFFFFC000001FF8000
003FE00000000007FFFFFFFC000000FFC000
007FC0000000003FFFFFFE7C0000007FE000
00FFC000000000FFFFFFFC7C0000003FF000
01FF8000000003FFFFFFE07C0000001FF800
03FF0000000007FF8000007C0000000FFC00
07FE000000000FFC0000007C00000007FE00
0FFC000000001FF00000007C00000003FF00
1FF8000000003FC00000007C00000001FF80
3FF0000000007F800000007C00000000FFC0
7FE000000000FE000000007C000000007FE0
FFC000000001FC000000007C000000003FF0
7FE000000003F8000000007C000000007FE0
3FF000000003F8000000007C00000000FFC0
1FF800000007F0000000007C00000001FF80
0FFC00000007E0000000007C00000003FF00
07FE00000007E0000000007C00000007FE00
03FF0000000FC0000000007C0000000FFC00
01FF8000000FC0000000007C0000001FF800
00FFC000000FC0000000007C0000003FF000
007FE000001FC0000000007C0000007FE000
003FF000001F80000000007C000000FFC000
001FF800001F80000000007C000001FF8000
000FF800001F80000000007C000003FF0000
0007FC00001F80000000007C000007FE0000
0003FE00001F8000000000FC00000FFC0000
0001FF00001F8000000000F800001FF80000
0000FF80001F8000000000F800003FF00000
00007FC0001F8000000001F800007FE00000
00003FE0001F8000000001F80000FFC00000
00001FF0001F8000000001F00001FF800000
00000FF8001F8000000003F00003FF000000
000007FC001F8000000007E00007FE000000
000007FE001F800000000FE0000FFC000000
000003FF001FC00000001FC0001FF8000000
000001FF800FC00000003F80003FF0000000
000000FFC00FE00000007F00007FE0000000
0000007FE007F0000000FF0000FFC0000000
0000003FF007F8000003FE0001FF80000000
0000001FF803FC00000FF80003FF00000000
0000000FFC01FF0000FFF00007FE00000000
00000007FE00FFFFFFFFE0000FFC00000000
00000003FF007FFFFFFF80001FF800000000
00000001FF803FFFFFFE00003FF000000000
00000000FFC00FFFFFF800007FE000000000
000000007FE001FFFF800000FFC000000000
000000003FF0000000000001FF8000000000
000000001FF8000000000003FF0000000000
000000000FFC000000000007FE0000000000
0000000007FE00000000000FFC0000000000
0000000003FF00000000001FF80000000000
0000000001FF80000000003FF00000000000
0000000000FFC0000000007FE00000000000
00000000007FE000000000FFC00000000000
00000000003FF000000001FF800000000000
00000000001FF800000003FF000000000000
00000000000FFC00000007FE000000000000
000000000007FE0000000FFC000000000000
000000000003FF0000001FF8000000000000
000000000001FF8000003FF0000000000000
000000000000FFC000007FE0000000000000
0000000000007FE00000FFC0000000000000
0000000000003FF00001FF80000000000000
0000000000001FF80003FF00000000000000
0000000000000FFC0007FE00000000000000
00000000000007FE000FFC00000000000000
00000000000003FF001FF800000000000000
00000000000001FF803FF000000000000000
00000000000000FFC07FE000000000000000
000000000000007FE0FFC000000000000000
000000000000003FE1FF8000000000000000
000000000000001FF3FF0000000000000000
000000000000000FFFFE0000000000000000
0000000000000007FFFC0000000000000000
0000000000000003FFF80000000000000000
0000000000000001FFF00000000000000000
0000000000000000FFE00000000000000000
00000000000000007FC00000000000000000
00000000000000003F800000000000000000
00000000000000001F000000000000000000
00000000000000000E000000000000000000
000000000000000008000000000000000000
ENDCHAR
STARTCHAR 0041
ENCODING 65
SWIDTH 427 0
DWIDTH 95 0
BBX 82 144 5 0
BITMAP
00000003FFFFF000000000
0000007FFFFFFF80000000
000003FFFFFFFFF0000000
00000FFFFFFFFFFC000000
00003FFFFFFFFFFF000000
0000FFFFFFFFFFFFC00000
0001FFFFFFFFFFFFE00000
0007FFFC00000FFFF80000
000FFFC0000000FFFC0000
001FFF000000003FFE0000
003FFC000000000FFF0000
007FF00000000003FF8000
00FFE00000000001FFC000
00FF8000000000007FE000
01FF0000000000003FE000
03FE0000000000001FF000
07FC0000000000000FF800
07FC0000000000000FF800
0FF800000000000007FC00
0FF000000000000003FC00
1FE000000000000001FE00
1FE000000000000001FE00
3FC000000000000000FF00
3FC000000000000000FF00
3F80000000000000007F00
7F80000000000000007F80
7F00000000000000007F80
7F00000000000000003F80
7F00000000000000003F80
FF00000000000000003F80
FE00000000000000003FC0
FE00000000000000001FC0
FE00000000000000001FC0
FE00000000000000001FC0
FE00000000000000001FC0
FE00000000000000001FC0
FE00000000000000001FC0
FE00000000000000001FC0
FE00000000000000001FC0
FE00000000000000001FC0
FE00000000000000001FC0
FE00000000000000001FC0
FE00000000000000001FC0
FE00000000000000001FC0
FE00000000000000001FC0
FE00000000000000001FC0
FE00000000000000001FC0
FE00000000000000001FC0
FE00000000000000001FC0
FE00000000000000001FC0
FE00000000000000001FC0
FE00000000000000001FC0
FE00000000000000001FC0
FE00000000000000001FC0
FE00000000000000001FC0
FE00000000000000001FC0
FE00000000000000001FC0
FE00000000000000001FC0
FE00000000000000001FC0
FE00000000000000001FC0
FE00000000000000001FC0
FE00000000000000001FC0
FE00000000000000001FC0
FE00000000000000001FC0
FE00000000000000001FC0
FE000007FFFFF800001FC0
FE00007FFFFFFF80001FC0
FE0003FFFFFFFFF0001FC0
FE000FFFFFFFFFFC001FC0
FE003FFFFFFFFFFF001FC0
FE007FFFFFFFFFFFC01FC0
FE01FFFFFFFFFFFFE01FC0
FE03FFFC00000FFFF01FC0
FE07FFC0000000FFF81FC0
FE0FFF000000003FFC1FC0
FE1FFC000000000FFE1FC0
FE3FF00000000003FF1FC0
FE7FE00000000001FF9FC0
FEFFC00000000000FFDFC0
FFFF0000000000003FFFC0
FFFE0000000000001FFFC0
FFFC0000000000001FFFC0
FFFC0000000000000FFFC0
FFF800000000000007FFC0
FFF000000000000003FFC0
FFE000000000000001FFC0
FFE000000000000001FFC0
FFC000000000000000FFC0
FFC000000000000000FFC0
FF80000000000000007FC0
FF80000000000000007FC0
FF00000000000000007FC0
FF00000000000000003FC0
FF00000000000000003FC0
FF00000000000000003FC0
FE00000000000000001FC0
FE00000000000000001FC0
FE00000000000000001FC0
FE00000000000000001FC0
FE00000000000000001FC0
FE00000000000000001FC0
FE00000000000000001FC0
FE00000000000000001FC0
FE00000000000000001FC0
FE00000000000000001FC0
FE00000000000000001FC0
FE00000000000000001FC0
FE00000000000000001FC0
FE00000000000000001FC0
FE00000000000000001FC0
FE00000000000000001FC0
FE00000000000000001FC0
FE00000000000000001FC0
FE00000000000000001FC0
FE00000000000000001FC0
FE00000000000000001FC0
FE00000000000000001FC0
FE00000000000000001FC0
FE00000000000000001FC0
FE00000000000000001FC0
FE00000000000000001FC0
FE00000000000000001FC0
FE00000000000000001FC0
FE00000000000000001FC0
FE00000000000000001FC0
FE00000000000000001FC0
FE00000000000000001FC0
FE00000000000000001FC0
FE00000000000000001FC0
FE00000000000000001FC0
FE00000000000000001FC0
FE00000000000000001FC0
FE00000000000000001FC0
FE00000000000000001FC0
FE00000000000000001FC0
FE00000000000000001FC0
FE00000000000000001FC0
FE00000000000000001FC0
FE00000000000000001FC0
FE00000000000000001FC0
FE00000000000000001FC0
FE00000000000000001FC0
FE00000000000000001FC0
FE00000000000000001FC0
ENDCHAR
STARTCHAR 0042
ENCODING 66
SWIDTH 427 0
DWIDTH 95 0
BBX 82 144 5 0
BITMAP
00000003FFFFF000000000
0000007FFFFFFF80000000
000003FFFFFFFFF0000000
00000FFFFFFFFFFC000000
00003FFFFFFFFFFF000000
0000FFFFFFFFFFFFC00000
0001FFFFFFFFFFFFE00000
0007FFFC00000FFFF80000
000FFFC0000000FFFC0000
001FFF000000003FFE0000
003FFC000000000FFF0000
007FF00000000003FF8000
00FFE00000000001FFC000
00FF8000000000007FE000
01FF0000000000003FE000
03FE0000000000001FF000
07FC0000000000000FF800
07FC0000000000000FF800
0FF800000000000007FC00
0FF000000000000003FC00
1FE000000000000001FE00
1FE000000000000001FE00
3FC000000000000000FF00
3FC000000000000000FF00
3F80000000000000007F00
7F80000000000000007F80
7F00000000000000007F80
7F00000000000000003F80
7F00000000000000003F80
FF00000000000000003F80
FE00000000000000003FC0
FE00000000000000001FC0
FE00000000000000001FC0
FE00000000000000001FC0
FE00000000000000001FC0
FE00000000000000001FC0
FE00000000000000001FC0
FE00000000000000001FC0
FE00000000000000001FC0
FE00000000000000001FC0
FE00000000000000001FC0
FE00000000000000001FC0
FE00000000000000003F80
FE00000000000000003F80
FE00000000000000003F80
FE00000000000000007F80
FE00000000000000007F00
FE00000000000000007F00
FE0000000000000000FF00
FE0000000000000000FE00
FE0000000000000001FE00
FE0000000000000001FC00
FE0000000000000003FC00
FE0000000000000007F800
FE000000000000000FF800
FE000000000000000FF000
FE000000000000001FF000
FE000000000000003FE000
FE00000000000000FFC000
FE00000000000001FF8000
FE00000000000003FF0000
FE0000000000000FFE0000
FE0000000000003FFC0000
FE000000000000FFF80000
FE00000000000FFFF00000
FE000007FFFFFFFFE00000
FE00007FFFFFFFFF800000
FE0003FFFFFFFFFF000000
FE000FFFFFFFFFFC000000
FE003FFFFFFFFFFF000000
FE007FFFFFFFFFFFC00000
FE01FFFFFFFFFFFFE00000
FE03FFFC00000FFFF00000
FE07FFC0000000FFFC0000
FE0FFF000000003FFE0000
FE1FFC000000000FFF0000
FE3FF00000000003FF8000
FE7FE00000000001FF8000
FEFFC00000000000FFC000
FFFF0000000000007FE000
FFFE0000000000001FF000
FFFC0000000000001FF000
FFFC0000000000000FF800
FFF800000000000007FC00
FFF000000000000003FC00
FFE000000000000001FE00
FFE000000000000001FE00
FFC000000000000000FE00
FFC000000000000000FF00
FF80000000000000007F00
FF80000000000000007F00
FF00000000000000007F80
FF00000000000000003F80
FF00000000000000003F80
FF00000000000000003F80
FE00000000000000001FC0
FE00000000000000001FC0
FE00000000000000001FC0
FE00000000000000001FC0
FE00000000000000001FC0
FE00000000000000001FC0
FE00000000000000001FC0
FE00000000000000001FC0
FE00000000000000001FC0
FE00000000000000001FC0
FE00000000000000001FC0
FE00000000000000001FC0
FE00000000000000001FC0
FE00000000000000001FC0
FE00000000000000001FC0
FE00000000000000001FC0
FE00000000000000001FC0
FE00000000000000001FC0
FE00000000000000001FC0
FE00000000000000003F80
FE00000000000000003F80
FE00000000000000003F80
FE00000000000000007F80
FE00000000000000007F80
FE00000000000000007F00
FE0000000000000000FF00
FE0000000000000000FF00
FE0000000000000001FE00
FE0000000000000001FE00
FE0000000000000003FC00
FE0000000000000007FC00
FE000000000000000FF800
FE000000000000000FF800
FE000000000000001FF000
FE000000000000003FE000
FE00000000000000FFC000
FE00000000000001FFC000
FE00000000000003FF8000
FE0000000000000FFF0000
FE0000000000003FFE0000
FE000000000000FFFC0000
FE00000000000FFFF00000
FFFFFFFFFFFFFFFFE00000
FFFFFFFFFFFFFFFFC00000
FFFFFFFFFFFFFFFF000000
FFFFFFFFFFFFFFFC000000
FFFFFFFFFFFFFFF0000000
FFFFFFFFFFFFFF80000000
FFFFFFFFFFFFF800000000
ENDCHAR
STARTCHAR 0043
ENCODING 67
SWIDTH 427 0
DWIDTH 95 0
BBX 82 144 5 0
BITMAP
00000003FFFFF000000000
0000007FFFFFFF80000000
000003FFFFFFFFF0000000
00000FFFFFFFFFFC000000
00003FFFFFFFFFFF000000
0000FFFFFFFFFFFFC00000
0001FFFFFFFFFFFFE00000
0007FFFC00000FFFF80000
000FFFC0000000FFFC0000
001FFF000000003FFE0000
003FFC000000000FFF0000
007FF00000000003FF8000
00FFE00000000001FFC000
00FF8000000000007FE000
01FF0000000000003FE000
03FE0000000000001FF000
07FC0000000000000FF800
07F800000000000007F800
0FF800000000000007FC00
0FF000000000000003FC00
1FE000000000000001FE00
1FE000000000000001FE00
3FC000000000000000FF00
3FC000000000000000FF00
3F80000000000000007F80
7F80000000000000007F80
7F00000000000000003F80
7F00000000000000003F80
7F00000000000000003FC0
FF00000000000000003FC0
FE00000000000000001FC0
FE00000000000000001FC0
FE00000000000000001FC0
FE00000000000000001FC0
FE00000000000000001FC0
FE00000000000000001FC0
FE00000000000000001FC0
FE00000000000000000000
FE00000000000000000000
FE00000000000000000000
FE00000000000000000000
FE00000000000000000000
FE00000000000000000000
FE00000000000000000000
FE00000000000000000000
FE00000000000000000000
FE00000000000000000000
FE00000000000000000000
FE00000000000000000000
FE00000000000000000000
FE00000000000000000000
FE00000000000000000000
FE00000000000000000000
FE00000000000000000000
FE00000000000000000000
FE00000000000000000000
FE00000000000000000000
FE00000000000000000000
FE00000000000000000000
FE00000000000000000000
FE00000000000000000000
FE00000000000000000000
FE00000000000000000000
FE00000000000000000000
FE00000000000000000000
FE00000000000000000000
FE00000000000000000000
FE00000000000000000000
FE00000000000000000000
FE00000000000000000000
FE00000000000000000000
FE00000000000000000000
FE00000000000000000000
FE00000000000000000000
FE00000000000000000000
FE00000000000000000000
FE00000000000000000000
FE00000000000000000000
FE00000000000000000000
FE00000000000000000000
FE00000000000000000000
FE00000000000000000000
FE00000000000000000000
FE00000000000000000000
FE00000000000000000000
FE00000000000000000000
FE00000000000000000000
FE00000000000000000000
FE00000000000000000000
FE00000000000000000000
FE00000000000000000000
FE00000000000000000000
FE00000000000000000000
FE00000000000000000000
FE00000000000000000000
FE00000000000000000000
FE00000000000000000000
FE00000000000000000000
FE00000000000000000000
FE00000000000000000000
FE00000000000000000000
FE00000000000000000000
FE00000000000000000000
FE00000000000000000000
FE00000000000000000000
FE00000000000000000000
FE00000000000000000000
FE00000000000000000000
FE00000000000000001FC0
FE00000000000000001FC0
FE00000000000000001FC0
FE00000000000000001FC0
FE00000000000000001FC0
FE00000000000000001FC0
7F00000000000000001FC0
7F00000000000000003FC0
7F00000000000000003FC0
7F00000000000000003F80
7F80000000000000007F80
3F80000000000000007F80
3FC0000000000000007F00
3FC000000000000000FF00
1FE000000000000001FF00
1FE000000000000001FE00
0FF000000000000003FE00
0FF800000000000007FC00
07FC00000000000007FC00
03FC0000000000000FF800
03FE0000000000001FF000
01FF0000000000003FF000
00FFC000000000007FE000
007FE00000000001FFC000
003FF00000000003FF8000
001FFC000000000FFF0000
000FFF000000003FFE0000
0007FFC0000000FFFC0000
0003FFFC00000FFFF80000
0001FFFFFFFFFFFFF00000
00007FFFFFFFFFFFC00000
00003FFFFFFFFFFF000000
00000FFFFFFFFFFE000000
000003FFFFFFFFF0000000
0000007FFFFFFF80000000
00000003FFFFF800000000
ENDCHAR
STARTCHAR 0044
ENCODING 68
SWIDTH 427 0
DWIDTH 95 0
BBX 82 144 5 0
BITMAP
FFFFFFFFFFFFF000000000
FFFFFFFFFFFFFF80000000
FFFFFFFFFFFFFFF0000000
FFFFFFFFFFFFFFFC000000
FFFFFFFFFFFFFFFF000000
FFFFFFFFFFFFFFFFC00000
FFFFFFFFFFFFFFFFE00000
FE00000000000FFFF80000
FE000000000000FFFC0000
FE0000000000003FFE0000
FE0000000000000FFF0000
FE00000000000003FF8000
FE00000000000001FFC000
FE000000000000007FE000
FE000000000000003FE000
FE000000000000001FF000
FE000000000000000FF800
FE0000000000000007F800
FE0000000000000007FC00
FE0000000000000003FC00
FE0000000000000001FE00
FE0000000000000001FE00
FE0000000000000000FF00
FE0000000000000000FF00
FE00000000000000007F00
FE00000000000000007F80
FE00000000000000007F80
FE00000000000000003F80
FE00000000000000003F80
FE00000000000000003F80
FE00000000000000001FC0
FE00000000000000001FC0
FE00000000000000001FC0
FE00000000000000001FC0
FE00000000000000001FC0
FE00000000000000001FC0
FE00000000000000001FC0
FE00000000000000001FC0
FE00000000000000001FC0
FE00000000000000001FC0
FE00000000000000001FC0
FE00000000000000001FC0
FE00000000000000001FC0
FE00000000000000001FC0
FE00000000000000001FC0
FE00000000000000001FC0
FE00000000000000001FC0
FE00000000000000001FC0
FE00000000000000001FC0
FE00000000000000001FC0
FE00000000000000001FC0
FE00000000000000001FC0
FE00000000000000001FC0
FE00000000000000001FC0
FE00000000000000001FC0
FE00000000000000001FC0
FE00000000000000001FC0
FE00000000000000001FC0
FE00000000000000001FC0
FE00000000000000001FC0
FE00000000000000001FC0
FE00000000000000001FC0
FE00000000000000001FC0
FE00000000000000001FC0
FE00000000000000001FC0
FE00000000000000001FC0
FE00000000000000001FC0
FE00000000000000001FC0
FE00000000000000001FC0
FE00000000000000001FC0
FE00000000000000001FC0
FE00000000000000001FC0
FE00000000000000001FC0
FE00000000000000001FC0
FE00000000000000001FC0
FE00000000000000001FC0
FE00000000000000001FC0
FE00000000000000001FC0
FE00000000000000001FC0
FE00000000000000001FC0
FE00000000000000001FC0
FE00000000000000001FC0
FE00000000000000001FC0
FE00000000000000001FC0
FE00000000000000001FC0
FE00000000000000001FC0
FE00000000000000001FC0
FE00000000000000001FC0
FE00000000000000001FC0
FE00000000000000001FC0
FE00000000000000001FC0
FE00000000000000001FC0
FE00000000000000001FC0
FE00000000000000001FC0
FE00000000000000001FC0
FE00000000000000001FC0
FE00000000000000001FC0
FE00000000000000001FC0
FE00000000000000001FC0
FE00000000000000001FC0
FE00000000000000001FC0
FE00000000000000001FC0
FE00000000000000001FC0
FE00000000000000001FC0
FE00000000000000001FC0
FE00000000000000001FC0
FE00000000000000001FC0
FE00000000000000001FC0
FE00000000000000001FC0
FE00000000000000001FC0
FE00000000000000001FC0
FE00000000000000001FC0
FE00000000000000001FC0
FE00000000000000003FC0
FE00000000000000003F80
FE00000000000000003F80
FE00000000000000003F80
FE00000000000000007F80
FE00000000000000007F80
FE00000000000000007F00
FE0000000000000000FF00
FE0000000000000000FF00
FE0000000000000001FE00
FE0000000000000001FE00
FE0000000000000003FC00
FE0000000000000007FC00
FE000000000000000FF800
FE000000000000001FF800
FE000000000000001FF000
FE000000000000003FE000
FE00000000000000FFC000
FE00000000000001FFC000
FE00000000000003FF8000
FE0000000000000FFF0000
FE0000000000003FFE0000
FE000000000000FFFC0000
FE00000000000FFFF00000
FFFFFFFFFFFFFFFFE00000
FFFFFFFFFFFFFFFFC00000
FFFFFFFFFFFFFFFF000000
FFFFFFFFFFFFFFFC000000
FFFFFFFFFFFFFFF0000000
FFFFFFFFFFFFFF80000000
FFFFFFFFFFFFF800000000
ENDCHAR
STARTCHAR 0045
ENCODING 69
SWIDTH 378 0
DWIDTH 84 0
BBX 72 144 5 0
BITMAP
00000003FFFFFFFFFF
0000007FFFFFFFFFFF
000003FFFFFFFFFFFF
00000FFFFFFFFFFFFF
00003FFFFFFFFFFFFF
00007FFFFFFFFFFFFF
0001FFFFFFFFFFFFFF
0003FFFC0000000000
0007FFC00000000000
000FFF000000000000
001FFC000000000000
003FF0000000000000
007FE0000000000000
00FFC0000000000000
01FF00000000000000
03FE00000000000000
03FC00000000000000
07FC00000000000000
0FF800000000000000
0FF000000000000000
1FE000000000000000
1FE000000000000000
3FC000000000000000
3FC000000000000000
3F8000000000000000
7F8000000000000000
7F0000000000000000
7F0000000000000000
7F0000000000000000
7F0000000000000000
FE0000000000000000
FE0000000000000000
FE0000000000000000
FE0000000000000000
FE0000000000000000
FE0000000000000000
FE0000000000000000
FE0000000000000000
FE0000000000000000
FE0000000000000000
FE0000000000000000
FE0000000000000000
FE0000000000000000
FE0000000000000000
FE0000000000000000
FE0000000000000000
FE0000000000000000
FE0000000000000000
FE0000000000000000
FE0000000000000000
FE0000000000000000
FE0000000000000000
FE0000000000000000
FE0000000000000000
FE0000000000000000
FE0000000000000000
FE0000000000000000
FE0000000000000000
FE0000000000000000
FE0000000000000000
FE0000000000000000
FE0000000000000000
FE0000000000000000
FE0000000000000000
FE0000000000000000
FE000007FFFFC00000
FE00007FFFFFC00000
FE0003FFFFFFC00000
FE000FFFFFFFC00000
FE003FFFFFFFC00000
FE00FFFFFFFFC00000
FE01FFFFFFFFC00000
FE03FFFC0000000000
FE07FFC00000000000
FE1FFF000000000000
FE3FFC000000000000
FE3FF0000000000000
FE7FE0000000000000
FEFFC0000000000000
FFFF80000000000000
FFFE00000000000000
FFFE00000000000000
FFFC00000000000000
FFF800000000000000
FFF000000000000000
FFE000000000000000
FFE000000000000000
FFC000000000000000
FFC000000000000000
FF8000000000000000
FF8000000000000000
FF8000000000000000
FF0000000000000000
FF0000000000000000
FF0000000000000000
FE0000000000000000
FE0000000000000000
FE0000000000000000
FE0000000000000000
FE0000000000000000
FE0000000000000000
FE0000000000000000
FE0000000000000000
FE0000000000000000
FE0000000000000000
FE0000000000000000
FE0000000000000000
FE0000000000000000
FE0000000000000000
FE0000000000000000
FE0000000000000000
FE0000000000000000
FE0000000000000000
FE0000000000000000
FE0000000000000000
FE0000000000000000
FE0000000000000000
FE0000000000000000
FE0000000000000000
FE0000000000000000
FE0000000000000000
FE0000000000000000
FE0000000000000000
FE0000000000000000
FE0000000000000000
FE0000000000000000
FE0000000000000000
FE0000000000000000
FE0000000000000000
FE0000000000000000
FE0000000000000000
FE0000000000000000
FE0000000000000000
FE0000000000000000
FE0000000000000000
FE0000000000000000
FE0000000000000000
FFFFFFFFFFFFFFFFFF
FFFFFFFFFFFFFFFFFF
FFFFFFFFFFFFFFFFFF
FFFFFFFFFFFFFFFFFF
FFFFFFFFFFFFFFFFFF
FFFFFFFFFFFFFFFFFF
FFFFFFFFFFFFFFFFFF
ENDCHAR
STARTCHAR 0046
ENCODING 70
SWIDTH 342 0
DWIDTH 76 0
BBX 72 144 4 0
BITMAP
00000003FFFFFFFFFF
0000007FFFFFFFFFFF
000003FFFFFFFFFFFF
00000FFFFFFFFFFFFF
00003FFFFFFFFFFFFF
00007FFFFFFFFFFFFF
0001FFFFFFFFFFFFFF
0003FFFC0000000000
0007FFC00000000000
000FFF000000000000
001FFC000000000000
003FF0000000000000
007FE0000000000000
00FFC0000000000000
01FF00000000000000
03FE00000000000000
03FC00000000000000
07FC00000000000000
0FF800000000000000
0FF000000000000000
1FE000000000000000
1FE000000000000000
1FC000000000000000
3FC000000000000000
3F8000000000000000
7F8000000000000000
7F8000000000000000
7F0000000000000000
7F0000000000000000
7F0000000000000000
FF0000000000000000
FE0000000000000000
FE0000000000000000
FE0000000000000000
FE0000000000000000
FE0000000000000000
FE0000000000000000
FE0000000000000000
FE0000000000000000
FE0000000000000000
FE0000000000000000
FE0000000000000000
FE0000000000000000
FE0000000000000000
FE0000000000000000
FE0000000000000000
FE0000000000000000
FE0000000000000000
FE0000000000000000
FE0000000000000000
FE0000000000000000
FE0000000000000000
FE0000000000000000
FE0000000000000000
FE0000000000000000
FE0000000000000000
FE0000000000000000
FE0000000000000000
FE0000000000000000
FE0000000000000000
FE0000000000000000
FE0000000000000000
FE0000000000000000
FE0000000000000000
FE0000000000000000
FE000003FFFFC00000
FE00007FFFFFC00000
FE0003FFFFFFC00000
FE000FFFFFFFC00000
FE003FFFFFFFC00000
FE007FFFFFFFC00000
FE01FFFFFFFFC00000
FE03FFFC0000000000
FE07FFE00000000000
FE0FFF000000000000
FE1FFC000000000000
FE3FF0000000000000
FE7FE0000000000000
FEFFC0000000000000
FFFF80000000000000
FFFF00000000000000
FFFE00000000000000
FFFC00000000000000
FFF800000000000000
FFF000000000000000
FFE000000000000000
FFE000000000000000
FFC000000000000000
FFC000000000000000
FF8000000000000000
FF8000000000000000
FF8000000000000000
FF0000000000000000
FF0000000000000000
FF0000000000000000
FF0000000000000000
FE0000000000000000
FE0000000000000000
FE0000000000000000
FE0000000000000000
FE0000000000000000
FE0000000000000000
FE0000000000000000
FE0000000000000000
FE0000000000000000
FE0000000000000000
FE0000000000000000
FE0000000000000000
FE0000000000000000
FE0000000000000000
FE0000000000000000
FE0000000000000000
FE0000000000000000
FE0000000000000000
FE0000000000000000
FE0000000000000000
FE0000000000000000
FE0000000000000000
FE0000000000000000
FE0000000000000000
FE0000000000000000
FE0000000000000000
FE0000000000000000
FE0000000000000000
FE0000000000000000
FE0000000000000000
FE0000000000000000
FE0000000000000000
FE0000000000000000
FE0000000000000000
FE0000000000000000
FE0000000000000000
FE0000000000000000
FE0000000000000000
FE0000000000000000
FE0000000000000000
FE0000000000000000
FE0000000000000000
FE0000000000000000
FE0000000000000000
FE0000000000000000
FE0000000000000000
FE0000000000000000
FE0000000000000000
ENDCHAR
STARTCHAR 0047
ENCODING 71
SWIDTH 427 0
DWIDTH 95 0
BBX 82 144 5 0
BITMAP
00000003FFFFF000000000
0000007FFFFFFF80000000
000003FFFFFFFFF0000000
00000FFFFFFFFFFC000000
00003FFFFFFFFFFF000000
0000FFFFFFFFFFFFC00000
0001FFFFFFFFFFFFE00000
0007FFFC00000FFFF00000
000FFFC0000000FFFC0000
001FFF000000003FFE0000
003FFC000000000FFF0000
007FF00000000003FF8000
00FFE00000000001FFC000
00FF800000000000FFC000
01FF0000000000007FE000
03FE0000000000003FF000
07FC0000000000001FF000
07F80000000000000FF800
0FF800000000000007FC00
0FF000000000000003FC00
1FE000000000000003FE00
1FE000000000000001FE00
3FC000000000000000FE00
3FC000000000000000FF00
3F80000000000000007F00
7F80000000000000007F00
7F00000000000000007F80
7F00000000000000003F80
7F00000000000000003F80
FF00000000000000003F80
FE00000000000000003FC0
FE00000000000000001FC0
FE00000000000000001FC0
FE00000000000000001FC0
FE00000000000000001FC0
FE00000000000000001FC0
FE00000000000000001FC0
FE00000000000000000000
FE00000000000000000000
FE00000000000000000000
FE00000000000000000000
FE00000000000000000000
FE00000000000000000000
FE00000000000000000000
FE00000000000000000000
FE00000000000000000000
FE00000000000000000000
FE00000000000000000000
FE00000000000000000000
FE00000000000000000000
FE00000000000000000000
FE00000000000000000000
FE00000000000000000000
FE00000000000000000000
FE00000000000000000000
FE00000000000000000000
FE00000000000000000000
FE00000000000000000000
FE00000000000000000000
FE00000000000000000000
FE00000000000000000000
FE00000000000000000000
FE00000000000000000000
FE00000000000000000000
FE00000000000000000000
FE00000000000000000000
FE00000000000000000000
FE00000000000000000000
FE00000000000000000000
FE00000000000000000000
FE00000000000000000000
FE00000000000000000000
FE00000000000000000000
FE00007FFFFFF000000000
FE00007FFFFFFF80000000
FE00007FFFFFFFF0000000
FE00007FFFFFFFFC000000
FE00007FFFFFFFFF000000
FE00007FFFFFFFFFC00000
FE00007FFFFFFFFFE00000
FE00000000000FFFF00000
FE000000000000FFFC0000
FE0000000000003FFE0000
FE0000000000000FFF0000
FE00000000000003FF8000
FE00000000000001FFC000
FE000000000000007FC000
FE000000000000003FE000
FE000000000000001FF000
FE000000000000000FF800
FE0000000000000007F800
FE0000000000000007FC00
FE0000000000000003FC00
FE0000000000000001FE00
FE0000000000000001FE00
FE0000000000000000FF00
FE0000000000000000FF00
FE00000000000000007F00
FE00000000000000007F80
FE00000000000000003F80
FE00000000000000003F80
FE00000000000000003F80
FE00000000000000003FC0
FE00000000000000001FC0
FE00000000000000001FC0
FE00000000000000001FC0
FE00000000000000001FC0
FE00000000000000001FC0
FE00000000000000001FC0
FE00000000000000001FC0
FE00000000000000001FC0
FE00000000000000001FC0
FE00000000000000001FC0
FE00000000000000001FC0
7F00000000000000003FC0
7F00000000000000003FC0
7F00000000000000003FC0
7F00000000000000003FC0
7F80000000000000007FC0
3F80000000000000007FC0
3FC000000000000000FFC0
3FC000000000000000FFC0
1FE000000000000001FFC0
1FE000000000000001FFC0
0FF000000000000003FFC0
0FF800000000000007FFC0
07FC0000000000000FFFC0
03FC0000000000000FFFC0
03FE0000000000001FFFC0
01FF0000000000003FFFC0
00FFC00000000000FFDFC0
007FE00000000001FFDFC0
007FF00000000003FF9FC0
003FFC000000000FFF1FC0
001FFF000000003FFE1FC0
0007FFC0000000FFFC1FC0
0003FFFC00000FFFF81FC0
0001FFFFFFFFFFFFE01FC0
00007FFFFFFFFFFFC01FC0
00003FFFFFFFFFFF001FC0
00000FFFFFFFFFFC001FC0
000003FFFFFFFFF0001FC0
0000007FFFFFFF80001FC0
00000003FFFFF800001FC0
ENDCHAR
STARTCHAR 0048
ENCODING 72
SWIDTH 427 0
DWIDTH 95 0
BBX 82 144 5 0
BITMAP
FE00000000000000001FC0
FE00000000000000001FC0
FE00000000000000001FC0
FE00000000000000001FC0
FE00000000000000001FC0
FE00000000000000001FC0
FE00000000000000001FC0
FE00000000000000001FC0
FE00000000000000001FC0
FE00000000000000001FC0
FE00000000000000001FC0
FE00000000000000001FC0
FE00000000000000001FC0
FE00000000000000001FC0
FE00000000000000001FC0
FE00000000000000001FC0
FE00000000000000001FC0
FE00000000000000001FC0
FE00000000000000001FC0
FE00000000000000001FC0
FE00000000000000001FC0
FE00000000000000001FC0
FE00000000000000001FC0
FE00000000000000001FC0
FE00000000000000001FC0
FE00000000000000001FC0
FE00000000000000001FC0
FE00000000000000001FC0
FE00000000000000001FC0
FE00000000000000001FC0
FE00000000000000001FC0
FE00000000000000001FC0
FE00000000000000001FC0
FE00000000000000001FC0
FE00000000000000001FC0
FE00000000000000001FC0
FE00000000000000001FC0
FE00000000000000001FC0
FE00000000000000001FC0
FE00000000000000001FC0
FE00000000000000001FC0
FE00000000000000001FC0
FE00000000000000001FC0
FE00000000000000001FC0
FE00000000000000001FC0
FE00000000000000001FC0
FE00000000000000001FC0
FE00000000000000001FC0
FE00000000000000001FC0
FE00000000000000001FC0
FE00000000000000001FC0
FE00000000000000001FC0
FE00000000000000001FC0
FE00000000000000001FC0
FE00000000000000001FC0
FE00000000000000001FC0
FE00000000000000001FC0
FE00000000000000001FC0
FE000007FFFFF800001FC0
FE00007FFFFFFF80001FC0
FE0003FFFFFFFFF0001FC0
FE000FFFFFFFFFFC001FC0
FE003FFFFFFFFFFF001FC0
FE00FFFFFFFFFFFFC01FC0
FE01FFFFFFFFFFFFE01FC0
FE03FFFC00000FFFF01FC0
FE0FFFC0000000FFFC1FC0
FE1FFF000000003FFE1FC0
FE3FFC000000000FFF1FC0
FE7FF00000000003FF9FC0
FEFFE00000000001FF9FC0
FEFFC00000000000FFDFC0
FFFF0000000000003FFFC0
FFFE0000000000001FFFC0
FFFC0000000000000FFFC0
FFFC0000000000000FFFC0
FFF800000000000007FFC0
FFF000000000000003FFC0
FFE000000000000001FFC0
FFE000000000000001FFC0
FFC000000000000000FFC0
FFC000000000000000FFC0
FF80000000000000007FC0
FF80000000000000007FC0
FF00000000000000007FC0
FF00000000000000003FC0
FF00000000000000003FC0
FF00000000000000003FC0
FE00000000000000001FC0
FE00000000000000001FC0
FE00000000000000001FC0
FE00000000000000001FC0
FE00000000000000001FC0
FE00000000000000001FC0
FE00000000000000001FC0
FE00000000000000001FC0
FE00000000000000001FC0
FE00000000000000001FC0
FE00000000000000001FC0
FE00000000000000001FC0
FE00000000000000001FC0
FE00000000000000001FC0
FE00000000000000001FC0
FE00000000000000001FC0
FE00000000000000001FC0
FE00000000000000001FC0
FE00000000000000001FC0
FE00000000000000001FC0
FE00000000000000001FC0
FE00000000000000001FC0
FE00000000000000001FC0
FE00000000000000001FC0
FE00000000000000001FC0
FE00000000000000001FC0
FE00000000000000001FC0
FE00000000000000001FC0
FE00000000000000001FC0
FE00000000000000001FC0
FE00000000000000001FC0
FE00000000000000001FC0
FE00000000000000001FC0
FE00000000000000001FC0
FE00000000000000001FC0
FE00000000000000001FC0
FE00000000000000001FC0
FE00000000000000001FC0
FE00000000000000001FC0
FE00000000000000001FC0
FE00000000000000001FC0
FE00000000000000001FC0
FE00000000000000001FC0
FE00000000000000001FC0
FE00000000000000001FC0
FE00000000000000001FC0
FE00000000000000001FC0
FE00000000000000001FC0
FE00000000000000001FC0
FE00000000000000001FC0
FE00000000000000001FC0
FE00000000000000001FC0
FE00000000000000001FC0
FE00000000000000001FC0
FE00000000000000001FC0
FE00000000000000001FC0
ENDCHAR
STARTCHAR 0049
ENCODING 73
SWIDTH 121 0
DWIDTH 27 0
BBX 15 144 5 0
BITMAP
FFFE
FFFE
FFFE
FFFE
FFFE
FFFE
FFFE
0FE0
0FE0
0FE0
0FE0
0FE0
0FE0
0FE0
0FE0
0FE0
0FE0
0FE0
0FE0
0FE0
0FE0
0FE0
0FE0
0FE0
0FE0
0FE0
0FE0
0FE0
0FE0
0FE0
0FE0
0FE0
0FE0
0FE0
0FE0
0FE0
0FE0
0FE0
0FE0
0FE0
0FE0
0FE0
0FE0
0FE0
0FE0
0FE0
0FE0
0FE0
0FE0
0FE0
0FE0
0FE0
0FE0
0FE0
0FE0
0FE0
0FE0
0FE0
0FE0
0FE0
0FE0
0FE0
0FE0
0FE0
0FE0
0FE0
0FE0
0FE0
0FE0
0FE0
0FE0
0FE0
0FE0
0FE0
0FE0
0FE0
0FE0
0FE0
0FE0
0FE0
0FE0
0FE0
0FE0
0FE0
0FE0
0FE0
0FE0
0FE0
0FE0
0FE0
0FE0
0FE0
0FE0
0FE0
0FE0
0FE0
0FE0
0FE0
0FE0
0FE0
0FE0
0FE0
0FE0
0FE0
0FE0
0FE0
0FE0
0FE0
0FE0
0FE0
0FE0
0FE0
0FE0
0FE0
0FE0
0FE0
0FE0
0FE0
0FE0
0FE0
0FE0
0FE0
0FE0
0FE0
0FE0
0FE0
0FE0
0FE0
0FE0
0FE0
0FE0
0FE0
0FE0
0FE0
0FE0
0FE0
0FE0
FFFE
FFFE
FFFE
FFFE
FFFE
FFFE
FFFE
ENDCHAR
STARTCHAR 004A
ENCODING 74
SWIDTH 427 0
DWIDTH 95 0
BBX 82 144 5 0
BITMAP
0000000000000000001FC0
0000000000000000001FC0
0000000000000000001FC0
0000000000000000001FC0
0000000000000000001FC0
0000000000000000001FC0
0000000000000000001FC0
0000000000000000001FC0
0000000000000000001FC0
0000000000000000001FC0
0000000000000000001FC0
0000000000000000001FC0
0000000000000000001FC0
0000000000000000001FC0
0000000000000000001FC0
0000000000000000001FC0
0000000000000000001FC0
0000000000000000001FC0
0000000000000000001FC0
0000000000000000001FC0
0000000000000000001FC0
0000000000000000001FC0
0000000000000000001FC0
0000000000000000001FC0
0000000000000000001FC0
0000000000000000001FC0
0000000000000000001FC0
0000000000000000001FC0
0000000000000000001FC0
0000000000000000001FC0
0000000000000000001FC0
0000000000000000001FC0
0000000000000000001FC0
0000000000000000001FC0
0000000000000000001FC0
0000000000000000001FC0
0000000000000000001FC0
0000000000000000001FC0
0000000000000000001FC0
0000000000000000001FC0
0000000000000000001FC0
0000000000000000001FC0
0000000000000000001FC0
0000000000000000001FC0
0000000000000000001FC0
0000000000000000001FC0
0000000000000000001FC0
0000000000000000001FC0
0000000000000000001FC0
0000000000000000001FC0
0000000000000000001FC0
0000000000000000001FC0
0000000000000000001FC0
0000000000000000001FC0
0000000000000000001FC0
0000000000000000001FC0
0000000000000000001FC0
0000000000000000001FC0
0000000000000000001FC0
0000000000000000001FC0
0000000000000000001FC0
0000000000000000001FC0
0000000000000000001FC0
0000000000000000001FC0
0000000000000000001FC0
0000000000000000001FC0
0000000000000000001FC0
0000000000000000001FC0
0000000000000000001FC0
0000000000000000001FC0
0000000000000000001FC0
0000000000000000001FC0
0000000000000000001FC0
0000000000000000001FC0
0000000000000000001FC0
0000000000000000001FC0
0000000000000000001FC0
0000000000000000001FC0
0000000000000000001FC0
0000000000000000001FC0
0000000000000000001FC0
0000000000000000001FC0
0000000000000000001FC0
0000000000000000001FC0
0000000000000000001FC0
0000000000000000001FC0
0000000000000000001FC0
0000000000000000001FC0
0000000000000000001FC0
0000000000000000001FC0
0000000000000000001FC0
0000000000000000001FC0
0000000000000000001FC0
0000000000000000001FC0
0000000000000000001FC0
0000000000000000001FC0
0000000000000000001FC0
0000000000000000001FC0
0000000000000000001FC0
0000000000000000001FC0
0000000000000000001FC0
0000000000000000001FC0
0000000000000000001FC0
0000000000000000001FC0
0000000000000000001FC0
0000000000000000001FC0
0000000000000000001FC0
0000000000000000001FC0
FE00000000000000001FC0
FE00000000000000001FC0
FE00000000000000001FC0
FE00000000000000001FC0
FE00000000000000001FC0
FF00000000000000003FC0
FF00000000000000003F80
7F00000000000000003F80
7F00000000000000003F80
7F80000000000000007F80
7F80000000000000007F80
3F80000000000000007F00
3FC000000000000000FF00
3FC000000000000000FF00
1FE000000000000001FE00
1FE000000000000001FE00
0FF000000000000003FC00
0FF800000000000007FC00
07FC0000000000000FF800
07FC0000000000001FF800
03FE0000000000001FF000
01FF0000000000003FE000
00FFC00000000000FFC000
00FFE00000000001FFC000
007FF00000000003FF8000
003FFC000000000FFF0000
001FFF000000003FFE0000
000FFFC0000000FFFC0000
0003FFFC00000FFFF00000
0001FFFFFFFFFFFFE00000
0000FFFFFFFFFFFFC00000
00003FFFFFFFFFFF000000
00000FFFFFFFFFFC000000
000003FFFFFFFFF0000000
0000007FFFFFFF80000000
00000003FFFFF800000000
ENDCHAR
STARTCHAR 004B
ENCODING 75
SWIDTH 427 0
DWIDTH 95 0
BBX 82 144 5 0
BITMAP
FE00000000000000001FC0
FE00000000000000001FC0
FE00000000000000001FC0
FE00000000000000001FC0
FE00000000000000001FC0
FE00000000000000001FC0
FE00000000000000001FC0
FE00000000000000001FC0
FE00000000000000001FC0
FE00000000000000001FC0
FE00000000000000001FC0
FE00000000000000001FC0
FE00000000000000001FC0
FE00000000000000001FC0
FE00000000000000001FC0
FE00000000000000001FC0
FE00000000000000001FC0
FE00000000000000001FC0
FE00000000000000001FC0
FE00000000000000001FC0
FE00000000000000001FC0
FE00000000000000001FC0
FE00000000000000001FC0
FE00000000000000001FC0
FE00000000000000001FC0
FE00000000000000001FC0
FE00000000000000001FC0
FE00000000000000001FC0
FE00000000000000001FC0
FE00000000000000001FC0
FE00000000000000001FC0
FE00000000000000001FC0
FE00000000000000001FC0
FE00000000000000001FC0
FE00000000000000001FC0
FE00000000000000001FC0
FE00000000000000001FC0
FE00000000000000001FC0
FE00000000000000001FC0
FE00000000000000001FC0
FE00000000000000001FC0
FE00000000000000001FC0
FE00000000000000003F80
FE00000000000000003F80
FE00000000000000003F80
FE00000000000000003F80
FE00000000000000007F00
FE00000000000000007F00
FE0000000000000000FF00
FE0000000000000000FE00
FE0000000000000001FE00
FE0000000000000001FC00
FE0000000000000003FC00
FE0000000000000007F800
FE0000000000000007F800
FE000000000000000FF000
FE000000000000001FF000
FE000000000000003FE000
FE000000000000007FC000
FE00000000000001FF8000
FE00000000000003FF0000
FE0000000000000FFE0000
FE0000000000003FFC0000
FE000000000000FFF80000
FE00000000000FFFF00000
FE000007FFFFFFFFE00000
FE00007FFFFFFFFF800000
FE0003FFFFFFFFFF000000
FE000FFFFFFFFFFC000000
FE003FFFFFFFFFFF000000
FE007FFFFFFFFFFFC00000
FE01FFFFFFFFFFFFE00000
FE03FFFC00000FFFF00000
FE07FFC0000000FFFC0000
FE0FFF000000003FFE0000
FE1FFC000000000FFF0000
FE3FF00000000003FF8000
FE7FE00000000001FF8000
FEFFC00000000000FFC000
FFFF0000000000003FE000
FFFE0000000000001FF000
FFFC0000000000001FF000
FFFC0000000000000FF800
FFF800000000000007FC00
FFF000000000000003FC00
FFE000000000000001FE00
FFE000000000000001FE00
FFC000000000000000FE00
FFC000000000000000FF00
FF80000000000000007F00
FF80000000000000007F00
FF00000000000000007F80
FF00000000000000003F80
FF00000000000000003F80
FF00000000000000003F80
FE00000000000000001FC0
FE00000000000000001FC0
FE00000000000000001FC0
FE00000000000000001FC0
FE00000000000000001FC0
FE00000000000000001FC0
FE00000000000000001FC0
FE00000000000000001FC0
FE00000000000000001FC0
FE00000000000000001FC0
FE00000000000000001FC0
FE00000000000000001FC0
FE00000000000000001FC0
FE00000000000000001FC0
FE00000000000000001FC0
FE00000000000000001FC0
FE00000000000000001FC0
FE00000000000000001FC0
FE00000000000000001FC0
FE00000000000000001FC0
FE00000000000000001FC0
FE00000000000000001FC0
FE00000000000000001FC0
FE00000000000000001FC0
FE00000000000000001FC0
FE00000000000000001FC0
FE00000000000000001FC0
FE00000000000000001FC0
FE00000000000000001FC0
FE00000000000000001FC0
FE00000000000000001FC0
FE00000000000000001FC0
FE00000000000000001FC0
FE00000000000000001FC0
FE00000000000000001FC0
FE00000000000000001FC0
FE00000000000000001FC0
FE00000000000000001FC0
FE00000000000000001FC0
FE00000000000000001FC0
FE00000000000000001FC0
FE00000000000000001FC0
FE00000000000000001FC0
FE00000000000000001FC0
FE00000000000000001FC0
FE00000000000000001FC0
FE00000000000000001FC0
FE00000000000000001FC0
FE00000000000000001FC0
ENDCHAR
STARTCHAR 004C
ENCODING 76
SWIDTH 378 0
DWIDTH 84 0
BBX 72 144 5 0
BITMAP
FE0000000000000000
FE0000000000000000
FE0000000000000000
FE0000000000000000
FE0000000000000000
FE0000000000000000
FE0000000000000000
FE0000000000000000
FE0000000000000000
FE0000000000000000
FE0000000000000000
FE0000000000000000
FE0000000000000000
FE0000000000000000
FE0000000000000000
FE0000000000000000
FE0000000000000000
FE0000000000000000
FE0000000000000000
FE0000000000000000
FE0000000000000000
FE0000000000000000
FE0000000000000000
FE0000000000000000
FE0000000000000000
FE0000000000000000
FE0000000000000000
FE0000000000000000
FE0000000000000000
FE0000000000000000
FE0000000000000000
FE0000000000000000
FE0000000000000000
FE0000000000000000
FE0000000000000000
FE0000000000000000
FE0000000000000000
FE0000000000000000
FE0000000000000000
FE0000000000000000
FE0000000000000000
FE0000000000000000
FE0000000000000000
FE0000000000000000
FE0000000000000000
FE0000000000000000
FE0000000000000000
FE0000000000000000
FE0000000000000000
FE0000000000000000
FE0000000000000000
FE0000000000000000
FE0000000000000000
FE0000000000000000
FE0000000000000000
FE0000000000000000
FE0000000000000000
FE0000000000000000
FE0000000000000000
FE0000000000000000
FE0000000000000000
FE0000000000000000
FE0000000000000000
FE0000000000000000
FE0000000000000000
FE0000000000000000
FE0000000000000000
FE0000000000000000
FE0000000000000000
FE0000000000000000
FE0000000000000000
FE0000000000000000
FE0000000000000000
FE0000000000000000
FE0000000000000000
FE0000000000000000
FE0000000000000000
FE0000000000000000
FE0000000000000000
FE0000000000000000
FE0000000000000000
FE0000000000000000
FE0000000000000000
FE0000000000000000
FE0000000000000000
FE0000000000000000
FE0000000000000000
FE0000000000000000
FE0000000000000000
FE0000000000000000
FE0000000000000000
FE0000000000000000
FE0000000000000000
FE0000000000000000
FE0000000000000000
FE0000000000000000
FE0000000000000000
FE0000000000000000
FE0000000000000000
FE0000000000000000
FE0000000000000000
FE0000000000000000
FE0000000000000000
FE0000000000000000
FE0000000000000000
FE0000000000000000
FE0000000000000000
FE0000000000000000
FE0000000000000000
FE0000000000000000
FE0000000000000000
FE0000000000000000
FE0000000000000000
FE0000000000000000
FE0000000000000000
FE0000000000000000
FE0000000000000000
FE0000000000000000
FE0000000000000000
FE0000000000000000
FE0000000000000000
FE0000000000000000
FE0000000000000000
FE0000000000000000
FE0000000000000000
FE0000000000000000
FE0000000000000000
FE0000000000000000
FE0000000000000000
FE0000000000000000
FE0000000000000000
FE0000000000000000
FE0000000000000000
FE0000000000000000
FE0000000000000000
FE0000000000000000
FE0000000000000000
FFFFFFFFFFFFFFFFFF
FFFFFFFFFFFFFFFFFF
FFFFFFFFFFFFFFFFFF
FFFFFFFFFFFFFFFFFF
FFFFFFFFFFFFFFFFFF
FFFFFFFFFFFFFFFFFF
FFFFFFFFFFFFFFFFFF
ENDCHAR
STARTCHAR 004D
ENCODING 77
SWIDTH 634 0
DWIDTH 141 0
BBX 129 144 5 0
BITMAP
00000000FFC0000000000007FE00000000
00000007FFFC00000000003FFFE0000000
0000007FFFFF8000000007FFFFFC000000
000003FFFFFFE00000003FFFFFFF000000
00001FFFFFFFF8000000FFFFFFFFC00000
00003FFFFFFFFC000003FFFFFFFFE00000
0000FFFFFFFFFE000007FFFFFFFFF80000
0003FFFFFFFFFF00001FFFFFFFFFFC0000
0007FFFC007FFF80003FFFE003FFFE0000
000FFFC00007FFC0007FFE00003FFF0000
001FFF000001FFE000FFF800000FFF8000
003FFC0000007FF001FFE0000003FF8000
007FF00000003FF803FF80000001FFC000
00FFE00000000FF807FF000000007FE000
01FF8000000007FC0FFC000000003FE000
01FF0000000003FE0FF8000000001FF000
03FE0000000001FE1FF0000000000FF000
07FC0000000001FF3FE0000000000FF800
07F80000000000FF3FC00000000007F800
0FF800000000007FFFC00000000003FC00
0FF000000000007FFF800000000003FC00
1FE000000000003FFF000000000001FE00
1FE000000000003FFF000000000001FE00
3FC000000000001FFE000000000000FE00
3FC000000000001FFE000000000000FF00
3F8000000000001FFC000000000000FF00
7F8000000000000FFC0000000000007F00
7F0000000000000FF80000000000007F00
7F0000000000000FF80000000000007F00
7F0000000000000FF80000000000007F80
FF00000000000007F80000000000003F80
FE00000000000007F00000000000003F80
FE00000000000007F00000000000003F80
FE00000000000007F00000000000003F80
FE00000000000007F00000000000003F80
FE00000000000007F00000000000003F80
FE00000000000007F00000000000003F80
FE00000000000007F00000000000003F80
FE00000000000007F00000000000003F80
FE00000000000007F00000000000003F80
FE00000000000007F00000000000003F80
FE00000000000007F00000000000003F80
FE00000000000007F00000000000003F80
FE00000000000007F00000000000003F80
FE00000000000007F00000000000003F80
FE00000000000007F00000000000003F80
FE00000000000007F00000000000003F80
FE00000000000007F00000000000003F80
FE00000000000007F00000000000003F80
FE00000000000007F00000000000003F80
FE00000000000007F00000000000003F80
FE00000000000007F00000000000003F80
FE00000000000007F00000000000003F80
FE00000000000007F00000000000003F80
FE00000000000007F00000000000003F80
FE00000000000007F00000000000003F80
FE00000000000007F00000000000003F80
FE00000000000007F00000000000003F80
FE00000000000007F00000000000003F80
FE00000000000007F00000000000003F80
FE00000000000007F00000000000003F80
FE00000000000007F00000000000003F80
FE00000000000007F00000000000003F80
FE00000000000007F00000000000003F80
FE00000000000007F00000000000003F80
FE00000000000007F00000000000003F80
FE00000000000007F00000000000003F80
FE00000000000007F00000000000003F80
FE00000000000007F00000000000003F80
FE00000000000007F00000000000003F80
FE00000000000007F00000000000003F80
FE00000000000007F00000000000003F80
FE00000000000007F00000000000003F80
FE00000000000007F00000000000003F80
FE00000000000007F00000000000003F80
FE00000000000007F00000000000003F80
FE00000000000007F00000000000003F80
FE00000000000007F00000000000003F80
FE00000000000007F00000000000003F80
FE00000000000007F00000000000003F80
FE00000000000007F00000000000003F80
FE00000000000007F00000000000003F80
FE00000000000007F00000000000003F80
FE00000000000007F00000000000003F80
FE00000000000007F00000000000003F80
FE00000000000007F00000000000003F80
FE00000000000007F00000000000003F80
FE00000000000007F00000000000003F80
FE00000000000007F00000000000003F80
FE00000000000007F00000000000003F80
FE00000000000007F00000000000003F80
FE00000000000007F00000000000003F80
FE00000000000007F00000000000003F80
FE00000000000007F00000000000003F80
FE00000000000007F00000000000003F80
FE00000000000007F00000000000003F80
FE00000000000007F00000000000003F80
FE00000000000007F00000000000003F80
FE00000000000007F00000000000003F80
FE00000000000007F00000000000003F80
FE00000000000007F00000000000003F80
FE00000000000007F00000000000003F80
FE00000000000007F00000000000003F80
FE00000000000007F00000000000003F80
FE00000000000007F00000000000003F80
FE00000000000007F00000000000003F80
FE00000000000007F00000000000003F80
FE00000000000007F00000000000003F80
FE00000000000007F00000000000003F80
FE00000000000007F00000000000003F80
FE00000000000007F00000000000003F80
FE00000000000007F00000000000003F80
FE00000000000007F00000000000003F80
FE00000000000007F00000000000003F80
FE00000000000007F00000000000003F80
FE00000000000007F00000000000003F80
FE00000000000007F00000000000003F80
FE00000000000007F00000000000003F80
FE00000000000007F00000000000003F80
FE00000000000007F00000000000003F80
FE00000000000007F00000000000003F80
FE00000000000007F00000000000003F80
FE00000000000007F00000000000003F80
FE00000000000007F00000000000003F80
FE00000000000007F00000000000003F80
FE00000000000007F00000000000003F80
FE00000000000007F00000000000003F80
FE00000000000007F00000000000003F80
FE00000000000007F00000000000003F80
FE00000000000007F00000000000003F80
FE00000000000007F00000000000003F80
FE00000000000007F00000000000003F80
FE00000000000007F00000000000003F80
FE00000000000007F00000000000003F80
FE00000000000007F00000000000003F80
FE00000000000007F00000000000003F80
FE00000000000007F00000000000003F80
FE00000000000007F00000000000003F80
FE00000000000007F00000000000003F80
FE00000000000007F00000000000003F80
FE00000000000007F00000000000003F80
FE00000000000007F00000000000003F80
FE00000000000007F00000000000003F80
FE00000000000007F00000000000003F80
ENDCHAR
STARTCHAR 004E
ENCODING 78
SWIDTH 427 0
DWIDTH 95 0
BBX 82 144 5 0
BITMAP
FE00000000000000001FC0
FE00000000000000001FC0
FF00000000000000001FC0
FF00000000000000001FC0
FF80000000000000001FC0
FF80000000000000001FC0
FFC0000000000000001FC0
FFC0000000000000001FC0
FFE0000000000000001FC0
FFE0000000000000001FC0
FFF0000000000000001FC0
FFF0000000000000001FC0
FFF8000000000000001FC0
FFF8000000000000001FC0
FFFC000000000000001FC0
FFFE000000000000001FC0
FFFE000000000000001FC0
FEFF000000000000001FC0
FEFF000000000000001FC0
FE7F800000000000001FC0
FE7F800000000000001FC0
FE3FC00000000000001FC0
FE3FC00000000000001FC0
FE1FE00000000000001FC0
FE1FE00000000000001FC0
FE0FF00000000000001FC0
FE0FF00000000000001FC0
FE07F80000000000001FC0
FE03F80000000000001FC0
FE03FC0000000000001FC0
FE01FE0000000000001FC0
FE01FE0000000000001FC0
FE00FF0000000000001FC0
FE00FF0000000000001FC0
FE007F8000000000001FC0
FE007F8000000000001FC0
FE003FC000000000001FC0
FE003FC000000000001FC0
FE001FE000000000001FC0
FE001FE000000000001FC0
FE000FF000000000001FC0
FE000FF000000000001FC0
FE0007F800000000001FC0
FE0003F800000000001FC0
FE0003FC00000000001FC0
FE0001FE00000000001FC0
FE0001FE00000000001FC0
FE0000FF00000000001FC0
FE0000FF00000000001FC0
FE00007F80000000001FC0
FE00007F80000000001FC0
FE00003FC0000000001FC0
FE00003FC0000000001FC0
FE00001FE0000000001FC0
FE00001FE0000000001FC0
FE00000FF0000000001FC0
FE00000FF0000000001FC0
FE000007F8000000001FC0
FE000003F8000000001FC0
FE000003FC000000001FC0
FE000001FC000000001FC0
FE000001FE000000001FC0
FE000000FF000000001FC0
FE000000FF000000001FC0
FE0000007F800000001FC0
FE0000007F800000001FC0
FE0000003FC00000001FC0
FE0000003FC00000001FC0
FE0000001FE00000001FC0
FE0000001FE00000001FC0
FE0000000FF00000001FC0
FE0000000FF00000001FC0
FE00000007F80000001FC0
FE00000007F80000001FC0
FE00000003FC0000001FC0
FE00000001FC0000001FC0
FE00000001FE0000001FC0
FE00000000FF0000001FC0
FE00000000FF0000001FC0
FE000000007F8000001FC0
FE000000007F8000001FC0
FE000000003FC000001FC0
FE000000003FC000001FC0
FE000000001FE000001FC0
FE000000001FE000001FC0
FE000000000FF000001FC0
FE000000000FF000001FC0
FE0000000007F800001FC0
FE0000000007F800001FC0
FE0000000003FC00001FC0
FE0000000001FC00001FC0
FE0000000001FE00001FC0
FE0000000000FF00001FC0
FE0000000000FF00001FC0
FE00000000007F80001FC0
FE00000000007F80001FC0
FE00000000003FC0001FC0
FE00000000003FC0001FC0
FE00000000001FE0001FC0
FE00000000001FE0001FC0
FE00000000000FF0001FC0
FE00000000000FF0001FC0
FE000000000007F8001FC0
FE000000000007F8001FC0
FE000000000003FC001FC0
FE000000000001FC001FC0
FE000000000001FE001FC0
FE000000000000FE001FC0
FE000000000000FF001FC0
FE0000000000007F801FC0
FE0000000000007F801FC0
FE0000000000003FC01FC0
FE0000000000003FC01FC0
FE0000000000001FE01FC0
FE0000000000001FE01FC0
FE0000000000000FF01FC0
FE0000000000000FF01FC0
FE00000000000007F81FC0
FE00000000000007F81FC0
FE00000000000003FC1FC0
FE00000000000003FC1FC0
FE00000000000001FE1FC0
FE00000000000000FE1FC0
FE00000000000000FF1FC0
FE000000000000007F9FC0
FE000000000000007F9FC0
FE000000000000003FDFC0
FE000000000000003FDFC0
FE000000000000001FFFC0
FE000000000000001FFFC0
FE000000000000000FFFC0
FE000000000000000FFFC0
FE0000000000000007FFC0
FE0000000000000007FFC0
FE0000000000000003FFC0
FE0000000000000003FFC0
FE0000000000000001FFC0
FE0000000000000000FFC0
FE0000000000000000FFC0
FE00000000000000007FC0
FE00000000000000007FC0
FE00000000000000003FC0
FE00000000000000003FC0
FE00000000000000001FC0
ENDCHAR
STARTCHAR 004F
ENCODING 79
SWIDTH 427 0
DWIDTH 95 0
BBX 82 144 5 0
BITMAP
00000003FFFFF000000000
0000007FFFFFFF80000000
000003FFFFFFFFF0000000
00000FFFFFFFFFFC000000
00003FFFFFFFFFFF000000
0000FFFFFFFFFFFFC00000
0001FFFFFFFFFFFFE00000
0007FFFC00000FFFF80000
000FFFC0000000FFFC0000
001FFF000000003FFE0000
003FFC000000000FFF0000
007FF00000000003FF8000
00FFE00000000001FFC000
00FF8000000000007FE000
01FF0000000000003FE000
03FE0000000000001FF000
07FC0000000000000FF800
07F800000000000007F800
0FF800000000000007FC00
0FF000000000000003FC00
1FE000000000000001FE00
1FE000000000000001FE00
3FC000000000000000FF00
3FC000000000000000FF00
3F80000000000000007F00
7F80000000000000007F80
7F00000000000000007F80
7F00000000000000003F80
7F00000000000000003F80
FF00000000000000003F80
FE00000000000000001FC0
FE00000000000000001FC0
FE00000000000000001FC0
FE00000000000000001FC0
FE00000000000000001FC0
FE00000000000000001FC0
FE00000000000000001FC0
FE00000000000000001FC0
FE00000000000000001FC0
FE00000000000000001FC0
FE00000000000000001FC0
FE00000000000000001FC0
FE00000000000000001FC0
FE00000000000000001FC0
FE00000000000000001FC0
FE00000000000000001FC0
FE00000000000000001FC0
FE00000000000000001FC0
FE00000000000000001FC0
FE00000000000000001FC0
FE00000000000000001FC0
FE00000000000000001FC0
FE00000000000000001FC0
FE00000000000000001FC0
FE00000000000000001FC0
FE00000000000000001FC0
FE00000000000000001FC0
FE00000000000000001FC0
FE00000000000000001FC0
FE00000000000000001FC0
FE00000000000000001FC0
FE00000000000000001FC0
FE00000000000000001FC0
FE00000000000000001FC0
FE00000000000000001FC0
FE00000000000000001FC0
FE00000000000000001FC0
FE00000000000000001FC0
FE00000000000000001FC0
FE00000000000000001FC0
FE00000000000000001FC0
FE00000000000000001FC0
FE00000000000000001FC0
FE00000000000000001FC0
FE00000000000000001FC0
FE00000000000000001FC0
FE00000000000000001FC0
FE00000000000000001FC0
FE00000000000000001FC0
FE00000000000000001FC0
FE00000000000000001FC0
FE00000000000000001FC0
FE00000000000000001FC0
FE00000000000000001FC0
FE00000000000000001FC0
FE00000000000000001FC0
FE00000000000000001FC0
FE00000000000000001FC0
FE00000000000000001FC0
FE00000000000000001FC0
FE00000000000000001FC0
FE00000000000000001FC0
FE00000000000000001FC0
FE00000000000000001FC0
FE00000000000000001FC0
FE00000000000000001FC0
FE00000000000000001FC0
FE00000000000000001FC0
FE00000000000000001FC0
FE00000000000000001FC0
FE00000000000000001FC0
FE00000000000000001FC0
FE00000000000000001FC0
FE00000000000000001FC0
FE00000000000000001FC0
FE00000000000000001FC0
FE00000000000000001FC0
FE00000000000000001FC0
FE00000000000000001FC0
FE00000000000000001FC0
FE00000000000000001FC0
FE00000000000000001FC0
FE00000000000000001FC0
FE00000000000000003FC0
7F00000000000000003F80
7F00000000000000003F80
7F00000000000000003F80
7F00000000000000007F80
7F80000000000000007F80
3F80000000000000007F00
3FC000000000000000FF00
3FC000000000000000FF00
1FE000000000000001FE00
1FE000000000000001FE00
0FF000000000000003FC00
0FF800000000000007FC00
07FC0000000000000FF800
03FC0000000000001FF800
03FE0000000000001FF000
01FF0000000000003FE000
00FFC00000000000FFC000
007FE00000000001FFC000
007FF00000000003FF8000
003FFC000000000FFF0000
001FFF000000003FFE0000
0007FFC0000000FFFC0000
0003FFFC00000FFFF00000
0001FFFFFFFFFFFFE00000
00007FFFFFFFFFFFC00000
00003FFFFFFFFFFF000000
00000FFFFFFFFFFC000000
000003FFFFFFFFF0000000
0000007FFFFFFF80000000
00000003FFFFF800000000
ENDCHAR
STARTCHAR 0050
ENCODING 80
SWIDTH 427 0
DWIDTH 95 0
BBX 82 144 5 0
BITMAP
FFFFFFFFFFFFF000000000
FFFFFFFFFFFFFF80000000
FFFFFFFFFFFFFFF0000000
FFFFFFFFFFFFFFFC000000
FFFFFFFFFFFFFFFF000000
FFFFFFFFFFFFFFFF800000
FFFFFFFFFFFFFFFFE00000
FE00000000000FFFF00000
FE000000000000FFF80000
FE0000000000003FFC0000
FE0000000000000FFE0000
FE00000000000003FF0000
FE00000000000001FF8000
FE00000000000000FFC000
FE000000000000003FE000
FE000000000000001FF000
FE000000000000000FF000
FE000000000000000FF800
FE0000000000000007F800
FE0000000000000003FC00
FE0000000000000001FE00
FE0000000000000001FE00
FE0000000000000000FE00
FE0000000000000000FF00
FE00000000000000007F00
FE00000000000000007F00
FE00000000000000007F80
FE00000000000000003F80
FE00000000000000003F80
FE00000000000000003F80
FE00000000000000003FC0
FE00000000000000001FC0
FE00000000000000001FC0
FE00000000000000001FC0
FE00000000000000001FC0
FE00000000000000001FC0
FE00000000000000001FC0
FE00000000000000001FC0
FE00000000000000001FC0
FE00000000000000001FC0
FE00000000000000001FC0
FE00000000000000001FC0
FE00000000000000001FC0
FE00000000000000001FC0
FE00000000000000001FC0
FE00000000000000001FC0
FE00000000000000001FC0
FE00000000000000001FC0
FE00000000000000001FC0
FE00000000000000001FC0
FE00000000000000001FC0
FE00000000000000001FC0
FE00000000000000001FC0
FE00000000000000001FC0
FE00000000000000001FC0
FE00000000000000001FC0
FE00000000000000003FC0
FF00000000000000003F80
FF00000000000000003F80
FF00000000000000003F80
FF80000000000000007F80
FF80000000000000007F80
FF80000000000000007F00
FFC000000000000000FF00
FFC000000000000000FF00
FFE000000000000001FE00
FFE000000000000003FE00
FFF000000000000003FC00
FFF800000000000007FC00
FFFC0000000000000FF800
FFFE0000000000001FF000
FFFF0000000000003FF000
FFFF8000000000007FE000
FEFFC00000000000FFC000
FE7FE00000000001FF8000
FE7FF00000000003FF8000
FE3FFC000000000FFF0000
FE1FFF000000003FFE0000
FE0FFFC0000000FFFC0000
FE03FFFC00000FFFF00000
FE01FFFFFFFFFFFFE00000
FE00FFFFFFFFFFFFC00000
FE003FFFFFFFFFFF000000
FE000FFFFFFFFFFC000000
FE0003FFFFFFFFF0000000
FE00007FFFFFFF80000000
FE000007FFFFF800000000
FE00000000000000000000
FE00000000000000000000
FE00000000000000000000
FE00000000000000000000
FE00000000000000000000
FE00000000000000000000
FE00000000000000000000
FE00000000000000000000
FE00000000000000000000
FE00000000000000000000
FE00000000000000000000
FE00000000000000000000
FE00000000000000000000
FE00000000000000000000
FE00000000000000000000
FE00000000000000000000
FE00000000000000000000
FE00000000000000000000
FE00000000000000000000
FE00000000000000000000
FE00000000000000000000
FE00000000000000000000
FE00000000000000000000
FE00000000000000000000
FE00000000000000000000
FE00000000000000000000
FE00000000000000000000
FE00000000000000000000
FE00000000000000000000
FE00000000000000000000
FE00000000000000000000
FE00000000000000000000
FE00000000000000000000
FE00000000000000000000
FE00000000000000000000
FE00000000000000000000
FE00000000000000000000
FE00000000000000000000
FE00000000000000000000
FE00000000000000000000
FE00000000000000000000
FE00000000000000000000
FE00000000000000000000
FE00000000000000000000
FE00000000000000000000
FE00000000000000000000
FE00000000000000000000
FE00000000000000000000
FE00000000000000000000
FE00000000000000000000
FE00000000000000000000
FE00000000000000000000
FE00000000000000000000
FE00000000000000000000
FE00000000000000000000
FE00000000000000000000
FE00000000000000000000
ENDCHAR
STARTCHAR 0051
ENCODING 81
SWIDTH 427 0
DWIDTH 95 0
BBX 82 173 5 -29
BITMAP
00000003FFFFF000000000
0000007FFFFFFF80000000
000003FFFFFFFFF0000000
00000FFFFFFFFFFC000000
00003FFFFFFFFFFF000000
0000FFFFFFFFFFFFC00000
0001FFFFFFFFFFFFE00000
0007FFFC00000FFFF80000
000FFFC0000000FFFC0000
001FFF000000003FFE0000
003FFC000000000FFF0000
007FF00000000003FF8000
00FFE00000000001FFC000
01FFC00000000000FFE000
01FF0000000000003FE000
03FE0000000000001FF000
07FC0000000000000FF800
07FC00000000000007F800
0FF800000000000007FC00
0FF000000000000003FC00
1FE000000000000001FE00
1FE000000000000001FE00
3FC000000000000000FF00
3FC000000000000000FF00
3F80000000000000007F00
7F80000000000000007F80
7F00000000000000003F80
7F00000000000000003F80
7F00000000000000003F80
FF00000000000000003FC0
FE00000000000000001FC0
FE00000000000000001FC0
FE00000000000000001FC0
FE00000000000000001FC0
FE00000000000000001FC0
FE00000000000000001FC0
FE00000000000000001FC0
FE00000000000000001FC0
FE00000000000000001FC0
FE00000000000000001FC0
FE00000000000000001FC0
FE00000000000000001FC0
FE00000000000000001FC0
FE00000000000000001FC0
FE00000000000000001FC0
FE00000000000000001FC0
FE00000000000000001FC0
FE00000000000000001FC0
FE00000000000000001FC0
FE00000000000000001FC0
FE00000000000000001FC0
FE00000000000000001FC0
FE00000000000000001FC0
FE00000000000000001FC0
FE00000000000000001FC0
FE00000000000000001FC0
FE00000000000000001FC0
FE00000000000000001FC0
FE00000000000000001FC0
FE00000000000000001FC0
FE00000000000000001FC0
FE00000000000000001FC0
FE00000000000000001FC0
FE00000000000000001FC0
FE00000000000000001FC0
FE00000000000000001FC0
FE00000000000000001FC0
FE00000000000000001FC0
FE00000000000000001FC0
FE00000000000000001FC0
FE00000000000000001FC0
FE00000000000000001FC0
FE00000000000000001FC0
FE00000000000000001FC0
FE00000003000000001FC0
FE00000007800000001FC0
FE00000007E00000001FC0
FE0000000FF00000001FC0
FE0000000FF00000001FC0
FE0000001FE00000001FC0
FE0000001FE00000001FC0
FE0000003FC00000001FC0
FE0000003FC00000001FC0
FE0000003F800000001FC0
FE0000007F800000001FC0
FE0000007F800000001FC0
FE0000007F000000001FC0
FE0000007F000000001FC0
FE000000FF000000001FC0
FE000000FE000000001FC0
FE000000FE000000001FC0
FE000000FE000000001FC0
FE000000FE000000001FC0
FE000000FE000000001FC0
FE000000FE000000001FC0
FE000000FE000000001FC0
FE000000FE000000001FC0
FE000000FE000000001FC0
FE000000FE000000001FC0
FE000000FE000000001FC0
FE000000FF000000001FC0
FE0000007F000000001FC0
FE0000007F000000001FC0
FE0000007F000000001FC0
FE0000007F800000001FC0
FE0000003F800000001FC0
FE0000003F800000001FC0
FE0000003FC00000001FC0
FE0000001FC00000001FC0
FE0000001FE00000001FC0
FE0000000FF00000001FC0
FE0000000FF80000001FC0
FE00000007F80000001FC0
FE00000007FC0000003FC0
7F00000003FE0000003F80
7F00000001FF0000003F80
7F00000001FFC000003F80
7F00000000FFE000007F80
7F800000007FF800007F00
3F800000003FFC0000FF00
3FC00000000FFF0000FF00
3FC000000007FF8001FE00
1FE000000003FFE001FE00
1FE000000000FFF003FC00
0FF0000000007FFC07FC00
0FF8000000003FFE07F800
07FC000000000FFF0FF800
03FE0000000007FF9FF000
03FE0000000001FFFFE000
01FF0000000000FFFFE000
00FFC0000000007FFFC000
007FE0000000003FFF8000
003FF0000000001FFF0000
001FFC000000000FFE0000
000FFF000000003FFE0000
0007FFC0000001FFFE0000
0003FFFC00000FFFFF0000
0001FFFFFFFFFFFFFF0000
00007FFFFFFFFFFFFF8000
00003FFFFFFFFFFE3F8000
00000FFFFFFFFFF83FC000
000001FFFFFFFFE01FC000
0000007FFFFFFF801FC000
00000003FFFFF8001FE000
00000000000000000FE000
00000000000000000FE000
00000000000000000FE000
00000000000000000FF000
000000000000000007F000
000000000000000007F000
000000000000000007F000
000000000000000007F000
000000000000000007F000
000000000000000007F000
000000000000000007F000
000000000000000007F000
000000000000000007F000
000000000000000007F000
00000000000000000FF000
00000000000000000FE000
00000000000000000FE000
00000000000000000FE000
00000000000000001FE000
00000000000000001FC000
00000000000000003FC000
00000000000000003FC000
00000000000000007F8000
0000000000000000FF8000
0000000000000000FF0000
0000000000000000FF0000
00000000000000003E0000
00000000000000001C0000
0000000000000000040000
ENDCHAR
STARTCHAR 0052
ENCODING 82
SWIDTH 427 0
DWIDTH 95 0
BBX 82 144 5 0
BITMAP
FFFFFFFFFFFFF000000000
FFFFFFFFFFFFFF80000000
FFFFFFFFFFFFFFF0000000
FFFFFFFFFFFFFFFC000000
FFFFFFFFFFFFFFFF000000
FFFFFFFFFFFFFFFFC00000
FFFFFFFFFFFFFFFFE00000
FE00000000000FFFF80000
FE000000000000FFFC0000
FE0000000000003FFE0000
FE0000000000000FFF0000
FE00000000000003FF8000
FE00000000000001FFC000
FE000000000000007FE000
FE000000000000003FE000
FE000000000000001FF000
FE000000000000000FF800
FE0000000000000007F800
FE0000000000000007FC00
FE0000000000000003FC00
FE0000000000000001FE00
FE0000000000000001FE00
FE0000000000000000FF00
FE0000000000000000FF00
FE00000000000000007F00
FE00000000000000007F80
FE00000000000000003F80
FE00000000000000003F80
FE00000000000000003F80
FE00000000000000003F80
FE00000000000000001FC0
FE00000000000000001FC0
FE00000000000000001FC0
FE00000000000000001FC0
FE00000000000000001FC0
FE00000000000000001FC0
FE00000000000000001FC0
FE00000000000000001FC0
FE00000000000000001FC0
FE00000000000000001FC0
FE00000000000000001FC0
FE00000000000000003FC0
FE00000000000000003F80
FE00000000000000003F80
FE00000000000000003F80
FE00000000000000007F80
FE00000000000000007F80
FE0000000000000000FF00
FE0000000000000000FF00
FE0000000000000001FE00
FE0000000000000001FE00
FE0000000000000003FE00
FE0000000000000007FC00
FE0000000000000007FC00
FE000000000000000FF800
FE000000000000001FF000
FE000000000000003FF000
FE000000000000007FE000
FE00000000000001FFC000
FE00000000000003FFC000
FE0000000000000FFF8000
FE0000000000003FFF0000
FE000000000000FFFE0000
FE00000000000FFFFC0000
FE000007FFFFFFFFF00000
FE00007FFFFFFFFFE00000
FE0003FFFFFFFFFFC00000
FE000FFFFFFFFFFF000000
FE003FFFFFFFFFFC000000
FE007FFFFFFFFFF8000000
FE01FFFFFFFFFFFC000000
FE03FFFC00007FFF000000
FE07FFE000000FFF800000
FE0FFF00000001FFE00000
FE1FFC000000007FF00000
FE3FF8000000001FF80000
FE7FE0000000000FFC0000
FEFFC00000000007FE0000
FFFF800000000001FF0000
FFFF000000000000FF0000
FFFE000000000000FF8000
FFFC0000000000007FC000
FFF80000000000003FC000
FFF00000000000001FE000
FFF00000000000000FE000
FFE00000000000000FF000
FFC000000000000007F000
FFC000000000000007F800
FF8000000000000003F800
FF8000000000000003F800
FF8000000000000003FC00
FF0000000000000001FC00
FF0000000000000001FC00
FF0000000000000001FC00
FF0000000000000001FE00
FE0000000000000000FE00
FE0000000000000000FE00
FE0000000000000000FE00
FE0000000000000000FE00
FE0000000000000000FE00
FE0000000000000000FE00
FE0000000000000000FE00
FE0000000000000000FE00
FE0000000000000000FE00
FE0000000000000000FE00
FE0000000000000000FE00
FE0000000000000000FE00
FE0000000000000000FE00
FE0000000000000000FE00
FE0000000000000000FE00
FE0000000000000000FE00
FE0000000000000000FE00
FE0000000000000000FE00
FE0000000000000000FE00
FE0000000000000000FE00
FE0000000000000000FE00
FE0000000000000000FE00
FE0000000000000000FE00
FE0000000000000000FE00
FE0000000000000000FE00
FE0000000000000000FE00
FE0000000000000000FE00
FE0000000000000000FE00
FE0000000000000000FE00
FE0000000000000000FE00
FE0000000000000000FE00
FE0000000000000000FE00
FE0000000000000000FE00
FE0000000000000000FE00
FE0000000000000000FE00
FE0000000000000000FE00
FE0000000000000000FE00
FE0000000000000000FE00
FE0000000000000000FE00
FE0000000000000000FE00
FE0000000000000000FE00
FE0000000000000000FE00
FE0000000000000000FE00
FE0000000000000000FE00
FE0000000000000000FE00
FE0000000000000000FE00
FE0000000000000000FE00
FE0000000000000000FE00
FE0000000000000000FE00
ENDCHAR
STARTCHAR 0053
ENCODING 83
SWIDTH 427 0
DWIDTH 95 0
BBX 82 144 5 0
BITMAP
00000003FFFFF000000000
0000007FFFFFFF80000000
000003FFFFFFFFF0000000
00000FFFFFFFFFFC000000
00003FFFFFFFFFFF000000
0000FFFFFFFFFFFFC00000
0001FFFFFFFFFFFFE00000
0007FFFC00000FFFF80000
000FFFC0000000FFFC0000
001FFF000000003FFE0000
003FFC000000000FFF0000
007FF00000000003FF8000
00FFE00000000001FFC000
01FFC00000000000FFE000
01FF0000000000003FE000
03FE0000000000001FF000
07FC0000000000000FF800
07FC0000000000000FF800
0FF800000000000007FC00
0FF000000000000003FC00
1FE000000000000001FE00
1FE000000000000001FE00
3FC000000000000000FF00
3FC000000000000000FF00
3F80000000000000007F00
7F80000000000000007F80
7F00000000000000007F80
7F00000000000000003F80
7F00000000000000003F80
FF00000000000000003F80
FF00000000000000003FC0
FE00000000000000001FC0
FE00000000000000001FC0
FE00000000000000001FC0
FE00000000000000001FC0
FE00000000000000001FC0
FE00000000000000000000
FE00000000000000000000
FE00000000000000000000
FE00000000000000000000
FF00000000000000000000
FF00000000000000000000
7F00000000000000000000
7F00000000000000000000
7F00000000000000000000
7F80000000000000000000
3F80000000000000000000
3FC0000000000000000000
3FC0000000000000000000
1FE0000000000000000000
1FE0000000000000000000
0FF0000000000000000000
0FF8000000000000000000
07F8000000000000000000
07FC000000000000000000
03FE000000000000000000
01FF000000000000000000
01FF800000000000000000
00FFE00000000000000000
007FF00000000000000000
003FFC0000000000000000
001FFF0000000000000000
000FFFC000000000000000
0007FFFC00000000000000
0001FFFFFFFFF000000000
0000FFFFFFFFFF80000000
00003FFFFFFFFFF0000000
00000FFFFFFFFFFC000000
000003FFFFFFFFFF000000
0000007FFFFFFFFFC00000
00000003FFFFFFFFE00000
0000000000000FFFF00000
00000000000000FFF80000
000000000000003FFE0000
000000000000000FFF0000
0000000000000003FF8000
0000000000000001FF8000
0000000000000000FFC000
00000000000000007FE000
00000000000000003FF000
00000000000000001FF000
00000000000000000FF800
000000000000000007FC00
000000000000000003FC00
000000000000000003FE00
000000000000000001FE00
000000000000000000FE00
000000000000000000FF00
0000000000000000007F00
0000000000000000007F00
0000000000000000007F80
0000000000000000003F80
0000000000000000003F80
0000000000000000003F80
0000000000000000003FC0
0000000000000000001FC0
0000000000000000001FC0
0000000000000000001FC0
0000000000000000001FC0
0000000000000000001FC0
0000000000000000001FC0
0000000000000000001FC0
0000000000000000001FC0
0000000000000000001FC0
0000000000000000001FC0
0000000000000000001FC0
0000000000000000001FC0
FE00000000000000001FC0
FE00000000000000001FC0
FE00000000000000001FC0
FE00000000000000001FC0
FE00000000000000001FC0
FE00000000000000001FC0
FF00000000000000003FC0
7F00000000000000003F80
7F00000000000000003F80
7F00000000000000003F80
7F80000000000000007F80
3F80000000000000007F00
3F80000000000000007F00
3FC000000000000000FF00
1FC000000000000000FE00
1FE000000000000001FE00
1FF000000000000003FE00
0FF000000000000003FC00
0FF800000000000007FC00
07FC0000000000000FF800
03FE0000000000001FF000
03FF0000000000003FF000
01FF8000000000007FE000
00FFC00000000000FFC000
007FE00000000001FF8000
003FF00000000003FF0000
001FFC000000000FFE0000
000FFF000000003FFC0000
0007FFC0000000FFF80000
0003FFFC00000FFFF00000
0001FFFFFFFFFFFFE00000
00007FFFFFFFFFFF800000
00003FFFFFFFFFFF000000
00000FFFFFFFFFFC000000
000003FFFFFFFFF0000000
0000007FFFFFFF80000000
00000003FFFFF000000000
ENDCHAR
STARTCHAR 0054
ENCODING 84
SWIDTH 495 0
DWIDTH 110 0
BBX 106 144 4 0
BITMAP
0000007FF8000000000000000800
00000FFFFFC00000000000001E00
00007FFFFFF80000000000001F80
0001FFFFFFFE0000000000003FC0
0007FFFFFFFF8000000000007FC0
000FFFFFFFFFE00000000000FF80
003FFFFFFFFFF80000000001FF80
007FFFC007FFFC0000000001FF00
00FFFC00007FFF0000000007FE00
01FFE000001FFFC00000000FFC00
03FF80000007FFF00000001FFC00
07FF00000001FFF80000007FF800
0FFC000000007FFE000001FFF000
1FF8000000001FFFC00007FFE000
1FF00000000007FFFC007FFFC000
3FE00000000007FFFFFFFFFF0000
7FC00000000007FFFFFFFFFE0000
7F800000000007FFFFFFFFF80000
FF800000000007FFFFFFFFE00000
3F000000000007F7FFFFFF800000
0E000000000007F0FFFFFC000000
06000000000007F007FFC0000000
00000000000007F0000000000000
00000000000007F0000000000000
00000000000007F0000000000000
00000000000007F0000000000000
00000000000007F0000000000000
00000000000007F0000000000000
00000000000007F0000000000000
00000000000007F0000000000000
00000000000007F0000000000000
00000000000007F0000000000000
00000000000007F0000000000000
00000000000007F0000000000000
00000000000007F0000000000000
00000000000007F0000000000000
00000000000007F0000000000000
00000000000007F0000000000000
00000000000007F0000000000000
00000000000007F0000000000000
00000000000007F0000000000000
00000000000007F0000000000000
00000000000007F0000000000000
00000000000007F0000000000000
00000000000007F0000000000000
00000000000007F0000000000000
00000000000007F0000000000000
00000000000007F0000000000000
00000000000007F0000000000000
00000000000007F0000000000000
00000000000007F0000000000000
00000000000007F0000000000000
00000000000007F0000000000000
00000000000007F0000000000000
00000000000007F0000000000000
00000000000007F0000000000000
00000000000007F0000000000000
00000000000007F0000000000000
00000000000007F0000000000000
00000000000007F0000000000000
00000000000007F0000000000000
00000000000007F0000000000000
00000000000007F0000000000000
00000000000007F0000000000000
00000000000007F0000000000000
00000000000007F0000000000000
00000000000007F0000000000000
00000000000007F0000000000000
00000000000007F0000000000000
00000000000007F0000000000000
00000000000007F0000000000000
00000000000007F0000000000000
00000000000007F0000000000000
00000000000007F0000000000000
00000000000007F0000000000000
00000000000007F0000000000000
00000000000007F0000000000000
00000000000007F0000000000000
00000000000007F0000000000000
00000000000007F0000000000000
00000000000007F0000000000000
00000000000007F0000000000000
00000000000007F0000000000000
00000000000007F0000000000000
00000000000007F0000000000000
00000000000007F0000000000000
00000000000007F0000000000000
00000000000007F0000000000000
00000000000007F0000000000000
00000000000007F0000000000000
00000000000007F0000000000000
00000000000007F0000000000000
00000000000007F0000000000000
00000000000007F0000000000000
00000000000007F0000000000000
00000000000007F0000000000000
00000000000007F0000000000000
00000000000007F0000000000000
00000000000007F0000000000000
00000000000007F0000000000000
00000000000007F0000000000000
00000000000007F0000000000000
00000000000007F0000000000000
00000000000007F0000000000000
00000000000007F0000000000000
00000000000007F0000000000000
00000000000007F0000000000000
00000000000007F0000000000000
00000000000007F0000000000000
00000000000007F0000000000000
00000000000007F0000000000000
00000000000007F0000000000000
00000000000007F0000000000000
00000000000007F0000000000000
00000000000007F0000000000000
00000000000007F0000000000000
00000000000007F0000000000000
00000000000007F0000000000000
00000000000007F0000000000000
00000000000007F0000000000000
00000000000007F0000000000000
00000000000007F0000000000000
00000000000007F0000000000000
00000000000007F0000000000000
00000000000007F0000000000000
00000000000007F0000000000000
00000000000007F0000000000000
00000000000007F0000000000000
00000000000007F0000000000000
00000000000007F0000000000000
00000000000007F0000000000000
00000000000007F0000000000000
00000000000007F0000000000000
00000000000007F0000000000000
00000000000007F0000000000000
00000000000007F0000000000000
00000000000007F0000000000000
00000000000007F0000000000000
00000000000007F0000000000000
00000000000007F0000000000000
00000000000007F0000000000000
00000000000007F0000000000000
00000000000007F0000000000000
00000000000007F0000000000000
ENDCHAR
STARTCHAR 0055
ENCODING 85
SWIDTH 427 0
DWIDTH 95 0
BBX 82 144 5 0
BITMAP
FE00000000000000001FC0
FE00000000000000001FC0
FE00000000000000001FC0
FE00000000000000001FC0
FE00000000000000001FC0
FE00000000000000001FC0
FE00000000000000001FC0
FE00000000000000001FC0
FE00000000000000001FC0
FE00000000000000001FC0
FE00000000000000001FC0
FE00000000000000001FC0
FE00000000000000001FC0
FE00000000000000001FC0
FE00000000000000001FC0
FE00000000000000001FC0
FE00000000000000001FC0
FE00000000000000001FC0
FE00000000000000001FC0
FE00000000000000001FC0
FE00000000000000001FC0
FE00000000000000001FC0
FE00000000000000001FC0
FE00000000000000001FC0
FE00000000000000001FC0
FE00000000000000001FC0
FE00000000000000001FC0
FE00000000000000001FC0
FE00000000000000001FC0
FE00000000000000001FC0
FE00000000000000001FC0
FE00000000000000001FC0
FE00000000000000001FC0
FE00000000000000001FC0
FE00000000000000001FC0
FE00000000000000001FC0
FE00000000000000001FC0
FE00000000000000001FC0
FE00000000000000001FC0
FE00000000000000001FC0
FE00000000000000001FC0
FE00000000000000001FC0
FE00000000000000001FC0
FE00000000000000001FC0
FE00000000000000001FC0
FE00000000000000001FC0
FE00000000000000001FC0
FE00000000000000001FC0
FE00000000000000001FC0
FE00000000000000001FC0
FE00000000000000001FC0
FE00000000000000001FC0
FE00000000000000001FC0
FE00000000000000001FC0
FE00000000000000001FC0
FE00000000000000001FC0
FE00000000000000001FC0
FE00000000000000001FC0
FE00000000000000001FC0
FE00000000000000001FC0
FE00000000000000001FC0
FE00000000000000001FC0
FE00000000000000001FC0
FE00000000000000001FC0
FE00000000000000001FC0
FE00000000000000001FC0
FE00000000000000001FC0
FE00000000000000001FC0
FE00000000000000001FC0
FE00000000000000001FC0
FE00000000000000001FC0
FE00000000000000001FC0
FE00000000000000001FC0
FE00000000000000001FC0
FE00000000000000001FC0
FE00000000000000001FC0
FE00000000000000001FC0
FE00000000000000001FC0
FE00000000000000001FC0
FE00000000000000001FC0
FE00000000000000001FC0
FE00000000000000001FC0
FE00000000000000001FC0
FE00000000000000001FC0
FE00000000000000001FC0
FE00000000000000001FC0
FE00000000000000001FC0
FE00000000000000001FC0
FE00000000000000001FC0
FE00000000000000001FC0
FE00000000000000001FC0
FE00000000000000001FC0
FE00000000000000001FC0
FE00000000000000001FC0
FE00000000000000001FC0
FE00000000000000001FC0
FE00000000000000001FC0
FE00000000000000001FC0
FE00000000000000001FC0
FE00000000000000001FC0
FE00000000000000001FC0
FE00000000000000001FC0
FE00000000000000001FC0
FE00000000000000001FC0
FE00000000000000001FC0
FE00000000000000001FC0
FE00000000000000001FC0
FE00000000000000001FC0
FE00000000000000001FC0
FE00000000000000001FC0
FE00000000000000001FC0
FE00000000000000001FC0
FE00000000000000001FC0
FE00000000000000003FC0
7F00000000000000003F80
7F00000000000000003F80
7F00000000000000003F80
7F00000000000000007F80
7F80000000000000007F80
3F80000000000000007F00
3FC000000000000000FF00
3FC000000000000000FF00
1FE000000000000001FE00
1FE000000000000001FE00
0FF000000000000003FC00
0FF800000000000007FC00
07FC0000000000000FF800
03FC0000000000001FF000
03FE0000000000001FF000
01FF0000000000003FE000
00FFC00000000000FFC000
007FE00000000001FF8000
007FF00000000003FF0000
003FFC000000000FFF0000
001FFF000000003FFC0000
0007FFC0000000FFF80000
0003FFFC00000FFFF00000
0001FFFFFFFFFFFFE00000
00007FFFFFFFFFFF800000
00003FFFFFFFFFFF000000
00000FFFFFFFFFFC000000
000003FFFFFFFFF0000000
0000007FFFFFFF80000000
00000003FFFFF000000000
ENDCHAR
STARTCHAR 0056
ENCODING 86
SWIDTH 472 0
DWIDTH 105 0
BBX 93 144 5 0
BITMAP
FE00000000000000000003F8
FE00000000000000000003F8
FE00000000000000000003F8
7F00000000000000000007F0
7F00000000000000000007F0
7F00000000000000000007F0
7F00000000000000000007F0
7F00000000000000000007F0
7F00000000000000000007F0
7F8000000000000000000FF0
3F8000000000000000000FE0
3F8000000000000000000FE0
3F8000000000000000000FE0
3F8000000000000000000FE0
3F8000000000000000000FE0
3F8000000000000000000FE0
3FC000000000000000001FE0
1FC000000000000000001FC0
1FC000000000000000001FC0
1FC000000000000000001FC0
1FC000000000000000001FC0
1FC000000000000000001FC0
1FC000000000000000001FC0
0FE000000000000000003F80
0FE000000000000000003F80
0FE000000000000000003F80
0FE000000000000000003F80
0FE000000000000000003F80
0FE000000000000000003F80
0FF000000000000000007F80
07F000000000000000007F00
07F000000000000000007F00
07F000000000000000007F00
07F000000000000000007F00
07F000000000000000007F00
07F000000000000000007F00
07F80000000000000000FF00
03F80000000000000000FE00
03F80000000000000000FE00
03F80000000000000000FE00
03F80000000000000000FE00
03F80000000000000000FE00
03F80000000000000000FE00
03FC0000000000000001FC00
01FC0000000000000001FC00
01FC0000000000000001FC00
01FC0000000000000001FC00
01FC0000000000000001FC00
01FC0000000000000001FC00
01FC0000000000000003FC00
00FE0000000000000003F800
00FE0000000000000003F800
00FE0000000000000003F800
00FE0000000000000003F800
00FE0000000000000003F800
00FE0000000000000003F800
00FF0000000000000007F800
007F0000000000000007F000
007F0000000000000007F000
007F0000000000000007F000
007F0000000000000007F000
007F0000000000000007F000
007F0000000000000007F000
007F800000000000000FE000
003F800000000000000FE000
003F800000000000000FE000
003F800000000000000FE000
003F800000000000000FE000
003F800000000000000FE000
003F800000000000001FE000
001FC00000000000001FC000
001FC00000000000001FC000
001FC00000000000001FC000
001FC00000000000001FC000
001FC00000000000001FC000
001FC00000000000001FC000
001FE00000000000003FC000
000FE00000000000003F8000
000FE00000000000003F8000
000FE00000000000003F8000
000FE00000000000003F8000
000FE00000000000003F8000
000FE00000000000003F8000
000FF00000000000007F8000
0007F00000000000007F0000
0007F00000000000007F0000
0007F00000000000007F0000
0007F00000000000007F0000
0007F00000000000007F0000
0007F0000000000000FF0000
0007F8000000000000FE0000
0003F8000000000000FE0000
0003F8000000000000FE0000
0003F8000000000000FE0000
0003F8000000000000FE0000
0003F8000000000000FE0000
0003FC000000000001FE0000
0001FC000000000001FC0000
0001FC000000000001FC0000
0001FC000000000001FC0000
0001FC000000000001FC0000
0001FC000000000001FC0000
0001FC000000000001FC0000
0001FE000000000003FC0000
0000FE000000000003F80000
0000FE000000000003F80000
0000FE000000000003F80000
0000FE000000000003F80000
0000FE000000000003F80000
0000FE000000000007F80000
0000FF000000000007F00000
00007F000000000007F00000
00007F000000000007F00000
00007F000000000007F00000
00007F000000000007F00000
00007F000000000007F00000
00007F80000000000FF00000
00003F80000000000FE00000
00003F80000000000FE00000
00003F80000000000FE00000
00003F80000000000FE00000
00003F80000000001FE00000
00003FC0000000001FC00000
00001FC0000000001FC00000
00001FE0000000003FC00000
00000FE0000000003F800000
00000FF0000000007F800000
00000FF0000000007F000000
000007F800000000FF000000
000003FC00000001FE000000
000003FE00000003FE000000
000001FF00000007FC000000
000000FF8000000FF8000000
0000007FC000001FF0000000
0000003FF000007FE0000000
0000001FFC0001FFC0000000
0000000FFF800FFF80000000
00000007FFFFFFFF00000000
00000003FFFFFFFE00000000
00000000FFFFFFFC00000000
000000007FFFFFF000000000
000000001FFFFFC000000000
0000000003FFFF0000000000
00000000007FF00000000000
ENDCHAR
STARTCHAR 0057
ENCODING 87
SWIDTH 634 0
DWIDTH 141 0
BBX 129 144 5 0
BITMAP
FE00000000000007F00000000000003F80
FE00000000000007F00000000000003F80
FE00000000000007F00000000000003F80
FE00000000000007F00000000000003F80
FE00000000000007F00000000000003F80
FE00000000000007F00000000000003F80
FE00000000000007F00000000000003F80
FE00000000000007F00000000000003F80
FE00000000000007F00000000000003F80
FE00000000000007F00000000000003F80
FE00000000000007F00000000000003F80
FE00000000000007F00000000000003F80
FE00000000000007F00000000000003F80
FE00000000000007F00000000000003F80
FE00000000000007F00000000000003F80
FE00000000000007F00000000000003F80
FE00000000000007F00000000000003F80
FE00000000000007F00000000000003F80
FE00000000000007F00000000000003F80
FE00000000000007F00000000000003F80
FE00000000000007F00000000000003F80
FE00000000000007F00000000000003F80
FE00000000000007F00000000000003F80
FE00000000000007F00000000000003F80
FE00000000000007F00000000000003F80
FE00000000000007F00000000000003F80
FE00000000000007F00000000000003F80
FE00000000000007F00000000000003F80
FE00000000000007F00000000000003F80
FE00000000000007F00000000000003F80
FE00000000000007F00000000000003F80
FE00000000000007F00000000000003F80
FE00000000000007F00000000000003F80
FE00000000000007F00000000000003F80
FE00000000000007F00000000000003F80
FE00000000000007F00000000000003F80
FE00000000000007F00000000000003F80
FE00000000000007F00000000000003F80
FE00000000000007F00000000000003F80
FE00000000000007F00000000000003F80
FE00000000000007F00000000000003F80
FE00000000000007F00000000000003F80
FE00000000000007F00000000000003F80
FE00000000000007F00000000000003F80
FE00000000000007F00000000000003F80
FE00000000000007F00000000000003F80
FE00000000000007F00000000000003F80
FE00000000000007F00000000000003F80
FE00000000000007F00000000000003F80
FE00000000000007F00000000000003F80
FE00000000000007F00000000000003F80
FE00000000000007F00000000000003F80
FE00000000000007F00000000000003F80
FE00000000000007F00000000000003F80
FE00000000000007F00000000000003F80
FE00000000000007F00000000000003F80
FE00000000000007F00000000000003F80
FE00000000000007F00000000000003F80
FE00000000000007F00000000000003F80
FE00000000000007F00000000000003F80
FE00000000000007F00000000000003F80
FE00000000000007F00000000000003F80
FE00000000000007F00000000000003F80
FE00000000000007F00000000000003F80
FE00000000000007F00000000000003F80
FE00000000000007F00000000000003F80
FE00000000000007F00000000000003F80
FE00000000000007F00000000000003F80
FE00000000000007F00000000000003F80
FE00000000000007F00000000000003F80
FE00000000000007F00000000000003F80
FE00000000000007F00000000000003F80
FE00000000000007F00000000000003F80
FE00000000000007F00000000000003F80
FE00000000000007F00000000000003F80
FE00000000000007F00000000000003F80
FE00000000000007F00000000000003F80
FE00000000000007F00000000000003F80
FE00000000000007F00000000000003F80
FE00000000000007F00000000000003F80
FE00000000000007F00000000000003F80
FE00000000000007F00000000000003F80
FE00000000000007F00000000000003F80
FE00000000000007F00000000000003F80
FE00000000000007F00000000000003F80
FE00000000000007F00000000000003F80
FE00000000000007F00000000000003F80
FE00000000000007F00000000000003F80
FE00000000000007F00000000000003F80
FE00000000000007F00000000000003F80
FE00000000000007F00000000000003F80
FE00000000000007F00000000000003F80
FE00000000000007F00000000000003F80
FE00000000000007F00000000000003F80
FE00000000000007F00000000000003F80
FE00000000000007F00000000000003F80
FE00000000000007F00000000000003F80
FE00000000000007F00000000000003F80
FE00000000000007F00000000000003F80
FE00000000000007F00000000000003F80
FE00000000000007F00000000000003F80
FE00000000000007F00000000000003F80
FE00000000000007F00000000000003F80
FE00000000000007F00000000000003F80
FE00000000000007F00000000000003F80
FE00000000000007F00000000000003F80
FE00000000000007F00000000000003F80
FE00000000000007F00000000000003F80
FE00000000000007F00000000000003F80
FE00000000000007F00000000000003F80
FE00000000000007F00000000000003F80
FE00000000000007F00000000000003F80
FE00000000000007F00000000000003F80
FE00000000000007F00000000000003F80
7F0000000000000FF80000000000007F80
7F0000000000000FF80000000000007F00
7F0000000000000FF80000000000007F00
7F0000000000000FF80000000000007F00
7F8000000000000FFC0000000000007F00
3F8000000000001FFC000000000000FF00
3FC000000000001FFE000000000000FE00
3FC000000000001FFE000000000000FE00
1FE000000000003FFF000000000001FE00
1FE000000000003FFF000000000001FC00
0FF000000000007FFF800000000003FC00
0FF800000000007F3FC00000000003FC00
07FC0000000000FF3FE00000000007F800
07FE0000000001FE1FF0000000000FF800
03FE0000000001FE0FF0000000000FF000
01FF8000000003FC0FFC000000001FE000
00FFC000000007F807FE000000003FE000
00FFE00000000FF803FF000000007FC000
007FF00000001FF001FF80000001FF8000
003FFC0000007FE001FFE0000003FF0000
001FFF000001FFE000FFF800000FFF0000
000FFFC00007FFC0007FFE00003FFE0000
0003FFFC007FFF80001FFFE003FFFC0000
0001FFFFFFFFFE00000FFFFFFFFFF00000
0000FFFFFFFFFC000007FFFFFFFFE00000
00003FFFFFFFF8000001FFFFFFFFC00000
00000FFFFFFFE00000007FFFFFFF000000
000003FFFFFF800000001FFFFFFC000000
0000007FFFFC0000000003FFFFE0000000
00000003FFC000000000001FFE00000000
ENDCHAR
STARTCHAR 0058
ENCODING 88
SWIDTH 427 0
DWIDTH 95 0
BBX 82 144 5 0
BITMAP
FE00000000000000001FC0
FE00000000000000001FC0
FE00000000000000001FC0
FE00000000000000001FC0
FE00000000000000001FC0
FE00000000000000001FC0
FE00000000000000001FC0
FE00000000000000001FC0
FE00000000000000001FC0
FE00000000000000001FC0
FE00000000000000001FC0
FE00000000000000001FC0
FE00000000000000001FC0
FE00000000000000001FC0
FE00000000000000001FC0
FE00000000000000001FC0
FE00000000000000001FC0
FE00000000000000001FC0
FE00000000000000001FC0
FE00000000000000001FC0
FE00000000000000001FC0
FE00000000000000001FC0
FE00000000000000001FC0
FE00000000000000001FC0
FE00000000000000001FC0
FE00000000000000001FC0
FE00000000000000001FC0
FE00000000000000001FC0
FE00000000000000001FC0
FE00000000000000001FC0
FE00000000000000001FC0
FE00000000000000001FC0
FE00000000000000001FC0
FE00000000000000001FC0
FE00000000000000001FC0
FE00000000000000001FC0
FE00000000000000001FC0
FE00000000000000001FC0
FE00000000000000001FC0
FE00000000000000001FC0
FE00000000000000001FC0
FE00000000000000001FC0
FE00000000000000003FC0
FE00000000000000003FC0
FE00000000000000003FC0
FE00000000000000007FC0
7F00000000000000007FC0
7F00000000000000007F80
7F0000000000000000FF80
7F0000000000000000FF80
7F8000000000000000FF80
3F8000000000000001FF80
3FC000000000000001FF00
3FC000000000000001FF00
1FE000000000000003FE00
1FE000000000000003FE00
0FF000000000000003FE00
0FF800000000000007FC00
07F800000000000007FC00
07FC0000000000000FF800
03FE0000000000001FF000
01FF0000000000003FF000
00FF8000000000007FE000
00FFE00000000000FFC000
007FF00000000001FF8000
003FFC0000000007FF0000
000FFF000000001FFE0000
0007FFC00000007FFC0000
0003FFFC000007FFF00000
0000FFFFFFFFFFFFE00000
00007FFFFFFFFFFF800000
00001FFFFFFFFFFF000000
00001FFFFFFFFFFC000000
00007FFFFFFFFFFF000000
0000FFFFFFFFFFFFC00000
0003FFFFFFFFFFFFE00000
0007FFFC00000FFFF80000
000FFFE0000000FFFC0000
001FFF000000001FFE0000
003FFC0000000007FF0000
007FF00000000003FF8000
00FFE00000000000FFC000
01FFC000000000007FE000
03FF0000000000003FF000
07FE0000000000001FF000
07FC0000000000000FF800
0FF800000000000007FC00
0FF800000000000007FC00
1FF000000000000003FE00
1FE000000000000001FE00
3FE000000000000001FE00
3FC000000000000000FF00
3FC000000000000000FF00
7F80000000000000007F80
7F80000000000000007F80
7F00000000000000003F80
7F00000000000000003F80
7F00000000000000003F80
FF00000000000000003FC0
FE00000000000000001FC0
FE00000000000000001FC0
FE00000000000000001FC0
FE00000000000000001FC0
FE00000000000000001FC0
FE00000000000000001FC0
FE00000000000000001FC0
FE00000000000000001FC0
FE00000000000000001FC0
FE00000000000000001FC0
FE00000000000000001FC0
FE00000000000000001FC0
FE00000000000000001FC0
FE00000000000000001FC0
FE00000000000000001FC0
FE00000000000000001FC0
FE00000000000000001FC0
FE00000000000000001FC0
FE00000000000000001FC0
FE00000000000000001FC0
FE00000000000000001FC0
FE00000000000000001FC0
FE00000000000000001FC0
FE00000000000000001FC0
FE00000000000000001FC0
FE00000000000000001FC0
FE00000000000000001FC0
FE00000000000000001FC0
FE00000000000000001FC0
FE00000000000000001FC0
FE00000000000000001FC0
FE00000000000000001FC0
FE00000000000000001FC0
FE00000000000000001FC0
FE00000000000000001FC0
FE00000000000000001FC0
FE00000000000000001FC0
FE00000000000000001FC0
FE00000000000000001FC0
FE00000000000000001FC0
FE00000000000000001FC0
FE00000000000000001FC0
FE00000000000000001FC0
FE00000000000000001FC0
FE00000000000000001FC0
ENDCHAR
STARTCHAR 0059
ENCODING 89
SWIDTH 409 0
DWIDTH 91 0
BBX 79 144 5 0
BITMAP
FE0000000000000000FE
FE0000000000000000FE
FE0000000000000000FE
FE0000000000000000FE
FE0000000000000000FE
FE0000000000000000FE
FE0000000000000000FE
FE0000000000000000FE
FE0000000000000000FE
FE0000000000000000FE
FE0000000000000000FE
FE0000000000000000FE
FE0000000000000000FE
FE0000000000000000FE
FE0000000000000000FE
FE0000000000000000FE
FE0000000000000000FE
FE0000000000000000FE
FE0000000000000000FE
FE0000000000000000FE
FE0000000000000000FE
FE0000000000000000FE
FE0000000000000000FE
FE0000000000000000FE
FE0000000000000000FE
FE0000000000000000FE
FE0000000000000000FE
FE0000000000000000FE
FE0000000000000000FE
FE0000000000000000FE
FE0000000000000000FE
FE0000000000000000FE
FE0000000000000000FE
FE0000000000000000FE
FE0000000000000000FE
FE0000000000000000FE
FE0000000000000000FE
FE0000000000000000FE
FE0000000000000000FE
FE0000000000000000FE
FE0000000000000000FE
FE0000000000000000FE
FE0000000000000000FE
FE0000000000000000FE
FE0000000000000000FE
FE0000000000000000FE
FE0000000000000000FE
FE0000000000000000FE
FE0000000000000000FE
FE0000000000000000FE
FE0000000000000000FE
FE0000000000000000FE
FE0000000000000000FE
FE0000000000000000FE
FE0000000000000000FE
FE0000000000000000FE
FE0000000000000000FE
FE0000000000000000FE
FE0000000000000000FE
FE0000000000000000FE
FE0000000000000000FE
FE0000000000000000FE
FF0000000000000001FE
7F0000000000000001FC
7F0000000000000003FC
7F8000000000000003FC
3F8000000000000007F8
3FC00000000000000FF8
1FE00000000000001FF8
1FF00000000000003FF0
0FF8000000000000FFE0
07FE000000000003FFE0
03FFC000000003FFFFC0
01FFFFE000003FFFFF80
00FFFFFC0001FFFFFF00
007FFFFF0003FFFFFE00
001FFFFFC00FFFFFF800
0007FFFFE01FFFFFF000
0000FFFFF03FFFFFC000
000000FFF87FFFFC0000
0000000FFC7FFC000000
00000007FEFFE0000000
00000001FFFF80000000
00000000FFFF00000000
000000007FFE00000000
000000007FFC00000000
000000003FF800000000
000000001FF800000000
000000001FF000000000
000000001FF000000000
000000000FE000000000
000000000FE000000000
000000000FE000000000
000000000FE000000000
000000000FE000000000
000000000FE000000000
000000000FE000000000
000000000FE000000000
000000000FE000000000
000000000FE000000000
000000000FE000000000
000000000FE000000000
000000000FE000000000
000000000FE000000000
000000000FE000000000
000000000FE000000000
000000000FE000000000
000000000FE000000000
000000000FE000000000
000000000FE000000000
000000000FE000000000
000000000FE000000000
000000000FE000000000
000000000FE000000000
000000000FE000000000
000000000FE000000000
000000000FE000000000
000000000FE000000000
000000000FE000000000
000000000FE000000000
000000000FE000000000
000000000FE000000000
000000000FE000000000
000000000FE000000000
000000000FE000000000
000000000FE000000000
000000000FE000000000
000000000FE000000000
000000000FE000000000
000000000FE000000000
000000000FE000000000
000000000FE000000000
000000000FE000000000
000000000FE000000000
000000000FE000000000
000000000FE000000000
000000000FE000000000
000000000FE000000000
000000000FE000000000
000000000FE000000000
000000000FE000000000
000000000FE000000000
000000000FE000000000
000000000FE000000000
ENDCHAR
STARTCHAR 005A
ENCODING 90
SWIDTH 427 0
DWIDTH 95 0
BBX 82 144 5 0
BITMAP
FFFFFFFFFFFFFFFFFFFFC0
FFFFFFFFFFFFFFFFFFFFC0
FFFFFFFFFFFFFFFFFFFFC0
FFFFFFFFFFFFFFFFFFFFC0
FFFFFFFFFFFFFFFFFFFFC0
FFFFFFFFFFFFFFFFFFFFC0
FFFFFFFFFFFFFFFFFFFFC0
000000001FFFFFFFFFFFC0
0000000000000000001FC0
0000000000000000001FC0
0000000000000000001FC0
0000000000000000001FC0
0000000000000000001FC0
0000000000000000001FC0
0000000000000000001FC0
0000000000000000001FC0
0000000000000000001FC0
0000000000000000001FC0
0000000000000000001FC0
0000000000000000001FC0
0000000000000000001FC0
0000000000000000003F80
0000000000000000003F80
0000000000000000003F80
0000000000000000003F80
0000000000000000003F80
0000000000000000003F80
0000000000000000007F80
0000000000000000007F00
0000000000000000007F00
0000000000000000007F00
0000000000000000007F00
000000000000000000FF00
000000000000000000FE00
000000000000000000FE00
000000000000000000FE00
000000000000000001FE00
000000000000000001FC00
000000000000000001FC00
000000000000000003FC00
000000000000000003F800
000000000000000003F800
000000000000000007F800
000000000000000007F000
000000000000000007F000
00000000000000000FF000
00000000000000000FE000
00000000000000000FE000
00000000000000001FC000
00000000000000001FC000
00000000000000003FC000
00000000000000003F8000
00000000000000007F8000
00000000000000007F0000
0000000000000000FF0000
0000000000000000FE0000
0000000000000001FE0000
0000000000000001FC0000
0000000000000003FC0000
0000000000000007F80000
000000000000000FF80000
000000000000000FF00000
000000000000001FE00000
000000000000003FE00000
000000000000007FC00000
00000000000000FF800000
00000000000001FF000000
00000000000007FE000000
0000000000001FFC000000
0000000000007FF8000000
000000000003FFF0000000
000000000FFFFFE0000000
00000000FFFFFFC0000000
00000003FFFFFF80000000
0000000FFFFFFE00000000
0000003FFFFFF800000000
0000007FFFFFC000000000
000001FFFFFE0000000000
000003FFF8000000000000
000007FF80000000000000
00000FFE00000000000000
00001FF800000000000000
00003FF000000000000000
00007FE000000000000000
00007F8000000000000000
0000FF0000000000000000
0001FE0000000000000000
0003FE0000000000000000
0003FC0000000000000000
0007F80000000000000000
0007F00000000000000000
000FF00000000000000000
000FE00000000000000000
001FC00000000000000000
003FC00000000000000000
003F800000000000000000
003F800000000000000000
007F000000000000000000
007F000000000000000000
00FE000000000000000000
00FE000000000000000000
01FE000000000000000000
01FC000000000000000000
01FC000000000000000000
03F8000000000000000000
03F8000000000000000000
03F8000000000000000000
07F0000000000000000000
07F0000000000000000000
07F0000000000000000000
0FE0000000000000000000
0FE0000000000000000000
0FE0000000000000000000
1FE0000000000000000000
1FC0000000000000000000
1FC0000000000000000000
1FC0000000000000000000
3FC0000000000000000000
3F80000000000000000000
3F80000000000000000000
3F80000000000000000000
3F80000000000000000000
3F80000000000000000000
7F00000000000000000000
7F00000000000000000000
7F00000000000000000000
7F00000000000000000000
7F00000000000000000000
7F00000000000000000000
7F00000000000000000000
7F00000000000000000000
FF00000000000000000000
FF00000000000000000000
FE00000000000000000000
FE00000000000000000000
FE00000000000000000000
FE00000000000000000000
FFFFFFFFFFFFFFFFFFFFC0
FFFFFFFFFFFFFFFFFFFFC0
FFFFFFFFFFFFFFFFFFFFC0
FFFFFFFFFFFFFFFFFFFFC0
FFFFFFFFFFFFFFFFFFFFC0
FFFFFFFFFFFFFFFFFFFFC0
FFFFFFFFFFFFFFFFFFFFC0
ENDCHAR
STARTCHAR 005B
ENCODING 91
SWIDTH 166 0
DWIDTH 37 0
BBX 25 172 5 -14
BITMAP
FFFFFF80
FFFFFF80
FFFFFF80
FFFFFF80
FFFFFF80
FFFFFF80
FFFFFF80
FE000000
FE000000
FE000000
FE000000
FE000000
FE000000
FE000000
FE000000
FE000000
FE000000
FE000000
FE000000
FE000000
FE000000
FE000000
FE000000
FE000000
FE000000
FE000000
FE000000
FE000000
FE000000
FE000000
FE000000
FE000000
FE000000
FE000000
FE000000
FE000000
FE000000
FE000000
FE000000
FE000000
FE000000
FE000000
FE000000
FE000000
FE000000
FE000000
FE000000
FE000000
FE000000
FE000000
FE000000
FE000000
FE000000
FE000000
FE000000
FE000000
FE000000
FE000000
FE000000
FE000000
FE000000
FE000000
FE000000
FE000000
FE000000
FE000000
FE000000
FE000000
FE000000
FE000000
FE000000
FE000000
FE000000
FE000000
FE000000
FE000000
FE000000
FE000000
FE000000
FE000000
FE000000
FE000000
FE000000
FE000000
FE000000
FE000000
FE000000
FE000000
FE000000
FE000000
FE000000
FE000000
FE000000
FE000000
FE000000
FE000000
FE000000
FE000000
FE000000
FE000000
FE000000
FE000000
FE000000
FE000000
FE000000
FE000000
FE000000
FE000000
FE000000
FE000000
FE000000
FE000000
FE000000
FE000000
FE000000
FE000000
FE000000
FE000000
FE000000
FE000000
FE000000
FE000000
FE000000
FE000000
FE000000
FE000000
FE000000
FE000000
FE000000
FE000000
FE000000
FE000000
FE000000
FE000000
FE000000
FE000000
FE000000
FE000000
FE000000
FE000000
FE000000
FE000000
FE000000
FE000000
FE000000
FE000000
FE000000
FE000000
FE000000
FE000000
FE000000
FE000000
FE000000
FE000000
FE000000
FE000000
FE000000
FE000000
FE000000
FE000000
FE000000
FE000000
FE000000
FE000000
FE000000
FFFFFF80
FFFFFF80
FFFFFF80
FFFFFF80
FFFFFF80
FFFFFF80
FFFFFF80
ENDCHAR
STARTCHAR 005C
ENCODING 92
SWIDTH 468 0
DWIDTH 104 0
BBX 91 144 6 1
BITMAP
FF0000000000000000000000
7F8000000000000000000000
7F8000000000000000000000
3FC000000000000000000000
1FE000000000000000000000
1FE000000000000000000000
0FF000000000000000000000
0FF000000000000000000000
07F800000000000000000000
07F800000000000000000000
03FC00000000000000000000
01FE00000000000000000000
01FE00000000000000000000
00FF00000000000000000000
00FF00000000000000000000
007F80000000000000000000
003F80000000000000000000
003FC0000000000000000000
001FE0000000000000000000
001FE0000000000000000000
000FF0000000000000000000
000FF0000000000000000000
0007F8000000000000000000
0003FC000000000000000000
0003FC000000000000000000
0001FE000000000000000000
0001FE000000000000000000
0000FF000000000000000000
00007F000000000000000000
00007F800000000000000000
00003FC00000000000000000
00003FC00000000000000000
00001FE00000000000000000
00000FE00000000000000000
00000FF00000000000000000
000007F00000000000000000
000007F80000000000000000
000003FC0000000000000000
000003FC0000000000000000
000001FE0000000000000000
000000FE0000000000000000
000000FF0000000000000000
0000007F8000000000000000
0000007F8000000000000000
0000003FC000000000000000
0000001FC000000000000000
0000001FE000000000000000
0000000FE000000000000000
0000000FF000000000000000
00000007F800000000000000
00000007F800000000000000
00000003FC00000000000000
00000001FC00000000000000
00000001FE00000000000000
00000000FE00000000000000
00000000FF00000000000000
000000007F80000000000000
000000003F80000000000000
000000003FC0000000000000
000000001FC0000000000000
000000001FE0000000000000
000000000FE0000000000000
0000000007F0000000000000
0000000007F8000000000000
0000000003F8000000000000
0000000003FC000000000000
0000000001FC000000000000
0000000001FE000000000000
0000000000FF000000000000
00000000007F000000000000
00000000007F800000000000
00000000003F800000000000
00000000003FC00000000000
00000000001FC00000000000
00000000000FE00000000000
00000000000FF00000000000
000000000007F00000000000
000000000007F80000000000
000000000003F80000000000
000000000003FC0000000000
000000000001FC0000000000
000000000000FE0000000000
000000000000FF0000000000
0000000000007F0000000000
0000000000007F8000000000
0000000000003F8000000000
0000000000001FC000000000
0000000000001FE000000000
0000000000000FE000000000
0000000000000FF000000000
00000000000007F000000000
00000000000003F800000000
00000000000003F800000000
00000000000001FC00000000
00000000000001FE00000000
00000000000000FE00000000
00000000000000FF00000000
000000000000007F00000000
000000000000003F80000000
000000000000003F80000000
000000000000001FC0000000
000000000000001FE0000000
000000000000000FE0000000
0000000000000007F0000000
0000000000000007F0000000
0000000000000003F8000000
0000000000000003FC000000
0000000000000001FC000000
0000000000000001FE000000
0000000000000000FE000000
00000000000000007F000000
00000000000000007F000000
00000000000000003F800000
00000000000000003FC00000
00000000000000001FC00000
00000000000000000FE00000
00000000000000000FE00000
000000000000000007F00000
000000000000000007F00000
000000000000000003F80000
000000000000000003FC0000
000000000000000001FC0000
000000000000000000FE0000
000000000000000000FE0000
0000000000000000007F0000
0000000000000000007F0000
0000000000000000003F8000
0000000000000000001FC000
0000000000000000001FC000
0000000000000000000FE000
0000000000000000000FE000
00000000000000000007F000
00000000000000000003F800
00000000000000000003F800
00000000000000000001FC00
00000000000000000001FC00
00000000000000000000FE00
00000000000000000000FE00
000000000000000000007F00
000000000000000000003F80
000000000000000000003F80
000000000000000000001FC0
000000000000000000001FC0
000000000000000000000FE0
ENDCHAR
STARTCHAR 005D
ENCODING 93
SWIDTH 166 0
DWIDTH 37 0
BBX 25 172 5 -14
BITMAP
FFFFFF80
FFFFFF80
FFFFFF80
FFFFFF80
FFFFFF80
FFFFFF80
FFFFFF80
FFFFFF80
00003F80
00003F80
00003F80
00003F80
00003F80
00003F80
00003F80
00003F80
00003F80
00003F80
00003F80
00003F80
00003F80
00003F80
00003F80
00003F80
00003F80
00003F80
00003F80
00003F80
00003F80
00003F80
00003F80
00003F80
00003F80
00003F80
00003F80
00003F80
00003F80
00003F80
00003F80
00003F80
00003F80
00003F80
00003F80
00003F80
00003F80
00003F80
00003F80
00003F80
00003F80
00003F80
00003F80
00003F80
00003F80
00003F80
00003F80
00003F80
00003F80
00003F80
00003F80
00003F80
00003F80
00003F80
00003F80
00003F80
00003F80
00003F80
00003F80
00003F80
00003F80
00003F80
00003F80
00003F80
00003F80
00003F80
00003F80
00003F80
00003F80
00003F80
00003F80
00003F80
00003F80
00003F80
00003F80
00003F80
00003F80
00003F80
00003F80
00003F80
00003F80
00003F80
00003F80
00003F80
00003F80
00003F80
00003F80
00003F80
00003F80
00003F80
00003F80
00003F80
00003F80
00003F80
00003F80
00003F80
00003F80
00003F80
00003F80
00003F80
00003F80
00003F80
00003F80
00003F80
00003F80
00003F80
00003F80
00003F80
00003F80
00003F80
00003F80
00003F80
00003F80
00003F80
00003F80
00003F80
00003F80
00003F80
00003F80
00003F80
00003F80
00003F80
00003F80
00003F80
00003F80
00003F80
00003F80
00003F80
00003F80
00003F80
00003F80
00003F80
00003F80
00003F80
00003F80
00003F80
00003F80
00003F80
00003F80
00003F80
00003F80
00003F80
00003F80
00003F80
00003F80
00003F80
00003F80
00003F80
00003F80
00003F80
00003F80
00003F80
00003F80
00003F80
00003F80
00003F80
00003F80
FFFFFF80
FFFFFF80
FFFFFF80
FFFFFF80
FFFFFF80
FFFFFF80
FFFFFF80
ENDCHAR
STARTCHAR 005E
ENCODING 94
SWIDTH 247 0
DWIDTH 55 0
BBX 43 29 5 114
BITMAP
0000FFE00000
0000FFE00000
0001FFF00000
0001FFF00000
0003FFF80000
0003FFFC0000
0007FBFC0000
000FF1FE0000
000FF1FE0000
001FE0FF0000
001FE0FF0000
003FC07F8000
007FC03FC000
007F803FC000
00FF001FE000
00FF001FE000
01FE000FF000
01FE000FF000
03FC0007F800
07FC0007FC00
07F80003FC00
0FF00001FE00
0FF00001FE00
1FE00000FF00
1FE00000FF00
3FC000007F80
7FC000007F80
7F8000003FC0
FF0000001FE0
ENDCHAR
STARTCHAR 005F
ENCODING 95
SWIDTH 490 0
DWIDTH 109 0
BBX 100 6 1 -42
BITMAP
FFFFFFFFFFFFFFFFFFFFFFFFF0
FFFFFFFFFFFFFFFFFFFFFFFFF0
FFFFFFFFFFFFFFFFFFFFFFFFF0
FFFFFFFFFFFFFFFFFFFFFFFFF0
FFFFFFFFFFFFFFFFFFFFFFFFF0
FFFFFFFFFFFFFFFFFFFFFFFFF0
ENDCHAR
STARTCHAR 0060
ENCODING 96
SWIDTH 144 0
DWIDTH 32 0
BBX 20 19 5 125
BITMAP
FF8000
7FC000
3FC000
3FE000
1FF000
1FF000
0FF800
07F800
07FC00
03FC00
01FE00
01FF00
00FF00
00FF80
007F80
003FC0
003FE0
001FE0
001FF0
ENDCHAR
STARTCHAR 0061
ENCODING 97
SWIDTH 360 0
DWIDTH 80 0
BBX 68 101 5 0
BITMAP
0000001FFFFFE00000
000003FFFFFFFE0000
00000FFFFFFFFF8000
00007FFFFFFFFFC000
0001FFFFFFFFFFF000
0003FFFFFFFFFFF800
000FFFFFFFFFFFFC00
001FFFE000003FFE00
003FFE00000007FF00
007FF800000001FF00
00FFE000000000FF80
01FFC0000000007FC0
03FF00000000003FC0
07FE00000000001FE0
0FFC00000000001FE0
0FF800000000000FE0
1FF000000000000FE0
3FE000000000000FF0
3FE0000000000007F0
7FC0000000000007F0
7F80000000000007F0
FF80000000000007F0
0000000000000007F0
0000000000000007F0
0000000000000007F0
0000000000000007F0
000000000000000FF0
000000000000000FF0
000000000000000FF0
000000000000001FF0
000000000000003FF0
000000000000003FF0
000000000000007FF0
00000000000000FFF0
00000000000001FFF0
00000000000007FFF0
0000000000003FFFF0
00000003FFFFFFFFF0
0000007FFFFFFFFFF0
000003FFFFFFFFF7F0
00000FFFFFFFFFC7F0
00003FFFFFFFFF87F0
0000FFFFFFFFFE07F0
0001FFFFFFFFE007F0
0003FFFC00000007F0
000FFFC000000007F0
001FFF0000000007F0
003FFC0000000007F0
007FF00000000007F0
00FFE00000000007F0
01FFC00000000007F0
01FF000000000007F0
03FE000000000007F0
07FC000000000007F0
07F8000000000007F0
0FF8000000000007F0
0FF0000000000007F0
1FE0000000000007F0
1FE0000000000007F0
3FC0000000000007F0
3FC0000000000007F0
3F80000000000007F0
7F80000000000007F0
7F00000000000007F0
7F00000000000007F0
7F00000000000007F0
FF00000000000007F0
FE00000000000007F0
FE00000000000007F0
FE00000000000007F0
FE00000000000007F0
FE0000000000000FE0
FE0000000000000FE0
FE0000000000000FE0
FE0000000000000FE0
FE0000000000001FE0
FE0000000000001FC0
FE0000000000003FC0
FE0000000000003FC0
FE0000000000007F80
FE0000000000007F80
FE000000000000FF00
FE000000000001FF00
FE000000000003FE00
FF000000000003FE00
7F000000000007FC00
7F80000000000FF800
7F80000000003FF000
3FC0000000007FF000
3FE000000000FFE000
1FF000000003FFC000
1FF80000000FFF8000
0FFE0000003FFF0000
07FFC00003FFFC0000
03FFFFFFFFFFF80000
01FFFFFFFFFFF00000
00FFFFFFFFFFC00000
003FFFFFFFFF000000
001FFFFFFFFC000000
0007FFFFFFE0000000
00007FFFFE00000000
ENDCHAR
STARTCHAR 0062
ENCODING 98
SWIDTH 378 0
DWIDTH 84 0
BBX 72 144 5 0
BITMAP
FE0000000000000000
FE0000000000000000
FE0000000000000000
FE0000000000000000
FE0000000000000000
FE0000000000000000
FE0000000000000000
FE0000000000000000
FE0000000000000000
FE0000000000000000
FE0000000000000000
FE0000000000000000
FE0000000000000000
FE0000000000000000
FE0000000000000000
FE0000000000000000
FE0000000000000000
FE0000000000000000
FE0000000000000000
FE0000000000000000
FE0000000000000000
FE0000000000000000
FE0000000000000000
FE0000000000000000
FE0000000000000000
FE0000000000000000
FE0000000000000000
FE0000000000000000
FE0000000000000000
FE0000000000000000
FE0000000000000000
FE0000000000000000
FE0000000000000000
FE0000000000000000
FE0000000000000000
FE0000000000000000
FE0000000000000000
FE0000000000000000
FE0000000000000000
FE0000000000000000
FE0000000000000000
FE0000000000000000
FE0000000000000000
FE000003FFC0000000
FE00007FFFFE000000
FE0003FFFFFF800000
FE000FFFFFFFF00000
FE003FFFFFFFF80000
FE007FFFFFFFFE0000
FE01FFFFFFFFFF8000
FE03FFFC003FFFC000
FE07FFE00007FFE000
FE0FFF000000FFF000
FE1FFC0000003FF800
FE3FF00000000FFC00
FE7FE000000007FE00
FEFFC000000003FF00
FFFF0000000000FF80
FFFE00000000007FC0
FFFC00000000003FC0
FFFC00000000003FE0
FFF800000000001FE0
FFF000000000000FF0
FFE0000000000007F8
FFE0000000000007F8
FFC0000000000003F8
FFC0000000000003FC
FF80000000000001FC
FF80000000000001FC
FF00000000000001FE
FF00000000000000FE
FF00000000000000FE
FF00000000000000FE
FE000000000000007F
FE000000000000007F
FE000000000000007F
FE000000000000007F
FE000000000000007F
FE000000000000007F
FE000000000000007F
FE000000000000007F
FE000000000000007F
FE000000000000007F
FE000000000000007F
FE000000000000007F
FE000000000000007F
FE000000000000007F
FE000000000000007F
FE000000000000007F
FE000000000000007F
FE000000000000007F
FE000000000000007F
FE000000000000007F
FE000000000000007F
FE000000000000007F
FE000000000000007F
FE000000000000007F
FE000000000000007F
FE000000000000007F
FE000000000000007F
FE000000000000007F
FE000000000000007F
FE000000000000007F
FE000000000000007F
FE000000000000007F
FE000000000000007F
FE000000000000007F
FE000000000000007F
FE000000000000007F
FE000000000000007F
FE000000000000007F
FE000000000000007F
FE000000000000007F
FE00000000000000FF
7F00000000000000FE
7F00000000000000FE
7F00000000000000FE
7F80000000000001FE
7F80000000000001FE
3F80000000000001FC
3FC0000000000003FC
3FC0000000000003F8
1FE0000000000007F8
1FE000000000000FF8
0FF000000000000FF0
0FF800000000001FF0
07FC00000000003FE0
07FE00000000007FC0
03FF0000000000FFC0
01FF8000000001FF80
00FFC000000003FF00
00FFE000000007FE00
007FF00000000FFC00
003FFC0000003FF800
001FFF000000FFF000
000FFFE00007FFE000
0003FFFC003FFFC000
0001FFFFFFFFFF8000
0000FFFFFFFFFE0000
00003FFFFFFFFC0000
00000FFFFFFFF00000
000003FFFFFF800000
0000007FFFFE000000
00000003FFC0000000
ENDCHAR
STARTCHAR 0063
ENCODING 99
SWIDTH 378 0
DWIDTH 84 0
BBX 72 101 5 0
BITMAP
00000003FFC0000000
0000007FFFFC000000
000003FFFFFF800000
00000FFFFFFFE00000
00003FFFFFFFF80000
00007FFFFFFFFE0000
0001FFFFFFFFFF0000
0003FFFC007FFFC000
0007FFC00007FFE000
000FFF000000FFF000
001FFC0000003FF800
003FF00000001FFC00
007FE000000007FE00
00FF8000000003FF00
01FF0000000001FF00
03FE0000000000FF80
03FC00000000007FC0
07FC00000000003FC0
0FF800000000001FE0
0FF000000000001FF0
1FE000000000000FF0
1FE0000000000007F8
3FC0000000000007F8
3FC0000000000003F8
3F80000000000003FC
7F80000000000003FC
7F00000000000001FC
7F00000000000001FE
7F00000000000001FE
7F00000000000000FE
FE00000000000000FE
FE00000000000000FE
FE00000000000000FE
FE00000000000000FF
FE00000000000000FF
FE00000000000000FF
FE00000000000000FF
FE0000000000000000
FE0000000000000000
FE0000000000000000
FE0000000000000000
FE0000000000000000
FE0000000000000000
FE0000000000000000
FE0000000000000000
FE0000000000000000
FE0000000000000000
FE0000000000000000
FE0000000000000000
FE0000000000000000
FE0000000000000000
FE0000000000000000
FE0000000000000000
FE0000000000000000
FE0000000000000000
FE0000000000000000
FE0000000000000000
FE0000000000000000
FE0000000000000000
FE0000000000000000
FE0000000000000000
FE0000000000000000
FE0000000000000000
FE0000000000000000
FE0000000000000000
FE00000000000000FF
FE00000000000000FF
FE00000000000000FF
FE00000000000000FF
FE00000000000000FE
FE00000000000000FE
7F00000000000000FE
7F00000000000000FE
7F00000000000001FE
7F80000000000001FE
7F80000000000001FC
3F80000000000003FC
3FC0000000000003FC
3FC0000000000007F8
1FE0000000000007F8
1FE000000000000FF0
0FF000000000001FF0
0FF800000000001FE0
07FC00000000003FE0
07FE00000000007FC0
03FE0000000000FFC0
01FF8000000001FF80
00FFC000000003FF00
00FFE000000007FE00
007FF00000001FFC00
003FFC0000003FF800
001FFF000000FFF000
000FFFC00007FFE000
0003FFFC007FFFC000
0001FFFFFFFFFF8000
0000FFFFFFFFFE0000
00003FFFFFFFFC0000
00000FFFFFFFF00000
000003FFFFFF800000
0000007FFFFE000000
00000003FFC0000000
ENDCHAR
STARTCHAR 0064
ENCODING 100
SWIDTH 378 0
DWIDTH 84 0
BBX 72 144 5 0
BITMAP
00000000000000007F
00000000000000007F
00000000000000007F
00000000000000007F
00000000000000007F
00000000000000007F
00000000000000007F
00000000000000007F
00000000000000007F
00000000000000007F
00000000000000007F
00000000000000007F
00000000000000007F
00000000000000007F
00000000000000007F
00000000000000007F
00000000000000007F
00000000000000007F
00000000000000007F
00000000000000007F
00000000000000007F
00000000000000007F
00000000000000007F
00000000000000007F
00000000000000007F
00000000000000007F
00000000000000007F
00000000000000007F
00000000000000007F
00000000000000007F
00000000000000007F
00000000000000007F
00000000000000007F
00000000000000007F
00000000000000007F
00000000000000007F
00000000000000007F
00000000000000007F
00000000000000007F
00000000000000007F
00000000000000007F
00000000000000007F
00000000000000007F
00000003FFC000007F
0000007FFFFE00007F
000001FFFFFF80007F
00000FFFFFFFF0007F
00003FFFFFFFFC007F
00007FFFFFFFFE007F
0001FFFFFFFFFF807F
0003FFFC003FFFC07F
0007FFE00007FFE07F
000FFF000000FFF07F
001FFC0000003FF87F
003FF00000000FFC7F
007FE000000007FE7F
00FFC000000003FF7F
01FF0000000000FFFF
03FE00000000007FFF
03FC00000000003FFF
07FC00000000003FFF
0FF800000000001FFF
0FF000000000000FFF
1FE0000000000007FF
1FE0000000000007FF
1FC0000000000003FF
3FC0000000000003FF
3F80000000000001FF
7F80000000000001FF
7F00000000000001FF
7F00000000000000FF
7F00000000000000FF
7F00000000000000FF
FE000000000000007F
FE000000000000007F
FE000000000000007F
FE000000000000007F
FE000000000000007F
FE000000000000007F
FE000000000000007F
FE000000000000007F
FE000000000000007F
FE000000000000007F
FE000000000000007F
FE000000000000007F
FE000000000000007F
FE000000000000007F
FE000000000000007F
FE000000000000007F
FE000000000000007F
FE000000000000007F
FE000000000000007F
FE000000000000007F
FE000000000000007F
FE000000000000007F
FE000000000000007F
FE000000000000007F
FE000000000000007F
FE000000000000007F
FE000000000000007F
FE000000000000007F
FE000000000000007F
FE000000000000007F
FE000000000000007F
FE000000000000007F
FE000000000000007F
FE000000000000007F
FE000000000000007F
FE000000000000007F
FE000000000000007F
FE000000000000007F
FE000000000000007F
FE000000000000007F
FE00000000000000FF
7F00000000000000FE
7F00000000000000FE
7F00000000000000FE
7F80000000000001FE
7F80000000000001FE
3F80000000000001FC
3FC0000000000003FC
3FC0000000000003F8
1FE0000000000007F8
1FE000000000000FF8
0FF000000000000FF0
0FF800000000001FF0
07FC00000000003FE0
07FE00000000007FC0
03FF0000000000FFC0
01FF8000000001FF80
00FFC000000003FF00
007FE000000007FE00
007FF00000000FFC00
003FFC0000003FF800
001FFF000000FFF000
0007FFE00007FFE000
0003FFFC003FFFC000
0001FFFFFFFFFF8000
0000FFFFFFFFFE0000
00003FFFFFFFFC0000
00000FFFFFFFF00000
000003FFFFFFC00000
0000007FFFFE000000
00000003FFC0000000
ENDCHAR
STARTCHAR 0065
ENCODING 101
SWIDTH 378 0
DWIDTH 84 0
BBX 72 101 5 0
BITMAP
00000003FFC0000000
0000003FFFFC000000
000001FFFFFF800000
00000FFFFFFFF00000
00003FFFFFFFFC0000
00007FFFFFFFFE0000
0001FFFFFFFFFF8000
0003FFFC007FFFC000
0007FFC00007FFE000
001FFF000001FFF800
003FFC0000007FFC00
007FF00000001FFE00
007FE00000000FFE00
00FFC000000003FF00
01FF8000000001FF80
03FE0000000000FFC0
03FE00000000007FC0
07FC00000000003FE0
0FF800000000001FF0
0FF000000000001FF0
1FE000000000000FF8
1FE0000000000007F8
3FC0000000000007FC
3FC0000000000003FC
3F80000000000003FC
7F80000000000001FE
7F80000000000001FE
7F00000000000001FE
7F00000000000000FE
7F00000000000000FE
FE00000000000000FF
FE00000000000000FF
FE00000000000000FF
FE00000000000000FF
FE00000000000000FF
FE00000000000000FF
FE000000000000007F
FE000000000000007F
FE000000000000007F
FE000000000000007F
FE000007FFFFFFFFFF
FE00007FFFFFFFFFFF
FE0003FFFFFFFFFFFF
FE000FFFFFFFFFFFFF
FE003FFFFFFFFFFFFF
FE00FFFFFFFFFFFFFF
FE01FFFFFFFFFFFFFF
FE07FFFC0000000000
FE0FFFC00000000000
FE1FFF000000000000
FE3FFC000000000000
FE7FF0000000000000
FEFFC0000000000000
FFFF80000000000000
FFFF00000000000000
FFFE00000000000000
FFFC00000000000000
FFF800000000000000
FFF000000000000000
FFE000000000000000
FFE000000000000000
FFC000000000000000
FFC000000000000000
FF8000000000000000
FF8000000000000000
FF000000000000007F
FF000000000000007F
FF000000000000007F
FE000000000000007F
FE000000000000007F
FE00000000000000FF
7E00000000000000FE
7E00000000000000FE
7F00000000000000FE
7F00000000000001FE
7F00000000000001FE
3F80000000000001FC
3F80000000000003FC
3FC0000000000003FC
1FC0000000000007F8
1FE000000000000FF8
0FE000000000000FF0
0FF000000000001FF0
07F800000000003FE0
07FC00000000007FC0
03FE0000000000FFC0
01FF0000000001FF80
00FF8000000003FF00
00FFC000000007FE00
007FF00000001FFE00
003FFC0000003FFC00
001FFF000000FFF800
000FFFC00007FFE000
0003FFFC007FFFC000
0001FFFFFFFFFF8000
0000FFFFFFFFFE0000
00003FFFFFFFFC0000
00000FFFFFFFF00000
000003FFFFFFC00000
0000007FFFFE000000
00000003FFC0000000
ENDCHAR
STARTCHAR 0066
ENCODING 102
SWIDTH 337 0
DWIDTH 75 0
BBX 72 144 4 0
BITMAP
00000003FFC0000000
0000007FFFFC000000
000003FFFFFF800000
00000FFFFFFFE00000
00003FFFFFFFF80000
00007FFFFFFFFE0000
0001FFFFFFFFFF0000
0003FFFC007FFFC000
0007FFC00007FFE000
000FFF000000FFF000
001FFC0000003FF800
003FF00000001FFC00
007FE000000007FE00
00FFC000000003FF00
01FF0000000001FF00
03FE0000000000FF80
03FC00000000007FC0
07FC00000000003FC0
0FF800000000001FE0
0FF000000000001FF0
1FE000000000000FF0
1FE0000000000007F8
1FC0000000000007F8
3FC0000000000003F8
3F80000000000003FC
7F80000000000001FC
7F80000000000001FC
7F00000000000001FE
7F00000000000001FE
7F00000000000000FE
FF00000000000000FE
FE00000000000000FE
FE00000000000000FE
FE00000000000000FF
FE00000000000000FF
FE000000000000007F
FE000000000000007F
FE0000000000000000
FE0000000000000000
FE0000000000000000
FE0000000000000000
FE0000000000000000
FE0000000000000000
FE0000000000000000
FE0000000000000000
FE0000000000000000
FE0000000000000000
FE0000000000000000
FE0000000000000000
FE0000000000000000
FE0000000000000000
FE0000000000000000
FE0000000000000000
FE0000000000000000
FE0000000000000000
FE0000000000000000
FE0000000000000000
FE0000000000000000
FE0000000000000000
FE0000000000000000
FE0000000000000000
FE0000000000000000
FE0000000000000000
FE0000000000000000
FE0000000000000000
FE000003FFFFC00000
FE00007FFFFFC00000
FE0003FFFFFFC00000
FE000FFFFFFFC00000
FE003FFFFFFFC00000
FE007FFFFFFFC00000
FE01FFFFFFFFC00000
FE03FFFC0000000000
FE07FFE00000000000
FE0FFF000000000000
FE1FFC000000000000
FE3FF0000000000000
FE7FE0000000000000
FEFFC0000000000000
FFFF80000000000000
FFFF00000000000000
FFFE00000000000000
FFFC00000000000000
FFF800000000000000
FFF000000000000000
FFE000000000000000
FFE000000000000000
FFC000000000000000
FFC000000000000000
FF8000000000000000
FF8000000000000000
FF8000000000000000
FF0000000000000000
FF0000000000000000
FF0000000000000000
FF0000000000000000
FE0000000000000000
FE0000000000000000
FE0000000000000000
FE0000000000000000
FE0000000000000000
FE0000000000000000
FE0000000000000000
FE0000000000000000
FE0000000000000000
FE0000000000000000
FE0000000000000000
FE0000000000000000
FE0000000000000000
FE0000000000000000
FE0000000000000000
FE0000000000000000
FE0000000000000000
FE0000000000000000
FE0000000000000000
FE0000000000000000
FE0000000000000000
FE0000000000000000
FE0000000000000000
FE0000000000000000
FE0000000000000000
FE0000000000000000
FE0000000000000000
FE0000000000000000
FE0000000000000000
FE0000000000000000
FE0000000000000000
FE0000000000000000
FE0000000000000000
FE0000000000000000
FE0000000000000000
FE0000000000000000
FE0000000000000000
FE0000000000000000
FE0000000000000000
FE0000000000000000
FE0000000000000000
FE0000000000000000
FE0000000000000000
FE0000000000000000
FE0000000000000000
FE0000000000000000
FE0000000000000000
FE0000000000000000
ENDCHAR
STARTCHAR 0067
ENCODING 103
SWIDTH 378 0
DWIDTH 84 0
BBX 72 143 5 -41
BITMAP
00000003FFC0000000
0000007FFFFE000000
000003FFFFFF800000
00000FFFFFFFF00000
00003FFFFFFFFC0000
00007FFFFFFFFE0000
0001FFFFFFFFFF8000
0003FFFC003FFFC000
0007FFE00003FFE000
000FFF000000FFF000
001FFC0000003FF800
003FF00000000FFC00
007FE000000007FE00
00FFC000000003FF00
01FF0000000000FF80
03FE00000000007FC0
03FC00000000003FC0
07FC00000000001FE0
0FF800000000001FF0
0FF000000000000FF0
1FE0000000000007F8
1FE0000000000007F8
3FC0000000000003FC
3FC0000000000003FC
3F80000000000001FC
7F80000000000001FE
7F80000000000000FE
7F00000000000000FE
7F00000000000000FE
FF00000000000000FE
FF000000000000007F
FE000000000000007F
FE000000000000007F
FE000000000000007F
FE000000000000007F
FE000000000000007F
FE000000000000007F
FE000000000000007F
FE000000000000007F
FE000000000000007F
FE000000000000007F
FE000000000000007F
FE000000000000007F
FE000000000000007F
FE000000000000007F
FE000000000000007F
FE000000000000007F
FE000000000000007F
FE000000000000007F
FE000000000000007F
FE000000000000007F
FE000000000000007F
FE000000000000007F
FE000000000000007F
FE000000000000007F
FE000000000000007F
FE000000000000007F
FE000000000000007F
FE000000000000007F
FE000000000000007F
FE000000000000007F
FE000000000000007F
FE000000000000007F
FE000000000000007F
FE000000000000007F
FE000000000000007F
FE000000000000007F
FE000000000000007F
FE000000000000007F
FF000000000000007F
FF00000000000000FF
7F00000000000000FF
7F00000000000000FF
7F80000000000001FF
7F80000000000001FF
3F80000000000001FF
3FC0000000000003FF
3FC0000000000003FF
1FE0000000000007FF
1FE0000000000007FF
0FF000000000000FFF
0FF800000000001FFF
07FC00000000003FFF
07FE00000000007FFF
03FF00000000007FFF
01FF8000000001FFFF
01FFC000000003FF7F
00FFE000000007FE7F
007FF00000000FFE7F
003FFC0000003FFC7F
001FFF000000FFF87F
000FFFE00007FFF07F
0007FFFC003FFFC07F
0001FFFFFFFFFF807F
0000FFFFFFFFFF007F
00003FFFFFFFFC007F
00000FFFFFFFF0007F
000003FFFFFFC0007F
0000007FFFFE00007F
00000007FFE000007F
00000000000000007F
00000000000000007F
00000000000000007F
00000000000000007F
00000000000000007F
00000000000000007F
00000000000000007F
FE000000000000007F
FE000000000000007F
FE000000000000007F
FE000000000000007F
FE000000000000007F
FE00000000000000FF
7F00000000000000FE
7F00000000000000FE
7F00000000000000FE
7F80000000000001FE
7F80000000000001FE
3F80000000000001FC
3FC0000000000003FC
3FC0000000000003FC
1FE0000000000007F8
1FE0000000000007F8
0FF000000000000FF0
0FF800000000001FF0
07FC00000000003FE0
07FE00000000007FC0
03FF0000000000FFC0
01FF8000000001FF80
00FFC000000003FF00
007FE000000007FE00
007FF00000000FFC00
003FFC0000003FF800
001FFF000000FFF000
0007FFE00007FFE000
0003FFFC003FFFC000
0001FFFFFFFFFF8000
0000FFFFFFFFFE0000
00003FFFFFFFFC0000
00000FFFFFFFF00000
000003FFFFFFC00000
0000007FFFFE000000
00000003FFC0000000
ENDCHAR
STARTCHAR 0068
ENCODING 104
SWIDTH 378 0
DWIDTH 84 0
BBX 72 144 5 0
BITMAP
FE0000000000000000
FE0000000000000000
FE0000000000000000
FE0000000000000000
FE0000000000000000
FE0000000000000000
FE0000000000000000
FE0000000000000000
FE0000000000000000
FE0000000000000000
FE0000000000000000
FE0000000000000000
FE0000000000000000
FE0000000000000000
FE0000000000000000
FE0000000000000000
FE0000000000000000
FE0000000000000000
FE0000000000000000
FE0000000000000000
FE0000000000000000
FE0000000000000000
FE0000000000000000
FE0000000000000000
FE0000000000000000
FE0000000000000000
FE0000000000000000
FE0000000000000000
FE0000000000000000
FE0000000000000000
FE0000000000000000
FE0000000000000000
FE0000000000000000
FE0000000000000000
FE0000000000000000
FE0000000000000000
FE0000000000000000
FE0000000000000000
FE0000000000000000
FE0000000000000000
FE0000000000000000
FE0000000000000000
FE0000000000000000
FE000000FE00000000
FE000007FFE0000000
FE00007FFFFE000000
FE0003FFFFFFC00000
FE000FFFFFFFF80000
FE003FFFFFFFFC0000
FE00FFFFFFFFFF0000
FE01FFFFFFFFFF8000
FE07FFFC003FFFE000
FE0FFFC00003FFF000
FE1FFF000000FFF800
FE3FFC0000003FFC00
FE7FF00000000FFE00
FEFFE000000007FF00
FFFF8000000003FF80
FFFF0000000000FF80
FFFE00000000007FC0
FFFC00000000003FE0
FFF800000000001FE0
FFF800000000001FF0
FFF000000000000FF0
FFE0000000000007F8
FFE0000000000007F8
FFC0000000000003FC
FFC0000000000003FC
FF80000000000001FC
FF80000000000001FE
FF00000000000000FE
FF00000000000000FE
FF00000000000000FE
FF00000000000000FF
FE000000000000007F
FE000000000000007F
FE000000000000007F
FE000000000000007F
FE000000000000007F
FE000000000000007F
FE000000000000007F
FE000000000000007F
FE000000000000007F
FE000000000000007F
FE000000000000007F
FE000000000000007F
FE000000000000007F
FE000000000000007F
FE000000000000007F
FE000000000000007F
FE000000000000007F
FE000000000000007F
FE000000000000007F
FE000000000000007F
FE000000000000007F
FE000000000000007F
FE000000000000007F
FE000000000000007F
FE000000000000007F
FE000000000000007F
FE000000000000007F
FE000000000000007F
FE000000000000007F
FE000000000000007F
FE000000000000007F
FE000000000000007F
FE000000000000007F
FE000000000000007F
FE000000000000007F
FE000000000000007F
FE000000000000007F
FE000000000000007F
FE000000000000007F
FE000000000000007F
FE000000000000007F
FE000000000000007F
FE000000000000007F
FE000000000000007F
FE000000000000007F
FE000000000000007F
FE000000000000007F
FE000000000000007F
FE000000000000007F
FE000000000000007F
FE000000000000007F
FE000000000000007F
FE000000000000007F
FE000000000000007F
FE000000000000007F
FE000000000000007F
FE000000000000007F
FE000000000000007F
FE000000000000007F
FE000000000000007F
FE000000000000007F
FE000000000000007F
FE000000000000007F
FE000000000000007F
FE000000000000007F
FE000000000000007F
FE000000000000007F
FE000000000000007F
FE000000000000007F
FE000000000000007F
ENDCHAR
STARTCHAR 0069
ENCODING 105
SWIDTH 85 0
DWIDTH 19 0
BBX 7 118 5 0
BITMAP
7C
FE
FE
FE
FE
FE
7C
00
00
00
00
00
00
00
00
00
00
FE
FE
FE
FE
FE
FE
FE
FE
FE
FE
FE
FE
FE
FE
FE
FE
FE
FE
FE
FE
FE
FE
FE
FE
FE
FE
FE
FE
FE
FE
FE
FE
FE
FE
FE
FE
FE
FE
FE
FE
FE
FE
FE
FE
FE
FE
FE
FE
FE
FE
FE
FE
FE
FE
FE
FE
FE
FE
FE
FE
FE
FE
FE
FE
FE
FE
FE
FE
FE
FE
FE
FE
FE
FE
FE
FE
FE
FE
FE
FE
FE
FE
FE
FE
FE
FE
FE
FE
FE
FE
FE
FE
FE
FE
FE
FE
FE
FE
FE
FE
FE
ENDCHAR
STARTCHAR 006A
ENCODING 106
SWIDTH 99 0
DWIDTH 22 0
BBX 36 160 -21 -42
BITMAP
00000003E0
00000007F0
00000007F0
00000007F0
00000007F0
00000007F0
00000003E0
0000000000
0000000000
0000000000
0000000000
0000000000
0000000000
0000000000
0000000000
0000000000
0000000000
00000007F0
00000007F0
00000007F0
00000007F0
00000007F0
00000007F0
00000007F0
00000007F0
00000007F0
00000007F0
00000007F0
00000007F0
00000007F0
00000007F0
00000007F0
00000007F0
00000007F0
00000007F0
00000007F0
00000007F0
00000007F0
00000007F0
00000007F0
00000007F0
00000007F0
00000007F0
00000007F0
00000007F0
00000007F0
00000007F0
00000007F0
00000007F0
00000007F0
00000007F0
00000007F0
00000007F0
00000007F0
00000007F0
00000007F0
00000007F0
00000007F0
00000007F0
00000007F0
00000007F0
00000007F0
00000007F0
00000007F0
00000007F0
00000007F0
00000007F0
00000007F0
00000007F0
00000007F0
00000007F0
00000007F0
00000007F0
00000007F0
00000007F0
00000007F0
00000007F0
00000007F0
00000007F0
00000007F0
00000007F0
00000007F0
00000007F0
00000007F0
00000007F0
00000007F0
00000007F0
00000007F0
00000007F0
00000007F0
00000007F0
00000007F0
00000007F0
00000007F0
00000007F0
00000007F0
00000007F0
00000007F0
00000007F0
00000007F0
00000007F0
00000007F0
00000007F0
00000007F0
00000007F0
00000007F0
00000007F0
00000007F0
00000007F0
00000007F0
00000007F0
00000007F0
00000007F0
00000007F0
00000007F0
00000007F0
00000007F0
00000007F0
00000007F0
00000007F0
00000007F0
00000007F0
00000007F0
00000007F0
00000007F0
00000007F0
00000007F0
00000007F0
00000007F0
00000007F0
0000000FE0
0000000FE0
0000000FE0
0000000FE0
0000001FE0
0000001FC0
0000003FC0
0000003FC0
0000007F80
0000007F80
000000FF00
000001FF00
000003FE00
000003FC00
000007FC00
00000FF800
00003FF000
00007FE000
0000FFC000
0003FF8000
000FFF0000
007FFE0000
07FFFC0000
FFFFF80000
FFFFE00000
FFFFC00000
FFFF000000
FFFC000000
FFE0000000
FC00000000
ENDCHAR
STARTCHAR 006B
ENCODING 107
SWIDTH 378 0
DWIDTH 84 0
BBX 72 144 5 0
BITMAP
FE0000000000000000
FE0000000000000000
FE0000000000000000
FE0000000000000000
FE0000000000000000
FE0000000000000000
FE0000000000000000
FE0000000000000000
FE0000000000000000
FE0000000000000000
FE0000000000000000
FE0000000000000000
FE0000000000000000
FE0000000000000000
FE0000000000000000
FE0000000000000000
FE0000000000000000
FE0000000000000000
FE0000000000000000
FE0000000000000000
FE0000000000000000
FE0000000000000000
FE0000000000000000
FE0000000000000000
FE0000000000000000
FE0000000000000000
FE0000000000000000
FE0000000000000000
FE0000000000000000
FE0000000000000000
FE0000000000000000
FE0000000000000000
FE0000000000000000
FE0000000000000000
FE0000000000000000
FE0000000000000000
FE0000000000000000
FE0000000000000000
FE0000000000000000
FE0000000000000000
FE0000000000000000
FE0000000000000000
FE0000000000000000
FE000000000000007F
FE000000000000007F
FE000000000000007F
FE000000000000007F
FE000000000000007F
FE000000000000007F
FE000000000000007F
FE000000000000007F
FE000000000000007F
FE000000000000007F
FE000000000000007F
FE000000000000007F
FE000000000000007F
FE000000000000007F
FE000000000000007F
FE000000000000007F
FE000000000000007F
FE000000000000007F
FE000000000000007F
FE000000000000007F
FE00000000000000FE
FE00000000000000FE
FE00000000000000FE
FE00000000000000FE
FE00000000000001FE
FE00000000000001FC
FE00000000000001FC
FE00000000000003FC
FE00000000000003F8
FE00000000000007F8
FE0000000000000FF0
FE0000000000000FF0
FE0000000000001FE0
FE0000000000003FE0
FE0000000000007FC0
FE000000000000FF80
FE000000000001FF80
FE000000000003FF00
FE000000000007FE00
FE00000000001FFC00
FE00000000003FF800
FE0000000000FFF000
FE0000000007FFE000
FE000000003FFF8000
FE000003FFFFFF0000
FE00007FFFFFFC0000
FE0003FFFFFFF00000
FE000FFFFFFFF80000
FE003FFFFFFFFE0000
FE00FFFFFFFFFF0000
FE01FFFFFFFFFFC000
FE07FFFC003FFFE000
FE0FFFC00003FFF000
FE1FFF000000FFF800
FE3FFC0000003FFE00
FE7FF00000000FFE00
FEFFE000000007FF00
FFFF8000000003FF80
FFFF0000000000FFC0
FFFE00000000007FE0
FFFC00000000003FE0
FFF800000000001FF0
FFF800000000001FF0
FFF000000000000FF8
FFE0000000000007F8
FFE0000000000007FC
FFC0000000000003FC
FFC0000000000003FC
FF80000000000001FE
FF80000000000001FE
FF00000000000000FE
FF00000000000000FE
FF00000000000000FE
FF00000000000000FF
FE000000000000007F
FE000000000000007F
FE000000000000007F
FE000000000000007F
FE000000000000007F
FE000000000000007F
FE000000000000007F
FE000000000000007F
FE000000000000007F
FE000000000000007F
FE000000000000007F
FE000000000000007F
FE000000000000007F
FE000000000000007F
FE000000000000007F
FE000000000000007F
FE000000000000007F
FE000000000000007F
FE000000000000007F
FE000000000000007F
FE000000000000007F
FE000000000000007F
FE000000000000007F
FE000000000000007F
FE000000000000007F
FE000000000000007F
FE000000000000007F
ENDCHAR
STARTCHAR 006C
ENCODING 108
SWIDTH 85 0
DWIDTH 19 0
BBX 7 144 5 0
BITMAP
FE
FE
FE
FE
FE
FE
FE
FE
FE
FE
FE
FE
FE
FE
FE
FE
FE
FE
FE
FE
FE
FE
FE
FE
FE
FE
FE
FE
FE
FE
FE
FE
FE
FE
FE
FE
FE
FE
FE
FE
FE
FE
FE
FE
FE
FE
FE
FE
FE
FE
FE
FE
FE
FE
FE
FE
FE
FE
FE
FE
FE
FE
FE
FE
FE
FE
FE
FE
FE
FE
FE
FE
FE
FE
FE
FE
FE
FE
FE
FE
FE
FE
FE
FE
FE
FE
FE
FE
FE
FE
FE
FE
FE
FE
FE
FE
FE
FE
FE
FE
FE
FE
FE
FE
FE
FE
FE
FE
FE
FE
FE
FE
FE
FE
FE
FE
FE
FE
FE
FE
FE
FE
FE
FE
FE
FE
FE
FE
FE
FE
FE
FE
FE
FE
FE
FE
FE
FE
FE
FE
FE
FE
FE
FE
ENDCHAR
ENDFONT
